SplineFontDB: 3.2
FontName: OcticonsV2-Bold
FullName: OcticonsV2 Bold
FamilyName: OcticonsV2
Weight: Bold
Copyright: 
UComments: "2020-6-10: Created with FontForge (http://fontforge.org)"
Version: e5345d7
ItalicAngle: 0
UnderlinePosition: -100
UnderlineWidth: 50
Ascent: 800
Descent: 200
InvalidEm: 0
LayerCount: 2
Layer: 0 0 "Back" 1
Layer: 1 0 "Fore" 0
XUID: [1021 790 1827221160 9742]
OS2Version: 0
OS2_WeightWidthSlopeOnly: 0
OS2_UseTypoMetrics: 1
CreationTime: 1591800147
ModificationTime: 1591829656
OS2TypoAscent: 0
OS2TypoAOffset: 1
OS2TypoDescent: 0
OS2TypoDOffset: 1
OS2TypoLinegap: 0
OS2WinAscent: 0
OS2WinAOffset: 1
OS2WinDescent: 0
OS2WinDOffset: 1
HheadAscent: 0
HheadAOffset: 1
HheadDescent: 0
HheadDOffset: 1
OS2Vendor: 'PfEd'
MarkAttachClasses: 1
DEI: 91125
Encoding: UnicodeBmp
UnicodeInterp: none
NameList: AGL For New Fonts
DisplaySize: -48
AntiAlias: 1
FitToEm: 0
WinInfo: 61408 19 13
BeginPrivate: 0
EndPrivate
BeginChars: 65536 222

StartChar: uniF000
Encoding: 61440 61440 0
Width: 1000
Flags: H
LayerCount: 2
Fore
SplineSet
265 456.25 m 0
 265 374.25637406 302.978577633 320.504958933 343.316679933 265.136866524 c 0
 370.021351377 228.640818103 403.300583137 183.696536583 416.017437733 127.5 c 1
 583.982585459 127.5 l 1
 598.619370988 192.179805703 637.644856403 238.183019901 668.389159706 281.25878534 c 0
 705.563593643 333.306862668 735 382.043386823 735 456.25 c 0
 735 583.230594851 649.734266863 691.25 500 691.25 c 0
 350.265733137 691.25 265 583.230594851 265 456.25 c 0
421.25 -12.5 m 2
 421.25 -56.0007195451 456.497660334 -91.25 500 -91.25 c 0
 543.502339666 -91.25 578.75 -56.0007195451 578.75 -12.5 c 2
 578.75 3.75 l 1
 421.25 3.75 l 1
 421.25 -12.5 l 2
500 815 m 0
 725.443758632 815 858.75 642.663335567 858.75 456.25 c 0
 858.75 342.866717379 810.077985898 266.716314445 769.091996834 209.339873086 c 0
 765.574836664 204.435176285 762.059081403 199.529074576 758.541047996 194.625251012 c 0
 721.222364855 142.683669159 702.5 115.192095277 702.5 81.25 c 2
 702.5 -12.5 l 2
 702.5 -124.331534146 611.827294889 -215 500 -215 c 0
 388.172705111 -215 297.5 -124.331534146 297.5 -12.5 c 2
 297.5 81.25 l 2
 297.5 115.246548311 278.712022197 142.783313251 241.28458496 194.869302442 c 2
 230.892388304 209.361692845 l 2
 189.909798939 266.73751512 141.25 342.866470157 141.25 456.25 c 0
 141.25 642.663335567 274.556241368 815 500 815 c 0
EndSplineSet
EndChar

StartChar: uniF001
Encoding: 61441 61441 1
Width: 1000
Flags: H
LayerCount: 2
Fore
SplineSet
546.875 65 m 2
 563.552393858 65 577.5 51.0642597702 577.5 34.375 c 2
 577.5 -168.75 l 2
 577.5 -181.658844774 569.655947954 -191.592912137 560.570016013 -196.142714775 c 0
 556.312938095 -198.276861477 551.664074234 -199.37646279 546.882013374 -199.37646279 c 0
 539.514651616 -199.37646279 533.765534979 -197.204011966 528.515260291 -193.259127407 c 2
 437.878548398 -125.312838637 l 2
 437.797099434 -125.251656316 437.609295405 -125.1875 437.5 -125.1875 c 0
 437.391306836 -125.1875 437.195002799 -125.257603138 437.109739709 -125.321627407 c 2
 346.497942651 -193.249218456 l 2
 341.253347327 -197.189835726 335.472615983 -199.37646279 328.117986626 -199.37646279 c 0
 316.029622713 -199.37646279 306.956514445 -192.749911091 302.063876984 -184.831481193 c 0
 299.07451201 -179.993379621 297.5 -174.477277993 297.5 -168.75 c 2
 297.5 34.375 l 2
 297.5 51.0604258493 311.444316656 65 328.125 65 c 2
 546.875 65 l 2
766.25 252.5 m 1
 766.25 691.25 l 1
 281.25 691.25 l 2
 268.676567653 691.25 256.537986842 686.216875317 247.659740777 677.339368921 c 0
 238.782234381 668.461122855 233.75 656.323432347 233.75 643.75 c 2
 233.75 245.835648147 l 1
 248.828231259 250.180489082 264.762534921 252.5 281.25 252.5 c 2
 766.25 252.5 l 1
110 643.75 m 2
 110 689.192884541 128.013250405 732.694068629 160.160126563 764.839873437 c 0
 192.306688721 796.986435597 235.807040303 815 281.25 815 c 2
 828.125 815 l 2
 844.558523164 815 860.238077203 808.515200219 871.871296134 796.876809819 c 0
 883.51097051 785.241013182 890 769.558410046 890 753.125 c 2
 890 -28.125 l 2
 890 -44.5577316707 883.520411081 -60.2347912068 871.877230664 -71.8689208459 c 0
 860.243101025 -83.5121012629 844.557731671 -90 828.125 -90 c 2
 671.875 -90 l 2
 655.442268329 -90 639.765208793 -83.5204110809 628.131079154 -71.8772306639 c 0
 616.487898737 -60.2431010249 610 -44.5577316707 610 -28.125 c 0
 610 -11.6922683293 616.479588919 3.98479120681 628.122769336 15.6189208459 c 0
 639.756898975 27.2621012629 655.442268329 33.75 671.875 33.75 c 2
 766.25 33.75 l 1
 766.25 128.75 l 1
 281.25 128.75 l 2
 260.233127702 128.75 244.032097874 115.273732072 237.470737835 99.6506781145 c 0
 235.009086548 93.7911409535 233.75899817 87.5057589696 233.75899817 81.2522889931 c 0
 233.75899817 66.8105387659 239.147366489 56.3489651272 247.341640347 47.9912144842 c 0
 258.70397899 36.3866084929 265.017170875 20.8979640336 265.017170875 4.68693417716 c 0
 265.017170875 -12.1798297344 258.320003637 -27.8848784433 246.429282424 -39.528584235 c 0
 234.828983577 -50.8879008348 219.341898492 -57.2027927657 203.132369761 -57.2027927657 c 0
 186.262124417 -57.2027927657 170.56882772 -50.52529487 158.919385084 -38.6274632653 c 0
 127.53315146 -6.63878003202 110 36.2889305723 110 81.0822071112 c 2
 110 643.75 l 2
EndSplineSet
EndChar

StartChar: uniF002
Encoding: 61442 61442 2
Width: 1000
Flags: H
LayerCount: 2
Fore
SplineSet
265.625 564.999023438 m 0
 282.991096296 564.999023438 297.5 579.503784554 297.5 596.874023438 c 0
 297.5 614.240841525 282.997373885 628.749023438 265.625 628.749023438 c 0
 248.258891826 628.749023438 233.75 614.245834299 233.75 596.874023438 c 0
 233.75 579.508637022 248.255324292 564.999023438 265.625 564.999023438 c 0
203.75 454.03381268 m 1
 153.548628254 475.79475305 109.999966593 527.573151213 109.999966593 596.833031245 c 0
 109.999966593 605.619905865 110.742543172 614.424380132 112.241707841 623.162547459 c 0
 118.443169948 659.307872997 137.227570425 692.133726391 165.325454722 715.81981444 c 0
 193.416115792 739.502888437 228.882335098 752.45703125 265.625 752.45703125 c 0
 302.367617448 752.45703125 337.834214562 739.503433232 365.925002242 715.82025249 c 0
 394.02176477 692.134198092 412.806843699 659.307793455 419.008304729 623.162474195 c 0
 420.507554324 614.423811859 421.250176907 605.61889612 421.250176907 596.831497002 c 0
 421.250176907 527.627468178 377.668254227 475.779631165 327.5 454.033697329 c 1
 327.5 409.374023438 l 2
 327.5 392.008500446 342.005455706 377.499023438 359.375 377.499023438 c 2
 640.625 377.499023438 l 2
 657.991817234 377.499023438 672.5 392.005316756 672.5 409.374023438 c 2
 672.5 454.033755098 l 1
 622.297452647 475.794620233 578.749966593 527.572557566 578.749966593 596.833031245 c 0
 578.749966593 605.619905865 579.492543172 614.424380132 580.991707841 623.162547459 c 0
 587.193172103 659.307885558 605.97728004 692.133659123 634.077407848 715.81981444 c 0
 662.167595699 739.50248947 697.630364368 752.45703125 734.375 752.45703125 c 0
 771.119635632 752.45703125 806.580570656 739.504035156 834.670758507 715.821360126 c 0
 862.775394703 692.134140476 881.553779101 659.306778267 887.758011589 623.164182224 c 0
 889.258580886 614.423914292 890.001777935 605.617403248 890.001777935 596.828494119 c 0
 890.001777935 527.628679617 846.415860217 475.778890061 796.25 454.033771254 c 1
 796.25 409.374023438 l 2
 796.25 368.07745383 779.88645275 328.549163324 750.666428344 299.332384627 c 0
 721.448050049 270.117251857 681.921923462 253.749023438 640.625 253.749023438 c 2
 561.875 253.749023438 l 1
 561.875 145.967429042 l 1
 612.10782558 124.204779133 655.688279328 72.3961198042 655.688279328 3.10318484986 c 0
 655.688279328 -5.68557229399 654.946068256 -14.4886228405 653.446310921 -23.2288579154 c 0
 647.249022036 -59.3944651981 628.451162477 -92.2373314622 600.342878479 -115.936388029 c 0
 572.242230078 -139.621266604 536.762006989 -152.587890625 500 -152.587890625 c 0
 463.238857196 -152.587890625 427.756491794 -139.619277458 399.65504396 -115.934636619 c 0
 371.547267247 -92.2350956799 352.755244174 -59.3935590456 346.552992639 -23.2304920889 c 0
 345.054739667 -14.4929436827 344.31264537 -5.68926040517 344.31264537 3.09686468985 c 0
 344.31264537 72.3381621966 387.92289983 124.218090475 438.125 145.967429042 c 1
 438.125 253.749023438 l 1
 359.375 253.749023438 l 2
 318.076379864 253.749023438 278.549828164 270.117104649 249.333954687 299.332978125 c 0
 220.117985143 328.548947669 203.75 368.076349855 203.75 409.374023438 c 2
 203.75 454.03381268 l 1
500 -28.75 m 0
 517.365320913 -28.75 531.875 -14.2473360288 531.875 3.125 c 0
 531.875 20.4933523775 517.369273849 35 500 35 c 0
 482.636308956 35 468.125 20.4976786044 468.125 3.125 c 0
 468.125 -14.2435615652 482.632207129 -28.75 500 -28.75 c 0
702.5 596.874023438 m 0
 702.5 579.51033777 717.003101371 564.999023438 734.375 564.999023438 c 0
 751.742636158 564.999023438 766.25 579.50610489 766.25 596.874023438 c 0
 766.25 614.239349743 751.748115938 628.749023438 734.375 628.749023438 c 0
 717.005722303 628.749023438 702.5 614.243171752 702.5 596.874023438 c 0
EndSplineSet
EndChar

StartChar: uniF005
Encoding: 61445 61445 3
Width: 1000
Flags: H
LayerCount: 2
Fore
SplineSet
47.5 643.75 m 2
 47.5 738.318782895 124.181217105 815 218.75 815 c 2
 765.625 815 l 2
 799.787366392 815 827.5 787.288675959 827.5 753.125 c 2
 827.5 534.375 l 2
 827.5 500.212356541 799.787643459 472.5 765.625 472.5 c 0
 731.462356541 472.5 703.75 500.212356541 703.75 534.375 c 2
 703.75 691.25 l 1
 218.75 691.25 l 2
 192.507259458 691.25 171.25 669.992740542 171.25 643.75 c 2
 171.25 245.825902915 l 1
 186.333427387 250.171889017 202.270583807 252.5 218.75 252.5 c 2
 421.875 252.5 l 2
 456.037643459 252.5 483.75 224.787643459 483.75 190.625 c 0
 483.75 156.462356541 456.037643459 128.75 421.875 128.75 c 2
 218.75 128.75 l 2
 192.507051657 128.75 171.25 107.493675152 171.25 81.25 c 0
 171.25 55.0063248486 192.507051657 33.75 218.75 33.75 c 2
 578.125 33.75 l 2
 612.287643459 33.75 640 6.0376434593 640 -28.125 c 0
 640 -62.2876434593 612.287643459 -90 578.125 -90 c 2
 218.75 -90 l 2
 124.181217106 -90 47.5 -13.318782895 47.5 81.25 c 2
 47.5 643.75 l 2
609.395874023 128.139160156 m 0
 593.572586469 128.139160156 577.735342446 134.174109464 565.645478125 146.26461875 c 0
 553.555562848 158.354534028 547.520751953 174.191859833 547.520751953 190.014648438 c 0
 547.520751953 205.837437042 553.555529517 221.674729517 565.645444795 233.764644795 c 2
 722.189138417 390.309314972 l 2
 734.279181265 402.400002794 750.117164198 408.435058594 765.940551758 408.435058594 c 0
 781.763942856 408.435058594 797.602045742 402.399966758 809.692479161 390.309533339 c 2
 966.235096222 233.764963145 l 2
 978.325586486 221.675117846 984.360839844 205.837663599 984.360839844 190.014648438 c 0
 984.360839844 174.191633277 978.326156533 158.354749077 966.23566627 146.264903778 c 0
 954.145629763 134.174222297 938.30767176 128.139160156 922.484375 128.139160156 c 0
 906.66107824 128.139160156 890.823200732 134.174141799 878.733164224 146.26482328 c 2
 827.806640625 197.193296393 l 1
 827.806640625 -153.125 l 2
 827.806640625 -187.287920521 800.093251586 -215 765.931640625 -215 c 0
 731.768997165 -215 704.056640625 -187.287643458 704.056640625 -153.125 c 2
 704.056640625 197.173441962 l 1
 653.147897169 146.264048763 l 2
 641.056861138 134.174302579 625.219172165 128.139160156 609.395874023 128.139160156 c 0
EndSplineSet
EndChar

StartChar: uniF006
Encoding: 61446 61446 4
Width: 1000
Flags: H
LayerCount: 2
Fore
SplineSet
797.5 565 m 1
 797.5 711.20904375 l 1
 1021.20904375 487.5 l 1
 797.5 263.79095625 l 1
 797.5 410 l 1
 422.5 410 l 1
 422.5 565 l 1
 797.5 565 l 1
265 690 m 1
 265 597.5 l 1
 172.5 597.5 l 1
 172.5 690 l 1
 265 690 l 1
672.5 377.5 m 1
 765 377.5 l 1
 765 -12.5 l 2
 765 -55.1740504217 730.174050422 -90 687.5 -90 c 2
 390 -90 l 1
 390 -236.20904375 l 1
 281.25 -127.45904375 l 1
 172.5 -236.20904375 l 1
 172.5 -90 l 1
 62.5 -90 l 2
 19.8259495783 -90 -15 -55.1740504217 -15 -12.5 c 2
 -15 737.5 l 2
 -15 780.174050422 19.8259495783 815 62.5 815 c 2
 687.5 815 l 2
 730.174050422 815 765 780.174050422 765 737.5 c 2
 765 597.5 l 1
 672.5 597.5 l 1
 672.5 722.5 l 1
 140 722.5 l 1
 140 190 l 1
 672.5 190 l 1
 672.5 377.5 l 1
672.5 2.5 m 1
 672.5 97.5 l 1
 77.5 97.5 l 1
 77.5 2.5 l 1
 172.5 2.5 l 1
 172.5 23.3333333333 172.5 44.1666666667 172.5 65 c 1
 390 65 l 1
 390 44.1666666667 390 23.3333333333 390 2.5 c 1
 672.5 2.5 l 1
265 440 m 1
 265 347.5 l 1
 172.5 347.5 l 1
 172.5 440 l 1
 265 440 l 1
265 565 m 1
 265 472.5 l 1
 172.5 472.5 l 1
 172.5 565 l 1
 265 565 l 1
172.5 222.5 m 1
 172.5 315 l 1
 265 315 l 1
 265 222.5 l 1
 172.5 222.5 l 1
EndSplineSet
EndChar

StartChar: uniF02D
Encoding: 61485 61485 5
Width: 1000
Flags: H
LayerCount: 2
Fore
SplineSet
499.999994147 683.660766606 m 0
 499.616126359 683.660766606 499.618341239 683.6454082 499.458386 683.346092589 c 2
 119.355396867 -27.8109995405 l 2
 119.261790704 -27.9862009656 119.244181116 -28.0562809044 119.250588421 -28.1097434165 c 0
 119.250588421 -28.475156765 119.538047485 -28.75 119.896484375 -28.75 c 2
 880.099609375 -28.75 l 2
 880.46437299 -28.75 880.747512901 -28.475754794 880.747512901 -28.1109551405 c 0
 880.747512901 -28.1032938146 880.747512901 -28.0073053719 880.640994616 -27.8079014963 c 2
 500.542044969 683.346262761 l 2
 500.381999253 683.645671445 500.383911621 683.660766606 499.999994147 683.660766606 c 0
500 807.410888672 m 0
 542.964309391 807.410888672 586.314461633 785.400531092 609.699174545 741.647861819 c 2
 989.800508779 30.4871560694 l 2
 999.923984453 11.5478436026 1004.62819873 -8.46744443545 1004.62819873 -28.0265528885 c 0
 1004.62819873 -93.1171936221 952.427068384 -152.5 880.099609375 -152.5 c 2
 119.896484375 -152.5 l 2
 47.5694043381 -152.5 -4.6294959028 -93.1167157157 -4.6294959028 -28.0264552506 c 0
 -4.6294959028 -8.46748821467 0.0744015765526 11.547528228 10.1973249034 30.4867572077 c 2
 390.300797404 741.647809335 l 2
 413.685510316 785.400478608 457.035690609 807.410888672 500 807.410888672 c 0
577.5 112.5 m 0
 577.5 69.7067735764 542.793226424 35 500 35 c 0
 457.207792093 35 422.5 69.7065657764 422.5 112.5 c 0
 422.5 155.293434224 457.207792093 190 500 190 c 0
 542.793226424 190 577.5 155.293226424 577.5 112.5 c 0
561.875 440.625 m 2
 561.875 284.375 l 2
 561.875 250.212356541 534.162643459 222.5 500 222.5 c 0
 465.837356541 222.5 438.125 250.212356541 438.125 284.375 c 2
 438.125 440.625 l 2
 438.125 474.787643459 465.837356541 502.5 500 502.5 c 0
 534.162643459 502.5 561.875 474.787643459 561.875 440.625 c 2
EndSplineSet
EndChar

StartChar: uniF007
Encoding: 61447 61447 6
Width: 1000
Flags: H
LayerCount: 2
Fore
SplineSet
-15 690.625 m 2
 -15 724.787366392 12.7113240413 752.5 46.875 752.5 c 2
 312.678710938 752.5 l 2
 387.439248241 752.5 454.532963108 719.593941593 500.246000323 667.46223585 c 1
 545.956256361 719.591564065 613.047655886 752.5 687.8125 752.5 c 2
 953.125 752.5 l 2
 987.287643459 752.5 1015 724.787643459 1015 690.625 c 2
 1015 34.375 l 2
 1015 0.212356540696 987.287643459 -27.5 953.125 -27.5 c 2
 671.412109375 -27.5 l 2
 638.122658349 -27.5 606.111561465 -40.7661117296 582.582768765 -64.2922906031 c 2
 543.750314707 -103.122791535 l 2
 531.660469408 -115.213281798 515.823015161 -121.248535156 500 -121.248535156 c 0
 484.176984839 -121.248535156 468.340084347 -115.213835554 456.250239048 -103.123345291 c 2
 417.417556097 -64.2926154391 l 2
 393.888816354 -40.7664895167 361.877593899 -27.5 328.584960938 -27.5 c 2
 46.875 -27.5 l 2
 12.7113240415 -27.5 -15 0.212633607616 -15 34.375 c 2
 -15 690.625 l 2
891.25 628.75 m 1
 687.8125 628.75 l 2
 618.422261666 628.75 562.1875 572.515238334 562.1875 503.125 c 2
 561.96525191 70.9511125448 l 1
 595.725549872 87.4449798321 633.082218247 96.25 671.412109375 96.25 c 2
 891.25 96.25 l 1
 891.25 628.75 l 1
312.678710938 628.75 m 2
 108.75 628.75 l 1
 108.75 96.25 l 1
 328.584960938 96.25 l 2
 366.984710974 96.25 404.410817749 87.4156189832 438.221060348 70.8600414731 c 1
 438.437504213 362.46740682 l 1
 438.30274138 503.244150842 l 2
 438.237302311 572.588624519 382.021840856 628.75 312.678710938 628.75 c 2
EndSplineSet
EndChar

StartChar: uniF008
Encoding: 61448 61448 7
Width: 1000
Flags: H
LayerCount: 2
Fore
SplineSet
949.229025028 554.60139973 m 0
 949.229025028 515.473531525 941.620948289 486.027682248 935.984060883 469.559566548 c 1
 985.285084331 413.581609552 1015 342.099804094 1015 256.875 c 0
 1015 74.1466452111 947.291618054 -34.3463776291 834.206951126 -92.3639243343 c 0
 744.581076938 -138.346049789 628.925289963 -152.5 498.75 -152.5 c 0
 368.577933116 -152.5 253.39779514 -138.350007468 164.300971771 -92.3461155067 c 0
 51.8700057649 -34.2939670938 -15 74.2153831994 -15 256.875 c 0
 -15 342.099804121 14.7149156887 413.581609598 64.0159391169 469.559566643 c 1
 58.3790517158 486.02768237 50.7709750192 515.473531592 50.7709749716 554.60139973 c 0
 50.7709749716 589.329387257 56.8032232456 631.543089078 75.4195865435 678.63153742 c 2
 78.0240577195 685.219317453 l 1
 84.7555729449 687.399046185 l 2
 86.1967114641 687.865700561 93.4238208088 689.950579667 106.744853597 689.950579667 c 0
 138.345580345 689.950579667 203.159603095 678.313936966 307.10559713 608.159405094 c 1
 369.870539868 624.628447854 435.708433429 626.874999314 500 626.875 c 0
 564.300025871 626.875 630.146786167 624.627857278 692.919178964 608.152904091 c 1
 797.590190668 678.376860393 862.546472412 689.838210783 893.837708205 689.838211037 c 0
 906.716867986 689.838211037 913.712770617 687.881006466 915.121925251 687.438129297 c 2
 921.946737525 685.293188304 l 1
 924.580413456 678.63153742 l 2
 943.196776754 631.543089078 949.229025028 589.329387257 949.229025028 554.60139973 c 0
500 -61.25 m 0
 591.479693681 -61.25 674.362441377 -58.9977146488 736.386099922 -40.217330111 c 0
 770.848557566 -29.7823086713 798.458019268 -14.5210944721 818.60113857 7.48618719317 c 0
 843.65985195 34.8639808325 858.75 74.1656828364 858.75 133.125 c 0
 858.75 176.169484879 838.228619373 216.623085602 799.924361177 251.391566118 c 0
 771.44476032 277.234166896 732.573461491 284.864841682 682.895583427 284.864841682 c 0
 658.086246763 284.864841682 630.942617349 282.968598586 602.062016522 280.933697396 c 0
 569.977902251 278.673079527 535.744175216 276.25 500 276.25 c 0
 464.48774356 276.25 430.349429683 278.664180947 398.286970059 280.921075594 c 0
 369.31312729 282.960560756 342.029446613 284.864841682 317.09050559 284.864841682 c 0
 267.239049292 284.864841682 228.25609669 277.201499961 200.125598214 251.43711818 c 0
 162.362201249 216.623986602 141.25 175.407376434 141.25 133.125 c 0
 141.25 73.9621083127 156.348169833 34.5874089644 181.400494207 7.20779658775 c 0
 201.538021149 -14.8004479823 229.137625175 -30.0274936158 263.597392864 -40.4181035881 c 0
 325.61616741 -59.1185458869 408.506674956 -61.25 500 -61.25 c 0
343.125 251.875 m 0
 361.017720064 251.875 377.375504388 244.657514734 390.70539548 233.132713061 c 0
 417.254748613 210.178584831 433.125 170.296270867 433.125 125.625 c 0
 433.125 80.9565100654 417.272772196 40.8452038432 390.759538468 17.7013602346 c 0
 377.445126623 6.07898822843 361.072878276 -1.25 343.125 -1.25 c 0
 325.12271648 -1.25 308.744469491 6.18764139436 295.45028902 17.8754417253 c 0
 268.982168957 41.1453306136 253.125 81.3384470321 253.125 125.625 c 0
 253.125 169.914559923 269.000213366 209.87821083 295.503934959 232.95853505 c 0
 308.813683566 244.549107796 325.177863527 251.875 343.125 251.875 c 0
656.875 251.875 m 0
 674.918642121 251.875 691.371681057 244.684836526 704.733173257 233.132713061 c 0
 731.338099028 210.130537656 746.875 170.214689384 746.875 125.625 c 0
 746.875 80.9565100654 731.022772196 40.8452038432 704.509538468 17.7013602346 c 0
 691.195126623 6.07898822843 674.822878276 -1.25 656.875 -1.25 c 0
 638.927121724 -1.25 622.554873377 6.07898822843 609.240461532 17.7013602346 c 0
 582.727227804 40.8452038432 566.875 80.9565100654 566.875 125.625 c 0
 566.875 170.296270867 582.745251387 210.178584831 609.29460452 233.132713061 c 0
 622.624495612 244.657514734 638.982279936 251.875 656.875 251.875 c 0
EndSplineSet
EndChar

StartChar: uniF009
Encoding: 61449 61449 8
Width: 1000
Flags: H
LayerCount: 2
Fore
SplineSet
234.375 35 m 0
 216.762252835 35 202.5 20.7377471657 202.5 3.125 c 0
 202.5 -14.4877471657 216.762252835 -28.75 234.375 -28.75 c 0
 251.987747165 -28.75 266.25 -14.4877471657 266.25 3.125 c 0
 266.25 20.7377471657 251.987747165 35 234.375 35 c 0
765 3.125 m 0
 765 -14.4877471657 779.262252835 -28.75 796.875 -28.75 c 0
 814.487747165 -28.75 828.75 -14.4877471657 828.75 3.125 c 0
 828.75 20.7377471657 814.487747165 35 796.875 35 c 0
 779.262252835 35 765 20.7377471657 765 3.125 c 0
687.5 658.75 m 2
 782.068782895 658.75 858.75 582.068782895 858.75 487.5 c 2
 858.75 145.963636247 l 1
 913.915217967 122.030270682 952.5 67.0755942716 952.5 3.125 c 0
 952.5 -82.8121312311 882.812131231 -152.5 796.875 -152.5 c 0
 710.937868769 -152.5 641.25 -82.8121312311 641.25 3.125 c 0
 641.25 67.0755942716 679.834782033 122.030270682 735 145.963636247 c 1
 735 487.5 l 2
 735 513.742948343 713.743675152 535 687.5 535 c 2
 639.997070312 535 l 1
 639.997070312 447.098632812 l 2
 639.997070312 428.663068598 624.715167481 416.442175498 609.260083731 416.442175498 c 0
 601.652440427 416.442175498 593.778119019 419.387461699 587.719731711 425.445247977 c 2
 437.941376563 575.222626563 l 2
 431.953261446 581.21074168 428.969726563 589.050529159 428.969726563 596.875488281 c 0
 428.969726563 604.700447404 431.95322661 612.540200046 437.941341727 618.528315164 c 2
 587.720226965 768.308176939 l 2
 593.778614273 774.365963217 601.652440426 777.310754189 609.26008373 777.310754189 c 0
 624.715167481 777.310754189 639.997070312 765.08986109 639.997070312 746.654296875 c 2
 639.997070312 658.75 l 1
 687.5 658.75 l 2
78.75 596.875 m 0
 78.75 682.81483979 148.43516021 752.5 234.375 752.5 c 0
 320.31483979 752.5 390 682.81483979 390 596.875 c 0
 390 532.927263143 351.414779568 477.97023885 296.25 454.03809115 c 1
 296.25 145.963573195 l 1
 351.414339231 122.030212641 390 67.0757019959 390 3.125 c 0
 390 -82.8118541654 320.315116854 -152.5 234.375 -152.5 c 0
 148.434883146 -152.5 78.75 -82.8118541654 78.75 3.125 c 0
 78.75 67.0757019959 117.335660769 122.030212641 172.5 145.963573195 c 1
 172.5 454.03809115 l 1
 117.335220432 477.97023885 78.75 532.927263143 78.75 596.875 c 0
234.375 628.75 m 0
 216.762252835 628.75 202.5 614.487747165 202.5 596.875 c 0
 202.5 579.262252835 216.762252835 565 234.375 565 c 0
 251.987747165 565 266.25 579.262252835 266.25 596.875 c 0
 266.25 614.487747165 251.987747165 628.75 234.375 628.75 c 0
EndSplineSet
EndChar

StartChar: uniF00A
Encoding: 61450 61450 9
Width: 1000
Flags: H
LayerCount: 2
Fore
SplineSet
391.25 -150.625 m 0
 391.25 -173.5448162 373.659762098 -190.149762855 350.269774745 -190.149762855 c 0
 346.221188132 -190.149762855 340.853338233 -189.848880618 337.13408171 -188.609128444 c 0
 132.440591776 -120.377965132 -15 72.1338202123 -15 300 c 0
 -15 584.522515728 215.477484272 815 500 815 c 0
 784.522515728 815 1015 584.522515728 1015 300 c 0
 1015 72.15412768 867.151720457 -120.502210399 663.251076154 -188.899261969 c 0
 658.994536713 -189.750569857 654.486850268 -190.33015226 650.352735227 -190.33015226 c 0
 627.109051565 -190.33015226 610 -173.348025039 610 -150.625 c 0
 610 -107.499158205 610.625 -72.3904460148 610.625 -13.125 c 0
 610.625 30.4447101633 596.157651261 55.8822004125 582.088849566 68.0104777356 c 2
 556.062813937 90.4467153474 l 1
 590.184638262 94.2806281929 l 2
 638.581219678 99.7184463296 686.627827977 110.987291135 724.353429553 136.702680239 c 0
 770.900400357 168.431093196 805 223.170303613 805 326.25 c 0
 805 377.545337632 787.226666534 418.063730016 757.658379656 450.530868549 c 2
 751.332580027 457.476844613 l 1
 754.816695647 466.187133664 l 2
 757.263329957 472.303719439 763.84694361 490.893229989 763.84694361 517.901715379 c 0
 763.84694361 535.155617155 761.180182284 555.932250604 752.914179045 579.337393573 c 0
 752.725146039 579.337393573 752.531928787 579.340303141 752.334511283 579.340303141 c 0
 737.95237009 579.340303141 700.152989434 573.973805534 634.667592997 529.460856321 c 2
 628.904457981 525.543431213 l 1
 622.185650792 527.433095734 l 2
 583.583430244 538.289970264 542.403819635 543.75 501.25 543.75 c 0
 460.096180365 543.75 418.916569756 538.289970264 380.314349208 527.433095734 c 2
 373.634816079 525.554477042 l 1
 367.888279812 529.423060281 l 2
 301.670247337 574.001212862 263.701067295 579.226189061 249.546582687 579.226184124 c 1
 241.311377751 555.866434019 238.653058582 535.128284426 238.65305639 517.901715379 c 0
 238.65305639 490.893229989 245.236670043 472.303719439 247.683304353 466.187133664 c 2
 251.167419973 457.476844613 l 1
 244.841620344 450.530868549 l 2
 215.318014486 418.112791529 197.5 376.904485975 197.5 326.25 c 0
 197.5 223.506646343 231.425686708 168.706984073 277.8186928 136.883488893 c 0
 315.412217512 111.0960383 363.320810704 99.715409208 411.690361738 94.2806281929 c 2
 445.613684053 90.469018944 l 1
 419.835065748 68.0528291135 l 2
 408.624591988 58.3045910612 396.958558463 39.9615355847 392.990351278 10.4834250738 c 2
 391.887620602 2.29171147514 l 1
 374.291249499 -5.7414144632 352.639335374 -15.599735367 321.20194092 -15.599735367 c 0
 287.070088669 -15.599735367 247.629478933 -0.899502416794 219.689275582 45.9457553716 c 0
 215.153372965 53.1738495194 205.157894866 66.6816352107 192.128599099 76.5776008992 c 0
 181.588458764 84.5830102936 169.56465276 90.0078472051 156.613576645 90.0078472051 c 0
 156.367729293 90.0078472051 156.106911949 90.0018003256 155.859263224 90.0018003256 c 1
 158.365518826 88.1036480389 161.040665284 86.3816627432 163.551389731 84.9786108467 c 0
 187.270816944 71.7236368159 212.808860278 28.8535351944 221.559635324 6.49044341007 c 0
 224.794332374 -2.60714204497 230.338344298 -14.0074389798 241.425864732 -24.1306414419 c 0
 255.036353539 -36.5573814538 277.992223747 -48.1323018476 319.404926245 -48.1323018476 c 0
 334.626129888 -48.1323018476 352.355565367 -46.5291818836 372.896558993 -42.7480039525 c 2
 390.625 -39.4845595881 l 1
 390.625 -57.5 l 2
 390.625 -94.4840757347 391.25 -121.564870024 391.25 -150.625 c 0
243.222563175 578.804441816 m 1
 242.978886276 578.746481046 242.892919944 578.70635062 242.892919944 578.70635062 c 1
 243.222563175 578.804441816 l 1
EndSplineSet
EndChar

StartChar: uniF00B
Encoding: 61451 61451 10
Width: 1000
Flags: H
LayerCount: 2
Fore
SplineSet
203.750244141 393.75 m 0
 203.750244141 409.572788605 209.785055035 425.41011441 221.874970313 437.500029687 c 0
 233.96488559 449.589944965 249.802211395 455.624755859 265.625 455.624755859 c 0
 281.447788605 455.624755859 297.28511441 449.589944965 309.375029687 437.500029687 c 2
 438.125 308.750059375 l 1
 438.125 690.625 l 2
 438.125 724.787643459 465.837356541 752.5 500 752.5 c 0
 534.162643459 752.5 561.875 724.787643459 561.875 690.625 c 2
 561.875 308.749735393 l 1
 690.626923437 437.500029687 l 2
 702.716456276 449.589562526 718.552774575 455.624755859 734.375 455.624755859 c 0
 750.197225425 455.624755859 766.033258696 449.589847546 778.122791535 437.500314707 c 0
 790.213281798 425.410469408 796.248535156 409.573015161 796.248535156 393.75 c 0
 796.248535156 377.926984839 790.213566826 362.089815612 778.123076563 349.999970313 c 2
 543.750314707 115.627208465 l 2
 531.660469408 103.536718202 515.823015161 97.501464844 500 97.501464844 c 0
 484.176984839 97.501464844 468.339860137 103.53638865 456.250014838 115.626878913 c 2
 221.874970313 349.999970313 l 2
 209.785055035 362.08988559 203.750244141 377.927211395 203.750244141 393.75 c 0
234.375 2.494140625 m 2
 765.625 2.494140625 l 2
 799.787920521 2.494140625 827.5 -25.2192484137 827.5 -59.380859375 c 0
 827.5 -93.5435028343 799.787643459 -121.255859375 765.625 -121.255859375 c 2
 234.375 -121.255859375 l 2
 200.212356541 -121.255859375 172.5 -93.5435028343 172.5 -59.380859375 c 0
 172.5 -25.2192484137 200.212079479 2.494140625 234.375 2.494140625 c 2
EndSplineSet
EndChar

StartChar: uniF00C
Encoding: 61452 61452 11
Width: 1000
Flags: H
LayerCount: 2
Fore
SplineSet
796.248535156 456.25 m 0
 796.248535156 440.426984839 790.213566826 424.589815612 778.123076563 412.499970313 c 0
 766.033543724 400.410437474 750.197225425 394.375244141 734.375 394.375244141 c 0
 718.552774575 394.375244141 702.716523883 400.410369868 690.626991043 412.499902707 c 2
 561.875 541.250264607 l 1
 561.875 159.375 l 2
 561.875 125.212356541 534.162643459 97.5 500 97.5 c 0
 465.837356541 97.5 438.125 125.212356541 438.125 159.375 c 2
 438.125 541.249940625 l 1
 309.375029687 412.499970313 l 2
 297.28511441 400.410055035 281.447788605 394.375244141 265.625 394.375244141 c 0
 249.802211395 394.375244141 233.96488559 400.410055035 221.874970313 412.499970313 c 0
 209.785055035 424.58988559 203.750244141 440.427211395 203.750244141 456.25 c 0
 203.750244141 472.072788605 209.785055035 487.91011441 221.874970313 500.000029687 c 2
 456.249970313 734.375029687 l 2
 468.33988559 746.464944965 484.177211395 752.499755859 500 752.499755859 c 0
 515.822788605 752.499755859 531.660158934 746.46490044 543.750074211 734.374985162 c 2
 778.122791535 500.000314707 l 2
 790.213281798 487.910469408 796.248535156 472.073015161 796.248535156 456.25 c 0
234.375 2.5 m 2
 765.625 2.5 l 2
 799.787643459 2.5 827.5 -25.2123565407 827.5 -59.375 c 0
 827.5 -93.5376434593 799.787643459 -121.25 765.625 -121.25 c 2
 234.375 -121.25 l 2
 200.212356541 -121.25 172.5 -93.5376434593 172.5 -59.375 c 0
 172.5 -25.2123565407 200.212356541 2.5 234.375 2.5 c 2
EndSplineSet
EndChar

StartChar: uniF010
Encoding: 61456 61456 12
Width: 1000
Flags: H
LayerCount: 2
Fore
SplineSet
235 690.625 m 2
 235 759.306040198 290.693959802 815 359.375 815 c 2
 708.487304688 815 l 2
 741.496981081 815 773.073599091 801.924371789 796.429745834 778.569336978 c 2
 978.5674125 596.43069375 l 2
 1001.92248556 573.075620691 1015 541.498462345 1015 508.487304688 c 2
 1015 -28.125 l 2
 1015 -96.8060401979 959.306040198 -152.5 890.625 -152.5 c 2
 328.125 -152.5 l 2
 293.962356541 -152.5 266.25 -124.787643459 266.25 -90.625 c 0
 266.25 -56.4623565407 293.962356541 -28.75 328.125 -28.75 c 2
 890.625 -28.75 l 2
 890.982016871 -28.75 891.25 -28.4820168713 891.25 -28.125 c 2
 891.25 410 l 1
 734.375 410 l 2
 665.693959802 410 610 465.693959802 610 534.375 c 2
 610 691.25 l 1
 359.375 691.25 l 2
 359.021263025 691.25 358.75 690.978736975 358.75 690.625 c 2
 358.75 534.375 l 2
 358.75 500.212356541 331.037643459 472.5 296.875 472.5 c 0
 262.712356541 472.5 235 500.212356541 235 534.375 c 2
 235 690.625 l 2
733.75 534.375 m 2
 733.75 534.019600573 734.019645524 533.75 734.375 533.75 c 2
 866.251604738 533.75 l 1
 733.75 666.251848158 l 1
 733.75 534.375 l 2
390.625 408.749755859 m 0
 406.447788605 408.749755859 422.28511441 402.714944965 434.375029687 390.625029687 c 2
 559.375029687 265.625029687 l 2
 571.464944965 253.53511441 577.499755859 237.697788605 577.499755859 221.875 c 0
 577.499755859 206.052211395 571.464861481 190.214802107 559.374946203 178.12488683 c 2
 434.375314707 53.1272084654 l 2
 422.285469408 41.036718202 406.448015161 35.0014648438 390.625 35.0014648438 c 0
 374.801984839 35.0014648438 358.964815613 41.0364331738 346.874970313 53.1269234373 c 0
 334.785437474 65.2164562763 328.750244141 81.0527745756 328.750244141 96.8750000001 c 0
 328.750244141 112.697225425 334.785323868 128.533430117 346.874856707 140.622962956 c 2
 428.125053367 221.874887259 l 1
 346.874970313 303.124970313 l 2
 334.785055035 315.21488559 328.750244141 331.052211395 328.750244141 346.875 c 0
 328.750244141 362.697788605 334.785055035 378.53511441 346.874970313 390.625029687 c 0
 358.96488559 402.714944965 374.802211395 408.749755859 390.625 408.749755859 c 0
233.749755859 96.8750000001 m 0
 233.749755859 81.0527745756 227.714847547 65.2167413044 215.625314707 53.1272084654 c 0
 203.535469408 41.036718202 187.698015161 35.0014648438 171.875 35.0014648438 c 0
 156.051984839 35.0014648438 140.214899096 41.0363496906 128.125053797 53.1268399541 c 2
 3.12497031268 178.124970313 l 2
 -8.96494496496 190.21488559 -14.9997558594 206.052211395 -14.9997558594 221.875 c 0
 -14.9997558594 237.697788605 -8.96494496511 253.53511441 3.12497031253 265.625029687 c 2
 128.124970313 390.625029687 l 2
 140.21488559 402.714944965 156.052211395 408.749755859 171.875 408.749755859 c 0
 187.697788605 408.749755859 203.53511441 402.714944965 215.625029687 390.625029687 c 0
 227.714944965 378.53511441 233.749755859 362.697788605 233.749755859 346.875 c 0
 233.749755859 331.052211395 227.714944965 315.21488559 215.625029687 303.124970313 c 2
 134.374946633 221.874887258 l 1
 215.625029687 140.623076563 l 2
 227.714562526 128.533543724 233.749755859 112.697225425 233.749755859 96.8750000001 c 0
EndSplineSet
EndChar

StartChar: uniF011
Encoding: 61457 61457 13
Width: 1000
Flags: H
LayerCount: 2
Fore
SplineSet
765.625 -28.75 m 2
 765.974487069 -28.75 766.25 -28.4742796453 766.25 -28.125 c 2
 766.25 410 l 1
 609.375 410 l 2
 576.364632015 410 544.786286637 423.074982113 521.430634375 446.430634375 c 0
 498.074982113 469.786286637 485 501.364632015 485 534.375 c 2
 485 691.25 l 1
 234.375 691.25 l 2
 234.034061715 691.25 233.75 690.967200396 233.75 690.625 c 2
 233.75 -28.125 l 2
 233.75 -28.4721771959 234.027822804 -28.75 234.375 -28.75 c 2
 765.625 -28.75 l 2
608.75 534.375 m 2
 608.75 534.027822804 609.027822804 533.75 609.375 533.75 c 2
 710.04095625 533.75 l 1
 608.75 635.04095625 l 1
 608.75 534.375 l 2
110 690.625 m 2
 110 759.277822804 165.722177196 815 234.375 815 c 2
 552.25 815 l 2
 585.245240576 815 616.81425807 801.96598313 640.167021875 778.542021875 c 2
 853.525744929 565.183274065 l 2
 876.949706185 541.83051026 890 510.245240576 890 477.25 c 2
 890 -28.125 l 2
 890 -61.1344585879 876.921883475 -92.7118296005 853.567158127 -116.067666867 c 0
 830.21132086 -139.422392216 798.634458588 -152.5 765.625 -152.5 c 2
 234.375 -152.5 l 2
 201.363911861 -152.5 169.785599286 -139.422377405 146.430380008 -116.067158127 c 0
 123.07522168 -92.7108878603 110 -61.133738418 110 -28.125 c 2
 110 690.625 l 2
EndSplineSet
EndChar

StartChar: uniF012
Encoding: 61458 61458 14
Width: 1000
Flags: H
LayerCount: 2
Fore
SplineSet
109.375 628.75 m 2
 109.021263025 628.75 108.75 628.478736975 108.75 628.125 c 2
 108.75 -28.125 l 2
 108.75 -28.4803544755 109.019600573 -28.75 109.375 -28.75 c 2
 161.870077769 -28.75 l 1
 539.210894076 348.591812826 l 2
 563.446256505 372.827175255 595.280790111 385.022345741 627.170533566 385.022345741 c 0
 656.987366956 385.022345741 686.846470448 374.364136008 710.594716595 352.877704249 c 2
 891.25 189.426909998 l 1
 891.25 628.125 l 2
 891.25 628.480399427 890.980354476 628.75 890.625 628.75 c 2
 109.375 628.75 l 2
891.25 -28.125 m 2
 891.25 22.5529166384 l 1
 627.58013326 261.108583011 l 2
 627.464803038 261.212932877 627.306070509 261.272355449 627.156244771 261.272355449 c 0
 626.986183019 261.272355449 626.818587467 261.200345943 626.709104312 261.090880948 c 2
 336.869120727 -28.75 l 1
 890.625 -28.75 l 2
 890.982016871 -28.75 891.25 -28.4820168713 891.25 -28.125 c 2
1015 -28.125 m 2
 1015 -96.8060401979 959.306040198 -152.5 890.625 -152.5 c 2
 109.375 -152.5 l 2
 40.6939598021 -152.5 -15 -96.8060401979 -15 -28.125 c 2
 -15 628.125 l 2
 -15 696.806040198 40.6939598021 752.5 109.375 752.5 c 2
 890.625 752.5 l 2
 959.306040198 752.5 1015 696.806040198 1015 628.125 c 2
 1015 -28.125 l 2
328.75 425 m 0
 328.75 433.983951479 321.483951479 441.25 312.5 441.25 c 0
 303.516048521 441.25 296.25 433.983951479 296.25 425 c 0
 296.25 416.016048521 303.516048521 408.75 312.5 408.75 c 0
 321.483951479 408.75 328.75 416.016048521 328.75 425 c 0
452.5 425 m 0
 452.5 347.690006167 389.809993833 285 312.5 285 c 0
 235.190006167 285 172.5 347.690006167 172.5 425 c 0
 172.5 502.309993833 235.190006167 565 312.5 565 c 0
 389.809993833 565 452.5 502.309993833 452.5 425 c 0
EndSplineSet
EndChar

StartChar: uniF013
Encoding: 61459 61459 15
Width: 1000
Flags: H
LayerCount: 2
Fore
SplineSet
485 -91.25 m 1
 485 34.375 l 2
 485 34.7303544755 484.730399427 35 484.375 35 c 2
 453.125 35 l 2
 452.769600573 35 452.5 34.7303544755 452.5 34.375 c 2
 452.5 -91.25 l 1
 485 -91.25 l 1
453.125 158.75 m 2
 484.375 158.75 l 2
 487.634745514 158.75 490.865235685 158.624541017 494.061904487 158.378189077 c 1
 488.313684182 167.769739142 485.000000001 178.811725469 485 190.625 c 0
 485 224.787643459 512.712356541 252.5 546.875 252.5 c 2
 578.125 252.5 l 2
 612.287643459 252.5 640 224.787643459 640 190.625 c 0
 640 156.462356541 612.287643459 128.75 578.125 128.75 c 2
 565.380159713 128.75 l 1
 591.930905383 105.938615103 608.75 72.1178005816 608.75 34.375 c 2
 608.75 -153.125 l 2
 608.75 -187.287643459 581.037643459 -215 546.875 -215 c 2
 390.625 -215 l 2
 356.462356541 -215 328.75 -187.287643459 328.75 -153.125 c 2
 328.75 34.375 l 2
 328.75 103.056040198 384.443959802 158.75 453.125 158.75 c 2
421.875 346.25 m 2
 453.125 346.25 l 2
 487.287643459 346.25 515 318.537643459 515 284.375 c 0
 515 250.212356541 487.287643459 222.5 453.125 222.5 c 2
 421.875 222.5 l 2
 387.712356541 222.5 360 250.212356541 360 284.375 c 0
 360 318.537643459 387.712356541 346.25 421.875 346.25 c 2
485 378.125 m 0
 485 412.287643459 512.712356541 440 546.875 440 c 2
 578.125 440 l 2
 612.287643459 440 640 412.287643459 640 378.125 c 0
 640 343.962356541 612.287643459 316.25 578.125 316.25 c 2
 546.875 316.25 l 2
 512.712356541 316.25 485 343.962356541 485 378.125 c 0
360 471.875 m 0
 360 506.037643459 387.712356541 533.75 421.875 533.75 c 2
 453.125 533.75 l 2
 487.287643459 533.75 515 506.037643459 515 471.875 c 0
 515 437.712356541 487.287643459 410 453.125 410 c 2
 421.875 410 l 2
 387.712356541 410 360 437.712356541 360 471.875 c 0
546.875 627.5 m 2
 578.125 627.5 l 2
 612.287643459 627.5 640 599.787643459 640 565.625 c 0
 640 531.462356541 612.287643459 503.75 578.125 503.75 c 2
 546.875 503.75 l 2
 512.712356541 503.75 485 531.462356541 485 565.625 c 0
 485 599.787643459 512.712356541 627.5 546.875 627.5 c 2
233.75 690.625 m 2
 233.75 -28.125 l 2
 233.75 -28.407514211 233.835636413 -28.5460808567 234.091442985 -28.6938419876 c 0
 253.951208731 -40.1819899166 265.007751123 -60.9815198591 265.007751123 -82.3072348473 c 0
 265.007751123 -92.8613222497 262.313899762 -103.515323398 256.693427821 -113.232803511 c 0
 245.205011443 -133.090436885 224.406016229 -144.145117545 203.081946854 -144.145117545 c 0
 192.52818093 -144.145117545 181.876206907 -141.45243011 172.15923745 -135.83194222 c 0
 135.104453277 -114.399697708 110 -74.2233487513 110 -28.125 c 2
 110 690.625 l 2
 110 759.306040198 165.693959802 815 234.375 815 c 2
 583.487304688 815 l 2
 616.496981081 815 648.073599091 801.924371789 671.429745834 778.569336978 c 2
 853.5674125 596.43069375 l 2
 876.922485559 573.075620691 890 541.498462345 890 508.487304688 c 2
 890 -28.125 l 2
 890 -96.8060401979 834.306040198 -152.5 765.625 -152.5 c 2
 734.375 -152.5 l 2
 700.212356541 -152.5 672.5 -124.787643459 672.5 -90.625 c 0
 672.5 -56.4623565407 700.212356541 -28.75 734.375 -28.75 c 2
 765.625 -28.75 l 2
 765.982016871 -28.75 766.25 -28.4820168713 766.25 -28.125 c 2
 766.25 508.487304688 l 2
 766.25 508.635044119 766.150535345 508.85043529 766.07031146 508.930605728 c 2
 583.930634375 691.06930625 l 2
 583.845106874 691.154833751 583.627577847 691.25 583.487304688 691.25 c 2
 506.163875022 691.25 l 1
 511.77299901 681.939363948 515 671.032737951 515 659.375 c 0
 515 625.212356541 487.287643459 597.5 453.125 597.5 c 2
 421.875 597.5 l 2
 387.712356541 597.5 360 625.212356541 360 659.375 c 0
 360 671.032770042 363.226978299 681.939384934 368.836056515 691.25 c 1
 234.375 691.25 l 2
 234.021263025 691.25 233.75 690.978736975 233.75 690.625 c 2
EndSplineSet
EndChar

StartChar: uniF015
Encoding: 61461 61461 16
Width: 1000
Flags: H
LayerCount: 2
Fore
SplineSet
375 502.5 m 0
 395.578911403 502.5 415.234189645 494.362312505 429.799302955 479.798412653 c 0
 444.363202807 465.233299342 452.5 445.578911403 452.5 425 c 0
 452.5 404.421088597 444.362312505 384.765810355 429.798412653 370.200697045 c 0
 415.233299342 355.636797193 395.578911403 347.5 375 347.5 c 0
 354.421088597 347.5 334.765810355 355.637687495 320.200697045 370.201587347 c 0
 305.636797193 384.766700658 297.5 404.421088597 297.5 425 c 0
 297.5 445.578911403 305.637687495 465.234189645 320.201587347 479.799302955 c 0
 334.766700658 494.363202807 354.421088597 502.5 375 502.5 c 0
171.875 752.5 m 2
 485.9375 752.5 l 2
 518.928282065 752.5 550.554920623 739.475349045 573.917021875 716.042021875 c 2
 964.546093056 325.412949142 l 2
 987.881812274 302.059438468 1000.94335938 270.494519873 1000.94335938 237.5 c 0
 1000.94335938 204.505480127 987.877741093 172.936488799 964.542021875 149.582978125 c 2
 650.412949142 -164.546093056 l 2
 627.059438468 -187.881812274 595.494519873 -200.943359375 562.5 -200.943359375 c 0
 529.505480127 -200.943359375 497.936488799 -187.877741093 474.582978125 -164.542021875 c 2
 83.9620864807 226.078871348 l 2
 63.6813054774 246.344066737 47.4999997474 276.407541325 47.4999997474 314.055066652 c 2
 47.4999997474 628.125 l 2
 47.4999997474 696.777822804 103.222177196 752.5 171.875 752.5 c 2
171.875 628.750028241 m 2
 171.534076496 628.750028241 171.25 628.467190609 171.25 628.125 c 2
 171.25 314.0625 l 2
 171.25 313.885213887 171.339550473 313.682221311 171.431384535 313.590139884 c 2
 562.042021875 -77.020478125 l 2
 562.137406908 -77.1161841038 562.30399307 -77.212890625 562.5 -77.212890625 c 0
 562.680374233 -77.212890625 562.851892691 -77.1268903144 562.940045904 -77.0384404893 c 2
 877.020478125 237.042021875 l 2
 877.116184104 237.137406909 877.212890625 237.30399307 877.212890625 237.5 c 0
 877.212890625 237.680374231 877.126890316 237.85189269 877.038440491 237.940045902 c 2
 486.395478125 628.582978125 l 2
 486.319605672 628.658646757 486.101617212 628.750028241 485.96718109 628.750028241 c 2
 171.875 628.750028241 l 2
EndSplineSet
EndChar

StartChar: uniF016
Encoding: 61462 61462 17
Width: 1000
Flags: H
LayerCount: 2
Fore
SplineSet
109.375 752.5 m 2
 328.125 752.5 l 2
 367.239787069 752.5 404.135805582 734.065836088 427.632131564 702.737401446 c 2
 483.87994695 627.740313532 l 2
 483.968809845 627.621889271 484.192973195 627.5 484.375 627.5 c 2
 890.625 627.5 l 2
 923.633738418 627.5 955.211142233 614.424523953 978.5674125 591.069365625 c 0
 1001.92263178 567.714146347 1015 536.136088139 1015 503.125 c 2
 1015 -28.125 l 2
 1015 -61.1344585879 1001.92188348 -92.7118296005 978.567158127 -116.067666867 c 0
 955.21132086 -139.422392216 923.634458588 -152.5 890.625 -152.5 c 2
 109.375 -152.5 l 2
 40.7221771959 -152.5 -15 -96.7778228041 -15 -28.125 c 2
 -15 628.125 l 2
 -15 661.135367985 -1.92501788667 692.713713363 21.430634375 716.069365625 c 0
 44.7862866367 739.425017887 76.3646320155 752.5 109.375 752.5 c 2
EndSplineSet
EndChar

StartChar: uniF017
Encoding: 61463 61463 18
Width: 1000
Flags: H
LayerCount: 2
Fore
SplineSet
-15 628.125 m 2
 -15 696.806040198 40.6939598021 752.5 109.375 752.5 c 2
 312.5 752.5 l 2
 351.657120557 752.5 388.485441768 734.098913153 412.007131564 702.737401446 c 2
 468.258208985 627.735964705 l 2
 468.341630105 627.624708932 468.561498316 627.5 468.75 627.5 c 2
 890.625 627.5 l 2
 959.306040198 627.5 1015 571.806040198 1015 503.125 c 2
 1015 -28.125 l 2
 1015 -96.8060401979 959.306040198 -152.5 890.625 -152.5 c 2
 109.375 -152.5 l 2
 40.6939598021 -152.5 -15 -96.8060401979 -15 -28.125 c 2
 -15 628.125 l 2
758.911132812 221.876586914 m 0
 758.911132812 222.069292653 758.842548798 222.218060656 758.715600562 222.33597575 c 2
 578.555156853 389.626421027 l 1
 578.555156853 389.626421027 578.280043998 389.825019364 578.225296155 389.825019364 c 0
 577.652279751 389.825019364 577.5 389.561558074 577.5 389.168945312 c 2
 577.5 253.75 l 1
 296.875 253.75 l 2
 279.261975768 253.75 265 239.488667791 265 221.875 c 0
 265 204.262252835 279.262252835 190 296.875 190 c 2
 577.5 190 l 1
 577.5 54.5810546875 l 2
 577.5 54.189428376 577.650815804 53.9258461791 578.225722035 53.9258461791 c 0
 578.281386746 53.9258461791 578.557663947 54.124999972 578.557663947 54.124999972 c 1
 758.717107394 221.41932992 l 2
 758.843288143 221.536513627 758.911132812 221.683871822 758.911132812 221.876586914 c 0
EndSplineSet
EndChar

StartChar: uniF018
Encoding: 61464 61464 19
Width: 1000
Flags: H
LayerCount: 2
Fore
SplineSet
641.25 487.5 m 0
 641.25 524.937727677 626.338732768 560.922926607 599.880829687 587.380829687 c 0
 573.423118871 613.839422281 537.437974835 628.75 500 628.75 c 0
 462.562100321 628.75 426.578076903 613.839736279 400.119170313 587.380829687 c 0
 373.660577719 560.923118871 358.75 524.937974835 358.75 487.5 c 0
 358.75 450.062100321 373.660263721 414.078076903 400.119170313 387.619170313 c 0
 426.578076903 361.160263722 462.562100321 346.25 500 346.25 c 0
 537.437974835 346.25 573.422940807 361.160399652 599.880651624 387.618992247 c 0
 626.338868695 414.078091111 641.25 450.062347476 641.25 487.5 c 0
172.311082869 -88.9638030664 m 0
 138.424362608 -88.9638030664 110.42335406 -61.0627294952 110.42335406 -27.0897939351 c 0
 110.42335406 -26.5810576189 110.429592926 -26.0721117998 110.442092619 -25.5630334175 c 2
 110.442092619 -25.3876290964 l 1
 110.454743461 -25.2126204661 l 1
 113.826151558 45.4995915936 136.344537056 113.896518683 175.632790275 172.779127975 c 0
 210.809312336 225.497983965 258.245047927 268.772295215 313.704637288 298.961214429 c 1
 280.468357321 331.804733571 256.41537251 372.945030471 244.15911159 418.257948528 c 0
 238.025660363 440.934525644 234.969058947 464.190671129 234.969058947 487.45012785 c 0
 234.969058947 518.080282902 240.268158072 548.602477033 250.803702967 577.691378789 c 0
 269.33720292 628.864655609 303.217157196 673.13670879 347.814868327 704.417651899 c 0
 392.407379113 735.6946383 445.478126387 752.453125 499.96875 752.453125 c 0
 554.459398931 752.453125 607.5307966 735.694081788 652.125045694 704.417328616 c 0
 696.71960241 673.136419077 730.599373534 628.864348879 749.133829845 577.691288192 c 0
 759.669659016 548.599977599 764.969894559 518.074789776 764.969894559 487.441588075 c 0
 764.969894559 464.185134334 761.913608468 440.930234108 755.780871076 418.256296176 c 0
 743.519995981 372.946112252 719.469349174 331.807371 686.235559926 298.964308045 c 1
 741.705543954 268.782391045 789.15178187 225.510590585 824.342098388 172.792868193 c 0
 863.610328608 113.952437722 886.132250835 45.6051890145 889.537844685 -25.0581974086 c 0
 889.628922491 -26.4267629598 889.67443772 -27.7979799227 889.67443772 -29.1703088568 c 0
 889.67443772 -46.7082093538 882.935896861 -60.2859141997 874.006895033 -70.3037675196 c 0
 863.765918322 -81.810103789 848.16623611 -91.0333425643 827.783666155 -91.0333425643 c 0
 809.785658931 -91.0333425643 795.683062566 -83.7979386911 785.645563707 -74.4470579694 c 0
 774.9743364 -64.5216078204 766.470007065 -49.598182446 765.947086161 -30.876017757 c 0
 762.685501747 37.4372952151 733.234531834 101.910996595 683.780981302 149.084262934 c 0
 634.287519064 196.299296299 568.41536865 222.68359375 500 222.68359375 c 0
 431.58463135 222.68359375 365.712053469 196.298888526 316.218591231 149.083855162 c 0
 266.728062625 101.875315908 237.271285851 37.340717596 234.045613687 -31.0298492915 c 0
 232.759683243 -62.2858323321 205.016129454 -88.9638030664 172.311082869 -88.9638030664 c 0
EndSplineSet
EndChar

StartChar: uniF01F
Encoding: 61471 61471 20
Width: 1000
Flags: H
LayerCount: 2
Fore
SplineSet
641.25 315.625 m 0
 641.25 353.062652524 626.338868696 389.046908889 599.880651624 415.506007753 c 0
 573.422748545 441.963910833 537.437727677 456.875 500 456.875 c 0
 462.562272323 456.875 426.577073393 441.963732768 400.119170313 415.505829687 c 0
 373.660263721 389.046923097 358.75 353.062899679 358.75 315.625 c 0
 358.75 278.187025165 373.660399652 242.202059193 400.118992247 215.744348376 c 0
 426.576703063 189.285755782 462.562025165 174.375 500 174.375 c 0
 537.437974835 174.375 573.422940807 189.285399652 599.880651624 215.743992247 c 0
 626.338554704 242.201895326 641.25 278.187272323 641.25 315.625 c 0
953.125 377.5 m 2
 969.558523164 377.5 985.238077203 371.015200219 996.871296134 359.376809819 c 0
 1008.51097051 347.741013182 1015 332.058410046 1015 315.625 c 0
 1015 299.190953986 1008.51588393 283.512607552 996.875450929 271.877345207 c 0
 985.242231998 260.238954807 969.558523164 253.75 953.125 253.75 c 2
 757.736345161 253.75 l 1
 744.367367338 198.075692909 713.270324776 148.072540052 668.931149453 111.392371011 c 0
 621.384325098 72.0693080292 561.705634335 50.587890625 500 50.587890625 c 0
 438.294394854 50.587890625 378.614557375 72.0701347132 331.069501855 111.393447786 c 0
 286.728357181 148.073648012 255.632457435 198.075823797 242.263639804 253.75 c 1
 46.875 253.75 l 2
 30.440798783 253.75 14.760448802 260.239491855 3.12556388783 271.874376771 c 0
 -8.51007951384 283.50872761 -15 299.19016277 -15 315.625 c 0
 -15 332.059201217 -8.50991460278 347.740144773 3.12497031189 359.375029686 c 0
 14.7598552261 371.009914602 30.440798783 377.5 46.875 377.5 c 2
 242.263636173 377.5 l 1
 255.632426488 433.174201474 286.728289411 483.177218862 331.070253952 519.853268078 c 0
 378.61517654 559.178542429 438.294036729 580.662109375 500 580.662109375 c 0
 561.705992459 580.662109375 621.385256596 559.1780865 668.931948026 519.853062242 c 0
 713.271938771 483.177047854 744.367594297 433.174175098 757.736365008 377.5 c 1
 953.125 377.5 l 2
EndSplineSet
EndChar

StartChar: uniF020
Encoding: 61472 61472 21
Width: 1000
Flags: H
LayerCount: 2
Fore
SplineSet
734.375 628.75 m 0
 716.762252835 628.75 702.5 614.487747165 702.5 596.875 c 0
 702.5 579.262252835 716.762252835 565 734.375 565 c 0
 751.987747165 565 766.25 579.262252835 766.25 596.875 c 0
 766.25 614.487747165 751.987747165 628.75 734.375 628.75 c 0
578.75 596.875 m 0
 578.75 682.815116854 648.438145835 752.5 734.375 752.5 c 0
 820.311854165 752.5 890 682.815116854 890 596.875 c 0
 890 532.927370868 851.415658294 477.970180798 796.25 454.0380281 c 1
 796.25 425 l 2
 796.25 330.431217105 719.568782895 253.75 625 253.75 c 2
 375 253.75 l 2
 348.757259458 253.75 327.5 232.492740542 327.5 206.25 c 2
 327.5 145.963573195 l 1
 382.664339231 122.030212641 421.25 67.0757019959 421.25 3.125 c 0
 421.25 -82.8118541654 351.565116854 -152.5 265.625 -152.5 c 0
 179.684883146 -152.5 110 -82.8118541654 110 3.125 c 0
 110 67.0757019959 148.585660769 122.030212641 203.75 145.963573195 c 1
 203.75 454.03809115 l 1
 148.585220432 477.97023885 110 532.927263143 110 596.875 c 0
 110 682.81483979 179.68516021 752.5 265.625 752.5 c 0
 351.56483979 752.5 421.25 682.81483979 421.25 596.875 c 0
 421.25 532.927263143 382.664779568 477.97023885 327.5 454.03809115 c 1
 327.5 370.825902915 l 1
 342.583427387 375.171889017 358.520583807 377.5 375 377.5 c 2
 625 377.5 l 2
 651.243675152 377.5 672.5 398.757051657 672.5 425 c 2
 672.5 454.0380281 l 1
 617.334341706 477.970180798 578.75 532.927370868 578.75 596.875 c 0
265.625 35 m 0
 248.012252835 35 233.75 20.7377471657 233.75 3.125 c 0
 233.75 -14.4877471657 248.012252835 -28.75 265.625 -28.75 c 0
 283.237747165 -28.75 297.5 -14.4877471657 297.5 3.125 c 0
 297.5 20.7377471657 283.237747165 35 265.625 35 c 0
233.75 596.875 m 0
 233.75 579.262252835 248.012252835 565 265.625 565 c 0
 283.237747165 565 297.5 579.262252835 297.5 596.875 c 0
 297.5 614.487747165 283.237747165 628.75 265.625 628.75 c 0
 248.012252835 628.75 233.75 614.487747165 233.75 596.875 c 0
EndSplineSet
EndChar

StartChar: uniF023
Encoding: 61475 61475 22
Width: 1000
Flags: H
LayerCount: 2
Fore
SplineSet
265.624396879 564.843685992 m 0
 282.982700393 564.843685992 297.443048622 579.305797477 297.5 596.625 c 2
 297.5 596.875 l 2
 297.442855342 614.177585991 282.966810992 628.593859652 265.572128474 628.59377085 c 0
 248.236662552 628.565141975 233.75 614.080223748 233.75 596.71875 c 0
 233.75 579.334839097 248.220508934 564.872339204 265.624396879 564.843685992 c 0
203.75 454.034996791 m 1
 153.571158759 475.786829999 110.00177238 528.115676727 110.00177238 596.831587849 c 0
 110.00177238 602.748356649 110.338573693 608.676474563 111.017334783 614.590975124 c 0
 115.030804904 649.563031774 130.776834406 682.137546217 155.746959643 707.034105815 c 0
 180.716007024 731.930669393 213.336040125 747.581531118 248.320955575 751.492505735 c 0
 254.0856163 752.136938957 259.862326007 752.456741898 265.628018226 752.456741898 c 0
 338.585030567 752.456741898 393.030052459 703.878083816 412.506898053 648.274626987 c 0
 418.33491463 631.635515244 421.251736224 614.259530457 421.251736224 596.832138511 c 0
 421.251736224 579.469412516 418.356448923 562.156616237 412.570566454 545.571785098 c 0
 402.52229262 516.770040435 384.23432697 491.615421426 360.126249601 473.185509213 c 1
 380.87991206 436.602644378 410.527172033 405.791030471 446.427211323 383.626622045 c 0
 485.994089037 359.199825709 531.638311247 346.249999166 578.103943101 346.249999166 c 2
 654.032570915 346.249999166 l 1
 675.796076803 396.484800623 727.605561452 440.062891284 796.900971191 440.062891284 c 0
 805.687962742 440.062891284 814.492604211 439.320579397 823.231004501 437.821919487 c 0
 859.387957579 431.620685171 892.233665532 412.831385181 915.9280196 384.719696396 c 0
 939.621080748 356.618322049 952.587890625 321.136084891 952.587890625 284.375 c 0
 952.587890625 247.613841354 939.621694714 212.133487776 915.928964056 184.031423895 c 0
 892.235684536 155.924255491 859.39222337 137.126704287 823.23219929 130.929262042 c 0
 814.49169485 129.429458486 805.685055047 128.686679378 796.896082615 128.686679378 c 0
 727.655723054 128.686679378 675.780830255 172.300355093 654.032569689 222.500001246 c 1
 628.736019356 222.500001246 603.439469024 222.500010497 578.142918692 222.500010497 c 0
 577.996955026 222.499839479 577.850995 222.499753977 577.70503868 222.499753977 c 0
 525.715870196 222.499753977 474.36948934 233.338960286 426.851979072 254.324973093 c 0
 390.46061471 270.397489045 356.931256948 292.157579351 327.5 318.721971026 c 1
 327.5 145.967429042 l 1
 377.734801064 124.203923283 421.312891284 72.3944379958 421.312891284 3.09902880909 c 0
 421.312891284 -5.68796274241 420.570506175 -14.493031103 419.071846265 -23.2314313927 c 0
 412.869639547 -59.3877595361 394.08136287 -92.2336843918 365.96947748 -115.928204171 c 0
 337.867413599 -139.620934829 302.386158646 -152.587890625 265.625 -152.587890625 c 0
 228.863915109 -152.587890625 193.383455052 -139.622578838 165.282080705 -115.92951769 c 0
 137.17039192 -92.2351636223 118.379300148 -59.3878719781 112.178065832 -23.2309188997 c 0
 110.679405922 -14.49251861 109.937108716 -5.68796274241 109.937108716 3.09902880909 c 0
 109.937108716 72.3385965 153.548959067 124.218549374 203.75 145.967429042 c 1
 203.75 454.034996791 l 1
765 284.375 m 0
 765 267.010042759 779.502744322 252.5 796.875 252.5 c 0
 814.243272894 252.5 828.75 267.006073788 828.75 284.375 c 0
 828.75 301.739957241 814.247255678 316.25 796.875 316.25 c 0
 779.506727106 316.25 765 301.743926212 765 284.375 c 0
233.75 3.125 m 0
 233.75 -14.2432728952 248.256073789 -28.75 265.625 -28.75 c 0
 282.989957241 -28.75 297.5 -14.2472556787 297.5 3.125 c 0
 297.5 20.4932728952 282.993926211 35 265.625 35 c 0
 248.260042759 35 233.75 20.4972556787 233.75 3.125 c 0
EndSplineSet
EndChar

StartChar: uniF024
Encoding: 61476 61476 23
Width: 1000
Flags: H
LayerCount: 2
Fore
SplineSet
561.875 690.625 m 2
 561.875 659.375 l 2
 561.875 625.212356541 534.162643459 597.5 500 597.5 c 0
 465.837356541 597.5 438.125 625.212356541 438.125 659.375 c 2
 438.125 690.625 l 2
 438.125 724.787643459 465.837356541 752.5 500 752.5 c 0
 534.162643459 752.5 561.875 724.787643459 561.875 690.625 c 2
500 565 m 0
 534.162643459 565 561.875 537.287643459 561.875 503.125 c 2
 561.875 471.875 l 2
 561.875 437.712356541 534.162643459 410 500 410 c 0
 465.837356541 410 438.125 437.712356541 438.125 471.875 c 2
 438.125 503.125 l 2
 438.125 537.287643459 465.837356541 565 500 565 c 0
561.875 315.625 m 2
 561.875 284.375 l 2
 561.875 250.212356541 534.162643459 222.5 500 222.5 c 0
 465.837356541 222.5 438.125 250.212356541 438.125 284.375 c 2
 438.125 315.625 l 2
 438.125 349.787643459 465.837356541 377.5 500 377.5 c 0
 534.162643459 377.5 561.875 349.787643459 561.875 315.625 c 2
500 190 m 0
 534.162643459 190 561.875 162.287643459 561.875 128.125 c 2
 561.875 96.875 l 2
 561.875 62.7123565407 534.162643459 35 500 35 c 0
 465.837356541 35 438.125 62.7123565407 438.125 96.875 c 2
 438.125 128.125 l 2
 438.125 162.287643459 465.837356541 190 500 190 c 0
500 2.5 m 0
 534.162643459 2.5 561.875 -25.2123565407 561.875 -59.375 c 2
 561.875 -90.625 l 2
 561.875 -124.787643459 534.162643459 -152.5 500 -152.5 c 0
 465.837356541 -152.5 438.125 -124.787643459 438.125 -90.625 c 2
 438.125 -59.375 l 2
 438.125 -25.2123565407 465.837356541 2.5 500 2.5 c 0
953.135716811 627.500001549 m 0
 990.064917661 627.500001549 1015 597.306063586 1015 565.624023438 c 2
 1015 34.375 l 2
 1015 2.68506460014 990.082289457 -27.5033120219 953.136656249 -27.5033120219 c 0
 937.613999487 -27.5033120219 922.386331631 -21.702825079 910.642490317 -10.6113725661 c 2
 629.391704126 255.015346566 l 2
 616.982084316 266.737266611 610 282.954990997 610 299.999023438 c 0
 610 317.042964842 616.982176924 333.261183864 629.392510478 344.982485357 c 2
 910.642487326 610.607463492 l 2
 922.385552923 621.69818338 937.612522356 627.500001549 953.135716811 627.500001549 c 0
891.25 422.081961712 m 1
 761.985327611 299.998955553 l 1
 891.25 177.914429464 l 1
 891.25 422.081961712 l 1
46.8684213633 -27.5014394314 m 0
 9.9402722876 -27.5014394314 -15 2.69421344442 -15 34.375 c 2
 -15 565.625976562 l 2
 -15 597.315486715 9.91979183999 627.502497803 46.8647860298 627.502497803 c 0
 62.3869455725 627.502497803 77.6127720228 621.700850442 89.3555363974 610.610415044 c 2
 370.605771576 344.985192927 l 2
 383.016290985 333.26364413 390 317.045841048 390 300.000976562 c 0
 390 282.956203098 383.016729211 266.73840676 370.605496075 255.017476561 c 2
 89.3580591251 -10.6031491076 l 2
 77.6164151608 -21.6975826675 62.3906409059 -27.5014394314 46.8684213633 -27.5014394314 c 0
238.014528631 300.001044448 m 1
 108.75 422.083914836 l 1
 108.75 177.919693989 l 1
 238.014528631 300.001044448 l 1
EndSplineSet
EndChar

StartChar: uniF026
Encoding: 61478 61478 24
Width: 1000
Flags: H
LayerCount: 2
Fore
SplineSet
500 691.25 m 0
 396.258367536 691.25 296.685473374 650.000807233 223.34287161 576.657265361 c 0
 149.999329738 503.314663597 108.75 403.741632464 108.75 300 c 0
 108.75 196.258377727 149.999179852 96.6854498359 223.342803125 23.3418265625 c 0
 296.685346603 -50.0016570235 396.25827059 -91.25 500 -91.25 c 0
 603.741719219 -91.25 703.31460845 -50.001738425 776.658173437 23.3418265625 c 0
 850.001738424 96.68539155 891.25 196.258280781 891.25 300 c 0
 891.25 403.74172941 850.001725509 503.314584912 776.658241923 576.65712839 c 0
 703.314618649 650.000751663 603.741622273 691.25 500 691.25 c 0
-15 300 m 0
 -15 436.610961742 39.2302105448 567.545729225 135.842688106 664.157200605 c 0
 232.454159485 760.769678165 363.389038258 815 500 815 c 0
 636.609011643 815 767.548026906 760.769385652 864.161496375 664.156922365 c 0
 960.76669951 567.545682159 1015 436.611187324 1015 300 c 0
 1015 163.390762773 960.765906187 32.4516306316 864.160717322 -64.1616076596 c 0
 767.547479031 -160.766796525 636.609237227 -215 500 -215 c 0
 363.388812676 -215 232.453928312 -160.766309991 135.842688106 -64.1611068558 c 0
 39.2302248178 32.4523626132 -15 163.390988357 -15 300 c 0
577.5 112.5 m 0
 577.5 91.9224397236 569.363737466 72.2645712734 554.797522167 57.7007832709 c 0
 540.233749494 43.1406506316 520.580777146 35 500 35 c 0
 479.419222854 35 459.765805309 43.1410957363 445.202032636 57.7012283755 c 0
 430.635817336 72.2650163781 422.5 91.9224397236 422.5 112.5 c 0
 422.5 133.077560276 430.636262534 152.735428726 445.202477833 167.299216729 c 0
 459.766250506 181.859349368 479.419222854 190 500 190 c 0
 520.580777146 190 540.234194691 181.858904264 554.797967364 167.298771624 c 0
 569.364182664 152.734983622 577.5 133.077560276 577.5 112.5 c 0
561.875 503.125 m 2
 561.875 284.375 l 2
 561.875 267.941049329 555.386554847 252.26020291 543.75062323 240.625563889 c 0
 532.115984209 228.989632272 516.433950671 222.5 500 222.5 c 0
 483.566049329 222.5 467.88520291 228.988445153 456.250563889 240.62437677 c 0
 444.614632272 252.259015791 438.125 267.941049329 438.125 284.375 c 2
 438.125 503.125 l 2
 438.125 519.558950671 444.613445153 535.23979709 456.24937677 546.874436111 c 0
 467.884015791 558.510367728 483.566049329 565 500 565 c 0
 516.433950671 565 532.11479709 558.511554847 543.749436111 546.87562323 c 0
 555.385367728 535.240984209 561.875 519.558950671 561.875 503.125 c 2
EndSplineSet
EndChar

StartChar: uniF027
Encoding: 61479 61479 25
Width: 1000
Flags: H
LayerCount: 2
Fore
SplineSet
15.625 409.999972006 m 2
 -1.05708222257 409.999972006 -15 423.938059495 -15 440.625 c 2
 -15 668.529571408 l 2
 -15 682.16466711 -6.21646973987 692.629635175 3.908785764 696.825718168 c 0
 7.63362702479 698.369357543 11.5879011893 699.152814192 15.6266465978 699.152814192 c 0
 25.0885204313 699.152814192 31.8521187003 695.619078543 37.292021875 690.167021875 c 2
 101.374637141 626.084406609 l 1
 162.931189042 701.358272269 244.626808904 757.761572697 337.039842709 788.597896974 c 0
 389.878804546 806.22916926 444.914024621 815.073032761 500.048837983 815.073032761 c 0
 546.999824459 815.073032761 593.951739479 808.65910686 639.612057907 795.805103091 c 0
 738.878684845 767.858209225 827.511152257 710.726525083 893.977505728 631.795152111 c 0
 960.433290856 552.883496622 1001.62901358 455.893833544 1012.2871605 353.320114737 c 0
 1012.54524038 351.02532125 1012.67431789 348.718827705 1012.67431837 346.408153717 c 0
 1012.67431837 329.983604201 1006.95272768 317.508861741 999.007236993 307.630468036 c 0
 988.748758111 294.889849664 972.600408037 284.538993769 950.796257064 284.538993769 c 0
 934.140319477 284.538993769 921.448359249 290.455445939 911.539336471 298.590020014 c 0
 900.088373461 307.994666497 890.909358855 322.500434492 889.198597069 340.566680645 c 0
 879.145924327 436.799790292 833.796865435 525.896106896 761.970191323 590.625922599 c 0
 690.121170624 655.376724117 596.717195806 691.250005097 499.987513043 691.250005097 c 0
 499.881236296 691.250005097 499.774962529 691.250135248 499.668691769 691.250135248 c 0
 362.942476398 691.250135248 253.16473071 621.304256124 189.429046083 538.029996235 c 1
 265.155091737 462.303938709 l 2
 270.609261977 456.861926673 274.152814192 450.090429584 274.152814192 440.626646598 c 0
 274.152814192 428.779734728 268.056394534 420.173385586 260.499565494 415.133588376 c 0
 255.46371396 411.776990824 249.614888284 409.999972006 243.529571408 409.999972006 c 2
 15.625 409.999972006 l 2
984.375 190.000028054 m 2
 1001.05484752 190.000028054 1015 176.058223996 1015 159.375 c 2
 1015 -68.5296246682 l 2
 1015 -82.1470404044 1006.22906188 -92.6199371107 996.104633498 -96.8203140856 c 0
 992.376498896 -98.3701984192 988.419251543 -99.1531419737 984.385909856 -99.1531419737 c 0
 974.923020378 -99.1531419737 968.155217219 -95.628851788 962.707978125 -90.167021875 c 2
 898.62157429 -26.0806180405 l 1
 837.04869305 -101.327612439 755.355640227 -157.704733285 662.94901865 -188.520555763 c 0
 610.126195351 -206.136670582 555.109792902 -214.973183329 499.994577461 -214.973183329 c 0
 453.03910387 -214.973183329 406.083461529 -208.558875421 360.420290042 -195.703574765 c 0
 261.164953821 -167.760767745 172.542213574 -110.642405226 106.071372934 -31.7358247157 c 0
 39.6024838671 47.1744757007 -1.61661416671 144.178387778 -12.2955856809 246.761082968 c 0
 -12.5129257475 248.872242284 -12.6216485481 250.992566429 -12.6216485481 253.116297716 c 0
 -12.6216485481 269.665999815 -6.78476219336 282.285782885 1.26393405582 292.171352066 c 0
 11.5221153279 304.771242726 27.584411814 314.99077415 49.2447742021 314.99077415 c 0
 63.457601943 314.99077415 77.2159257305 310.136720555 88.3255328644 301.08215427 c 0
 101.076964638 290.688412467 109.130988175 275.73966417 110.793453656 259.446987766 c 0
 119.033622218 180.472121108 151.11433579 105.852128454 202.72358607 45.5592259923 c 0
 254.33310247 -14.7261496512 323.071248502 -57.9114804185 399.851113709 -78.2418997459 c 0
 432.726861893 -86.9440903879 466.400737602 -91.2745911721 499.996084896 -91.2745911721 c 0
 544.8560823 -91.2745911721 589.687567029 -83.5519073102 632.415614732 -68.187109857 c 0
 703.166287608 -42.7392781025 764.965517786 2.47801464266 810.564869503 61.9760888068 c 1
 734.847279913 137.693695453 l 2
 729.381747139 143.144627516 725.846858026 149.917284333 725.846858026 159.385909856 c 0
 725.846858026 171.21785229 731.953937709 179.8274132 739.492534131 184.858861702 c 0
 744.536201953 188.226409262 750.391493312 190.000028054 756.470375357 190.000028054 c 2
 984.375 190.000028054 l 2
577.5 112.5 m 0
 577.5 91.9224397236 569.363737466 72.2645712734 554.797522167 57.7007832709 c 0
 540.233749494 43.1406506316 520.580777146 35 500 35 c 0
 479.419222854 35 459.765805309 43.1410957363 445.202032636 57.7012283755 c 0
 430.635817336 72.2650163781 422.5 91.9224397236 422.5 112.5 c 0
 422.5 133.077560276 430.636262534 152.735428726 445.202477833 167.299216729 c 0
 459.766250506 181.859349368 479.419222854 190 500 190 c 0
 520.580777146 190 540.234194691 181.858904264 554.797967364 167.298771624 c 0
 569.364182664 152.734983622 577.5 133.077560276 577.5 112.5 c 0
561.875 503.125 m 2
 561.875 284.375 l 2
 561.875 267.941049329 555.386554847 252.26020291 543.75062323 240.625563889 c 0
 532.115984209 228.989632272 516.433950671 222.5 500 222.5 c 0
 483.566049329 222.5 467.88520291 228.988445153 456.250563889 240.62437677 c 0
 444.614632272 252.259015791 438.125 267.941049329 438.125 284.375 c 2
 438.125 503.125 l 2
 438.125 519.558950671 444.613445153 535.23979709 456.24937677 546.874436111 c 0
 467.884015791 558.510367728 483.566049329 565 500 565 c 0
 516.433950671 565 532.11479709 558.511554847 543.749436111 546.87562323 c 0
 555.385367728 535.240984209 561.875 519.558950671 561.875 503.125 c 2
EndSplineSet
EndChar

StartChar: uniF028
Encoding: 61480 61480 26
Width: 1000
Flags: H
LayerCount: 2
Fore
SplineSet
850.494019242 649.316242013 m 0
 850.494019242 614.961020481 822.645798541 587.446320399 788.616349345 587.446320399 c 0
 774.660080278 587.446320399 760.633989444 592.156896672 749.807357548 601.13818923 c 0
 692.648118226 648.554953344 623.12364204 678.745154724 549.409971391 688.132453339 c 0
 532.960099082 690.227210931 516.457373866 691.26621874 500.003403165 691.26621874 c 0
 442.734602851 691.26621874 385.87393136 678.670786455 333.633167729 654.130180998 c 0
 266.381245734 622.536997625 209.552024926 572.480211614 169.731368298 509.775255091 c 0
 129.908811092 447.067305759 108.750969293 374.237927811 108.750969293 299.985088435 c 0
 108.750969293 299.857889294 108.750783273 299.730696477 108.750783273 299.603510027 c 0
 108.750783273 205.236734326 142.904738335 113.952767316 204.854017474 42.7636752643 c 0
 266.883058739 -28.521635841 352.664056365 -74.9729668654 446.335238638 -87.9489310478 c 0
 464.212916053 -90.4242354658 482.140974562 -91.6472642816 499.992172312 -91.6472642816 c 0
 575.67087913 -91.6472642816 650.248779557 -69.6511078682 714.244849823 -27.7776150383 c 0
 793.32555497 23.9756162532 851.006322037 102.599548742 876.623425268 193.636896245 c 0
 883.368394131 217.554602674 905.437659553 238.727079955 936.187375192 238.727079955 c 0
 941.839924964 238.727079955 947.478858478 237.958345111 952.97817671 236.408520929 c 0
 976.901748923 229.666352324 998.072078113 207.590738011 998.072078113 176.844452945 c 0
 998.072078113 171.190601369 997.301943443 165.548222742 995.750897495 160.048203038 c 0
 965.60721352 53.227063421 901.732815416 -41.0458483564 813.625721861 -108.662498993 c 0
 723.840107844 -177.56194358 615.6435623 -215.094287286 500.094753113 -215.094287286 c 0
 391.436919234 -215.094287286 285.591935661 -180.75976345 197.580682369 -116.871331701 c 0
 107.708678614 -51.6331647944 41.3348786325 40.9071793853 8.35587189517 146.893101546 c 0
 -7.15535282205 196.742704363 -14.8971179393 248.320080113 -14.8971179393 299.904840402 c 0
 -14.8971179393 357.998101929 -5.07922872804 415.994559599 14.504262155 471.433000852 c 0
 51.4757461067 576.095706101 121.313773919 666.062873625 213.588459365 727.846933416 c 0
 298.532793871 784.723454161 398.235187483 814.906879074 500.095828516 814.906879074 c 0
 508.879117069 814.906879074 517.676183127 814.682314118 526.479150405 814.231058035 c 0
 637.451149455 808.542535116 743.493420767 767.124259764 829.003629453 696.196883158 c 0
 842.35604427 684.631257057 850.494019242 668.841391737 850.494019242 649.316242013 c 0
500.000976562 35 m 0
 479.420387237 35 459.766353523 43.1403108709 445.203009199 57.7012283751 c 0
 430.636793898 72.2650163777 422.500976562 91.9224397236 422.500976562 112.5 c 0
 422.500976562 133.077560276 430.636793898 152.734983622 445.203009199 167.298771625 c 0
 459.766353523 181.859689129 479.420387237 190 500.000976562 190 c 0
 520.581753709 190 540.235171253 181.858904264 554.798943926 167.298771625 c 0
 569.365159227 152.734983622 577.500976562 133.077560275 577.500976562 112.5 c 0
 577.500976562 91.9224397242 569.36471403 72.2645712739 554.798498729 57.7007832709 c 0
 540.234726056 43.1406506319 520.581753709 35 500.000976562 35 c 0
500.000976562 565 m 0
 516.436064318 565 532.115815967 558.510219938 543.750412675 546.875623229 c 0
 555.38634429 535.240984209 561.875976562 519.558950671 561.875976562 503.125 c 2
 561.875976562 284.375 l 2
 561.875976562 267.941049329 555.386937866 252.259609334 543.751006251 240.624970314 c 0
 532.116409543 228.990373605 516.436064318 222.5 500.000976562 222.5 c 0
 483.565888806 222.5 467.886137158 228.989780062 456.25154045 240.624376771 c 0
 444.615608836 252.259015791 438.125976562 267.941049328 438.125976562 284.375 c 2
 438.125976562 503.125 l 2
 438.125976562 519.558950672 444.61501526 535.240390666 456.250946874 546.875029686 c 0
 467.885543582 558.509626395 483.565888806 565 500.000976562 565 c 0
951.958384744 563.831431715 m 0
 985.806392961 563.831431715 1013.83234513 535.816005416 1013.83234513 501.962805838 c 0
 1013.83234513 486.148641482 1007.80148848 471.129040641 997.042888528 459.583844775 c 2
 809.349173759 271.890132684 l 2
 797.718144169 260.27073671 782.048462918 253.791015625 765.625 253.791015625 c 0
 749.206855464 253.791015625 733.528238397 260.274353199 721.895478125 271.895478125 c 2
 628.321596381 365.469359869 l 2
 617.508025454 375.636354207 608.831656544 390.994489676 608.831656544 410.540335291 c 0
 608.831656544 429.317067053 616.859980713 444.192522673 626.956805855 454.293779164 c 0
 637.069389297 464.408581737 651.909168919 472.419437278 670.702631736 472.419437278 c 0
 690.230684777 472.419437278 705.625350783 463.736005622 715.782345635 452.926698115 c 2
 765.625 403.08404375 l 1
 813.678819371 451.129089028 861.71504615 499.191726899 909.77997852 547.225659178 c 0
 921.272865999 557.933075171 936.28864044 563.831431715 951.958384744 563.831431715 c 0
EndSplineSet
EndChar

StartChar: uniF02A
Encoding: 61482 61482 27
Width: 1000
Flags: H
LayerCount: 2
Fore
SplineSet
500.031391887 799.37501051 m 0
 526.203368837 799.37501051 546.369591172 783.412331887 555.523305164 764.87184993 c 2
 669.651143732 533.523441781 l 1
 924.982901462 496.406330943 l 2
 949.018351665 492.916526744 968.020830674 475.498760857 974.917879974 454.312478463 c 0
 976.93455564 448.114712323 977.950198438 441.672296436 977.950198438 435.173839027 c 0
 977.950198438 430.184675566 977.350743233 425.219108696 976.152716385 420.360506345 c 0
 973.396566699 409.184216527 967.557507903 398.966290792 959.28118713 390.886348532 c 2
 774.555652783 210.769855752 l 1
 818.157925942 -43.4453499223 l 2
 818.755031061 -46.9193445044 819.053107914 -50.4290401492 819.053107914 -53.9467682475 c 0
 819.053107914 -76.8597769503 807.717283677 -93.6968093999 793.551006351 -103.996889836 c 0
 783.095811028 -111.597650879 771.499846197 -115.815946399 757.178971477 -115.815946399 c 0
 747.137673751 -115.815946399 737.302182833 -113.394973357 728.409963358 -108.72347445 c 2
 499.999999914 11.3646104196 l 1
 271.582048885 -108.727670994 l 2
 262.694977423 -113.393271358 252.86920391 -115.809812214 242.833484447 -115.809812214 c 0
 214.770998723 -115.809812214 194.001422785 -98.0648641634 185.52882378 -77.2771493753 c 0
 182.499572418 -69.8448121076 180.959131704 -61.9441797114 180.959131704 -53.9365847576 c 0
 180.959131704 -50.4517100536 181.255164143 -46.9543093906 181.841571358 -43.510776402 c 2
 225.504998416 210.828686207 l 1
 40.6698124637 390.873202172 l 2
 32.3647615299 398.950859054 26.5096472836 409.172012935 23.7404334349 420.362002415 c 0
 22.534487831 425.23731618 21.9309441447 430.220625282 21.9309441447 435.228508184 c 0
 21.9309441447 441.721050575 22.9437516831 448.157058005 24.9573267486 454.351053165 c 0
 31.8512521769 475.565236537 50.8818080229 493.002350178 74.9555180253 496.468964418 c 2
 330.289341546 533.525725979 l 1
 444.478817901 764.876151853 l 2
 453.653842831 783.459798262 473.762074721 799.37501051 500.031391887 799.37501051 c 0
EndSplineSet
EndChar

StartChar: uniF02B
Encoding: 61483 61483 28
Width: 1000
Flags: H
LayerCount: 2
Fore
SplineSet
828.75 628.125 m 2
 828.75 628.474284347 828.466701381 628.75 828.125 628.75 c 2
 171.875 628.75 l 2
 171.534061715 628.75 171.25 628.467200396 171.25 628.125 c 2
 171.25 159.375 l 2
 171.25 159.027822804 171.527822804 158.75 171.875 158.75 c 2
 296.875 158.75 l 2
 313.308159397 158.75 328.991852801 152.261423703 340.627403262 140.620702461 c 0
 352.265793662 128.987483529 358.75 113.308523164 358.75 96.875 c 2
 358.75 -40 l 1
 406.881826042 8.13182604167 455.013652083 56.2636520833 503.145478125 140.604521875 c 1
 514.770412596 152.244968324 530.434732204 158.733213742 546.859376853 158.749992021 c 2
 828.125 158.749992021 l 2
 828.474482884 158.749992021 828.75 159.025723222 828.75 159.375 c 2
 828.75 628.125 l 2
47.5 628.125 m 2
 47.5 696.777822804 103.222177196 752.5 171.875 752.5 c 2
 828.125 752.5 l 2
 896.777822804 752.5 952.5 696.777822804 952.5 628.125 c 2
 952.5 159.375 l 2
 952.5 126.365541412 939.421883475 94.7881703999 916.067158127 71.4323331328 c 0
 892.71132086 48.0776077842 861.134458588 35 828.125 35 c 2
 572.459043743 35 l 1
 416.040382692 -121.418660807 l 2
 401.184033474 -136.270453212 382.292985832 -146.345973167 361.757257446 -150.43063447 c 0
 354.920112354 -151.790577563 347.994813082 -152.467165685 341.066024453 -152.467165685 c 0
 327.17063395 -152.467165685 313.408176362 -149.751109469 300.491179598 -144.403086094 c 0
 265.366546169 -129.862498191 235.015355704 -93.6255785874 235 -46.4375 c 2
 235 35 l 1
 171.875 35 l 2
 138.863911861 35 107.285599286 48.0776225949 83.9303800078 71.4328418733 c 0
 60.5752216801 94.7891121402 47.5 126.366261582 47.5 159.375 c 2
 47.5 628.125 l 2
EndSplineSet
EndChar

StartChar: uniF02C
Encoding: 61484 61484 29
Width: 1000
Flags: H
LayerCount: 2
Fore
SplineSet
500 691.25 m 0
 283.909577693 691.25 108.75 516.090422307 108.75 300 c 0
 108.75 83.9056972604 283.909449815 -91.25 500 -91.25 c 0
 716.094430617 -91.25 891.25 83.9055693834 891.25 300 c 0
 891.25 516.090550185 716.09430274 691.25 500 691.25 c 0
-15 300 m 0
 -15 584.417374246 215.582625754 815 500 815 c 0
 784.418356053 815 1015 584.417348271 1015 300 c 0
 1015 15.5816699224 784.418330078 -215 500 -215 c 0
 215.582651729 -215 -15 15.5816439474 -15 300 c 0
577.5 112.5 m 0
 577.5 69.7067735764 542.793226424 35 500 35 c 0
 457.207792093 35 422.5 69.7065657764 422.5 112.5 c 0
 422.5 155.293434224 457.207792093 190 500 190 c 0
 542.793226424 190 577.5 155.293226424 577.5 112.5 c 0
390.588673127 378.739947906 m 0
 353.622440108 378.739947906 328.739772353 409.81703124 328.739772353 440.660710036 c 0
 328.739772353 450.005384921 330.85435157 459.442842436 335.273817205 468.281028182 c 0
 346.744473444 491.224455846 364.98245578 516.122588737 393.427073299 535.086384431 c 0
 422.201336316 554.269226442 457.966167423 565 500 565 c 0
 537.483773959 565 578.131668057 554.094513119 611.331271522 529.194541506 c 0
 646.015676318 503.180698226 671.25 461.92202877 671.25 409.375 c 0
 671.25 378.713304117 663.239004729 351.766342834 648.171443359 329.169407788 c 0
 633.760673696 307.552703138 615.340392682 293.415563191 600.71411311 283.66333881 c 0
 588.378840571 275.440414894 575.590213783 268.540799781 564.582987647 261.201898393 c 0
 555.818170899 255.358388433 552.671543984 251.831300025 551.493960097 250.064315728 c 0
 539.548095711 232.143894305 519.911515494 222.488573807 499.956521041 222.488573807 c 0
 488.134362668 222.488573807 476.215598632 225.862352079 465.696413485 232.874029439 c 0
 447.775545566 244.819649906 438.119726104 264.456071884 438.119726104 284.411151612 c 0
 438.119726104 296.233676923 441.493334906 308.152001013 448.505605163 318.67136019 c 0
 462.915134895 340.290055989 481.333319412 354.429155237 495.963352807 364.182510833 c 0
 508.529598714 372.56121194 520.785297987 379.105920082 532.097676415 386.646734419 c 0
 540.862899128 392.490515035 544.012301052 396.020926121 545.18760469 397.784691573 c 0
 545.970951167 398.959542972 547.5 400.680525148 547.5 409.375 c 0
 547.5 419.739945657 544.326390393 424.765337064 537.106675175 430.180123478 c 0
 528.739134158 436.455425104 514.466218566 441.25 500 441.25 c 0
 479.448896962 441.25 468.522613127 436.421924464 462.040096302 432.100713033 c 0
 455.292954968 427.603089076 450.137923384 421.29245298 445.976049036 412.968704282 c 0
 435.120206926 391.256104346 413.249670928 378.739947906 390.588673127 378.739947906 c 0
EndSplineSet
EndChar

StartChar: uniF02E
Encoding: 61486 61486 30
Width: 1000
Flags: H
LayerCount: 2
Fore
SplineSet
846.895478125 -134.354521875 m 0
 864.096999131 -47.9025214214 881.298520136 -22.8784787636 898.500041142 -22.8784787636 c 1
 933.973005557 -46.5271217071 l 1025
437.555849181 -27.535930409 m 0
 222.174947026 -27.535930409 47.5357504302 147.371595657 47.5357504302 362.453843656 c 0
 47.5357504302 366.52472054 47.5994160328 370.600825265 47.7271955749 374.680536055 c 0
 50.834189517 473.847372778 91.5856630553 568.051542743 161.766649228 638.232528915 c 0
 231.948447304 708.413310939 326.151554847 749.16584661 425.318647677 752.271832884 c 0
 429.398396886 752.399612321 433.474383071 752.463273007 437.545295375 752.463273007 c 0
 652.6073437 752.463273007 827.535930409 577.757657466 827.535930409 362.444150818 c 0
 827.535930409 280.545750917 801.76939828 200.569162476 753.548342728 133.910701022 c 1
 784.664054527 102.794989223 815.779766326 71.6792774239 846.895478125 -134.354521875 c 1
 813.407926548 -100.866970298 780.440176716 -68.2773045384 747.292889094 125.503285671 c 1
 746.732966217 124.771441471 746.170258362 124.041319798 745.604769876 123.312936495 c 1
 745.973421988 125.525731036 746.3420741 127.379119636 746.710725696 128.92314106 c 0
 745.925430747 133.558557655 745.140032744 138.284966328 744.354521875 143.104521875 c 0
 735.788053361 151.670990389 727.221584848 160.237458902 718.655116334 160.237458902 c 1
 676.687063505 54.3952301242 l 1
 675.145118132 55.9371754975 673.603172759 57.4791208708 672.061227386 57.4791208708 c 2
 666.089298978 46.4516572716 l 1
 599.430837524 -1.76939828059 519.454249082 -27.535930409 437.555849181 -27.535930409 c 0
703.75 362.5 m 0
 703.75 433.09033209 675.670713893 500.868341886 625.770379202 550.769600487 c 0
 575.867108285 600.67102358 508.088331798 628.75 437.499023438 628.75 c 0
 366.909670917 628.75 299.130743819 600.67067085 249.23059736 550.769600487 c 0
 199.329277192 500.868280318 171.249023438 433.090189333 171.249023438 362.5 c 0
 171.249023438 282.143258072 205.977202201 217.484435422 249.230698211 174.229322097 c 0
 292.540430637 130.926067589 357.055580559 96.25 437.499023438 96.25 c 0
 517.862748197 96.25 582.510458766 130.98082477 625.771876755 174.230920322 c 0
 669.073603621 217.542363719 703.75 282.064143784 703.75 362.5 c 0
EndSplineSet
EndChar

StartChar: uniF02F
Encoding: 61487 61487 31
Width: 1000
Flags: H
LayerCount: 2
Fore
SplineSet
766.25 300 m 0
 766.25 308.85863658 765.41978519 317.421902011 765.41978519 326.220720979 c 0
 765.41978519 358.516328053 776.432519138 393.335423645 803.297231406 419.881872312 c 2
 852.990378126 468.985146983 l 1
 844.247019473 487.210510781 834.138787428 504.647277235 822.780700954 521.185551455 c 1
 755.491608176 502.722185423 l 2
 744.463312204 499.696508223 733.435813594 498.30486688 722.643772002 498.30486688 c 0
 694.612710027 498.30486688 668.634651721 507.592437723 647.635647167 521.61408944 c 0
 638.163579917 527.938660937 628.265551388 533.669323418 618.000156299 538.753948147 c 0
 586.818986758 554.19884684 558.244408447 582.7525366 547.800073844 622.685447594 c 2
 530.167468533 690.106811613 l 1
 520.218939132 690.864017853 510.160298147 691.25 500 691.25 c 0
 489.841011713 691.25 479.780534071 690.863845746 469.832484755 690.106765444 c 1
 452.197964935 622.683463519 l 2
 441.754672784 582.751395447 413.18052422 554.197134172 382.000932399 538.753027128 c 0
 371.735812573 533.668996597 361.840296634 527.938299125 352.369330875 521.614153029 c 0
 331.368861578 507.591787466 305.389286354 498.303911277 277.358473992 498.303911277 c 0
 266.5666409 498.303911277 255.53999878 499.695441291 244.512429667 502.721172752 c 2
 177.218441296 521.185527426 l 1
 165.861670638 504.648171622 155.749619299 487.204521478 147.010041216 468.982848279 c 1
 196.706346489 419.878290517 l 2
 223.567904545 393.33596653 234.583064535 358.523296507 234.583064535 326.230998531 c 0
 234.583064535 317.429711965 233.751953125 308.857774343 233.751953125 300 c 0
 233.751953125 291.14352521 234.583064535 282.569076221 234.583064535 273.769001469 c 0
 234.583064535 241.476703493 223.568028837 206.664156284 196.706470781 180.121832297 c 2
 147.008221405 131.018212314 l 1
 155.748308759 112.796073653 165.862532312 95.3512811354 177.220673039 78.8122438785 c 1
 244.511612395 97.2795795425 l 2
 255.53817069 100.305341843 266.564240267 101.696936836 277.355046564 101.696936836 c 0
 305.387878032 101.696936836 331.368365025 92.4065909687 352.369126811 78.3840301062 c 0
 361.837305091 72.060821146 371.733768434 66.3327848344 382.004214069 61.2424171829 c 0
 413.185854934 45.8010955338 441.754660945 17.2493532708 452.197994185 -22.6806456666 c 2
 469.831791765 -90.105951564 l 1
 479.783808967 -90.8620984941 489.841299597 -91.25 500 -91.25 c 0
 510.156355421 -91.25 520.217077607 -90.861796982 530.168218493 -90.1058753078 c 1
 547.799995343 -22.6867243097 l 2
 558.244179032 17.2489489684 586.818830842 45.8034717544 618.00154085 61.2447844299 c 0
 628.272261148 66.3357466529 638.166036193 72.0610260144 647.635835156 78.3840829587 c 0
 668.635300977 92.4068302943 694.614196862 101.696936836 722.647443738 101.696936836 c 0
 733.438393621 101.696936836 744.464352366 100.305467707 755.491542528 97.2797857155 c 2
 822.778512287 78.8122360239 l 1
 834.136222404 95.3497080657 844.248729079 112.79341858 852.99204123 131.016069756 c 1
 803.297671519 180.117692807 l 2
 776.432959251 206.664141473 765.41978519 241.483671947 765.41978519 273.779279021 c 0
 765.41978519 282.578700819 766.25 291.14056369 766.25 300 c 0
824.776224215 521.713281805 m 1
 824.776224215 521.713281805 824.77242709 521.71279421 824.776224215 521.713281805 c 1
175.229699479 78.2865342875 m 1
 175.229699479 78.2865342875 175.233533111 78.2869792729 175.229699479 78.2865342875 c 1
110.001953125 300 m 0
 110.001953125 308.870566538 110.840269183 317.658121309 110.840269183 326.407730683 c 0
 110.840269183 330.053657264 109.801856602 331.710239485 109.640491396 331.945655412 c 2
 58.8024928628 382.178300419 l 2
 36.1532416937 404.557651367 22.1705657026 435.671743201 22.1705657026 468.674174464 c 0
 22.1705657026 484.918288261 25.598391944 501.495567778 33.0204181146 517.412165125 c 0
 45.8651690035 544.957466855 61.0699901297 571.169660986 78.3693358869 595.787883341 c 0
 101.971521801 629.374648068 139.091063208 645.390460992 175.460620674 645.390460992 c 0
 186.58359744 645.390460992 197.64312332 643.910930345 208.328451942 640.979005741 c 2
 277.156558859 622.093714276 l 2
 277.197128062 622.089901741 277.271052923 622.084756087 277.372340493 622.084756087 c 0
 278.100757445 622.084756087 280.37057704 622.338134545 283.680680918 624.548094637 c 0
 297.548410208 633.807805194 312.046870252 642.205249625 327.102893915 649.662165822 c 0
 331.286046604 651.734075253 332.367785916 653.824299061 332.49929592 654.111494697 c 2
 350.540317315 723.089977803 l 2
 362.50605015 768.839357481 401.433812125 808.40113796 454.867314199 813.04669865 c 0
 469.750051353 814.340150024 484.803329867 815 500 815 c 0
 515.196669936 815 530.250016849 814.340146637 545.131864544 813.046685152 c 0
 598.565614947 808.402226894 637.49402395 768.840559005 649.456691153 723.090214251 c 2
 667.497304926 654.118961565 l 2
 667.627625934 653.832995645 668.707201553 651.739848029 672.899922442 649.664667918 c 0
 687.954001623 642.207196189 702.452786877 633.810669114 716.318906813 624.549998434 c 0
 719.630033664 622.339636188 721.900451175 622.08573265 722.630687566 622.08573265 c 0
 722.741992046 622.08573265 722.806860969 622.089633168 722.842396568 622.093065499 c 2
 791.670778821 640.979062626 l 2
 802.356846745 643.910976431 813.416931066 645.390583418 824.540276068 645.390583418 c 0
 860.910054043 645.390583418 898.027809459 629.374008554 921.631004626 595.787398759 c 0
 938.928932189 571.169763173 954.134224381 544.959870056 966.977421789 517.413585515 c 0
 974.400728493 501.495821351 977.829237232 484.917256363 977.829237232 468.671772038 c 0
 977.829237232 435.670406905 963.847391563 404.557777558 941.196782016 382.17854887 c 2
 890.339272081 331.916982617 l 2
 890.099668482 331.561699604 889.163350553 329.845603068 889.163350553 326.41560523 c 0
 889.163350553 317.662070005 890 308.870884018 890 300 c 0
 890 291.129328087 889.163350553 282.338372567 889.163350553 273.58439477 c 0
 889.163350553 269.937738223 890.194185345 268.294541448 890.357000584 268.057749625 c 2
 941.196178889 217.822047065 l 2
 963.846657939 195.44294731 977.829237232 164.330501417 977.829237232 131.3288016 c 0
 977.829237232 115.083184368 974.401150594 98.5052119798 966.978007294 82.5866935716 c 0
 954.134627546 55.0400179453 938.926707467 28.8291994531 921.629948647 4.20719236385 c 0
 898.02639894 -29.3756123545 860.909230926 -45.3913524225 824.53914002 -45.3913524225 c 0
 813.416234796 -45.3913524225 802.35639353 -43.9118286451 791.67063835 -40.9800006469 c 2
 722.845248339 -22.0957995984 l 2
 722.804370582 -22.0918811852 722.728765909 -22.0864940649 722.624768134 -22.0864940649 c 0
 721.893399592 -22.0864940649 719.631336127 -22.336256039 716.323465421 -24.5440244192 c 0
 702.45617871 -33.8085218776 687.955447318 -42.206558206 672.900346495 -49.662504718 c 0
 667.571420641 -52.302551749 667.52602709 -54.0072064381 667.52602709 -54.0072064381 c 1
 649.457119863 -123.086621742 l 2
 637.494489342 -168.842356268 598.56429581 -208.401899254 545.131796711 -213.049620735 c 0
 530.247933642 -214.343257388 515.194642746 -215 500 -215 c 0
 484.805357083 -215 469.750971558 -214.343159647 454.866219133 -213.049533125 c 0
 401.433484518 -208.401791159 362.505972402 -168.84263702 350.540329344 -123.08807067 c 2
 332.471031311 -54.0034253702 l 2
 332.19921916 -53.5178537258 330.995684278 -51.5898634367 327.103841266 -49.663611565 c 0
 312.04682258 -42.2072182725 297.550173869 -33.8100767566 283.681701322 -24.5468227915 c 0
 280.376301089 -22.3401426363 278.108487441 -22.0864940649 277.378423358 -22.0864940649 c 0
 277.267172757 -22.0864940649 277.202479667 -22.090355738 277.167025593 -22.0937693936 c 2
 208.328511366 -40.9799659981 l 2
 197.643619708 -43.9117707049 186.584492109 -45.3912654172 175.461956991 -45.3912654172 c 0
 139.091625015 -45.3912654172 101.971690915 -29.3745448326 78.3693985141 4.21495722593 c 0
 61.070357259 28.8317403774 45.8652070203 55.0404985112 33.0202175577 82.5863118576 c 0
 25.5983423999 98.5036899121 22.1705657026 115.0813052 22.1705657026 131.325670788 c 0
 22.1705657026 164.328659506 36.1532469812 195.442353858 58.8024438154 217.821651118 c 2
 58.8024438154 217.821651118 109.731354709 268.144125891 109.660788934 268.083007643 c 1
 109.904185391 268.444155726 110.840269183 270.162561961 110.840269183 273.592269317 c 0
 110.840269183 282.340989642 110.001953125 291.129742504 110.001953125 300 c 0
578.75 300 m 0
 578.75 343.502616732 543.502616732 378.75 500 378.75 c 0
 456.497383268 378.75 421.25 343.502616732 421.25 300 c 0
 421.25 256.497383268 456.497383268 221.25 500 221.25 c 0
 543.502616732 221.25 578.75 256.497383268 578.75 300 c 0
702.5 300 m 0
 702.5 188.172428042 611.827571958 97.5 500 97.5 c 0
 388.172428042 97.5 297.5 188.172428042 297.5 300 c 0
 297.5 411.827571958 388.172428042 502.5 500 502.5 c 0
 611.827571958 502.5 702.5 411.827571958 702.5 300 c 0
EndSplineSet
EndChar

StartChar: uniF031
Encoding: 61489 61489 32
Width: 1000
Flags: H
LayerCount: 2
Fore
SplineSet
713.182329905 -121.934210518 m 0
 713.182329905 -155.389381081 686.441242549 -183.76338462 651.264501406 -183.76338462 c 0
 618.464960702 -183.76338462 591.124511429 -157.992198349 589.508355307 -124.924694884 c 2
 589.508355307 -124.924694884 579.289605307 84.1260863662 579.282227849 84.2967169012 c 0
 579.222544926 85.8841235804 579.192992666 87.464855287 579.192992666 89.0384837024 c 0
 579.192992666 138.0860953 607.684329391 177.899945982 642.582674825 200.074464443 c 0
 717.019971385 247.37952865 766.25 330.433156714 766.25 424.98046875 c 0
 766.25 506.75894167 729.379068406 579.955896416 671.25 628.85519024 c 1
 671.25 469.864257812 l 2
 671.25 428.653042879 650.867254983 390.145415869 616.735611276 366.965119532 c 2
 569.860565333 335.131103956 l 2
 548.769611496 320.807823693 524.419240031 313.65600586 500 313.65600586 c 0
 475.580759969 313.65600586 451.230342561 320.807854894 430.139388724 335.131135157 c 2
 383.264604942 366.964972695 l 2
 349.13039737 390.145499938 328.75 428.653591748 328.75 469.864257812 c 2
 328.75 628.864155872 l 1
 270.598355601 579.971318845 233.75 506.787088057 233.75 424.98046875 c 0
 233.75 330.433574089 282.983000931 247.380055944 357.418730275 200.074812698 c 0
 392.315391813 177.900025415 420.804086068 138.085614217 420.804086068 89.0389289874 c 0
 420.804086068 87.2252859875 420.757847665 85.4095370064 420.687922357 83.6004625727 c 2
 410.491650014 -124.924586027 l 2
 408.875465857 -157.992663102 381.532519873 -183.76338462 348.737029888 -183.76338462 c 0
 313.553182837 -183.76338462 286.815166771 -155.378835891 286.815166771 -121.925810034 c 0
 286.815166771 -120.905396025 286.840073489 -119.88203255 286.890190467 -118.856571007 c 2
 297.041034 88.8094814502 l 2
 296.924127058 89.4239391338 296.052047226 92.4492754142 291.077094854 95.6118814371 c 0
 182.326849179 164.719535665 110 286.394167724 110 424.98046875 c 0
 110 557.422142959 176.067113455 674.435260892 276.83823598 744.855495791 c 0
 296.514859722 758.605675202 318.234296891 764.981613329 339.408097819 764.981613329 c 0
 360.500046855 764.981613329 380.750488257 758.732021545 398.058421923 747.647690356 c 0
 431.36300091 726.318247219 452.5 688.340171501 452.5 646.0546875 c 2
 452.5 469.864257812 l 2
 452.5 469.662739132 452.632633419 469.442022419 452.758871323 469.356290041 c 2
 499.635724686 437.522023401 l 2
 499.740329171 437.450963296 499.904638763 437.405761719 500 437.405761719 c 0
 500.095361237 437.405761719 500.261524193 437.452222124 500.366128677 437.523282229 c 2
 547.240879595 469.356120885 l 2
 547.368016992 469.442464139 547.5 469.661641178 547.5 469.864257812 c 2
 547.5 646.0546875 l 2
 547.5 688.340171501 568.63770955 726.318702195 601.942288536 747.648145332 c 0
 619.251321373 758.73209849 639.501820432 764.981613329 660.593369484 764.981613329 c 0
 681.766770984 764.981613329 703.484273417 758.606189844 723.158765425 744.855543945 c 0
 823.931853766 674.435354911 890 557.422237253 890 424.98046875 c 0
 890 286.394092372 817.675343289 164.721574965 708.926161617 95.6139514176 c 0
 703.442951027 92.1275515063 702.989476688 89.475142602 702.954658123 88.9573505977 c 2
 713.106746169 -118.853841315 l 2
 713.157241617 -119.883069944 713.182329905 -120.91006526 713.182329905 -121.934210518 c 0
702.952244581 88.8653509379 m 1
 702.952244581 88.8735307862 702.951931119 88.8817106346 702.952244581 88.8653509379 c 1
338.732187974 641.199832849 m 0
 332.470264374 641.199832849 325.174804688 648.168630988 325.174804688 656.313476562 c 2
 325.174804688 667.679728867 l 1
 330.682644839 669.228808998 334.932670281 671.317174663 340.188662725 671.317174663 c 0
 340.474077169 671.317174663 340.903117175 671.434087748 341.582945114 671.434087748 c 0
 347.662538383 671.434087748 355.188693577 665.01129449 355.188693577 656.317165798 c 0
 355.188693577 649.097411256 351.44072494 646.339461476 350.637407308 645.55907147 c 0
 346.203822124 641.252026002 347.336448926 642.716532426 344.135979238 641.84257095 c 0
 343.42993138 641.649768428 345.067399752 641.313406934 340.175016095 641.313406934 c 0
 339.895528318 641.313406934 339.436301557 641.199832849 338.732187974 641.199832849 c 0
EndSplineSet
EndChar

StartChar: uniF014
Encoding: 61460 61460 33
Width: 1000
Flags: H
LayerCount: 2
Fore
SplineSet
765 524.95904375 m 1
 765 -75 l 2
 765 -117.792415708 730.292415708 -152.5 687.5 -152.5 c 2
 62.5 -152.5 l 2
 19.7075842925 -152.5 -15 -117.792415708 -15 -75 c 2
 -15 675 l 2
 -15 717.792415708 19.7075842925 752.5 62.5 752.5 c 2
 537.45904375 752.5 l 1
 765 524.95904375 l 1
77.5 660 m 1
 77.5 119.153951937 l 1
 90.4897603963 128.013224829 104.22352013 135.759046882 118.555241657 142.299227331 c 0
 131.33020283 148.662908527 144.391137941 154.429551675 157.694967367 159.583080583 c 1
 161.427989836 166.641687989 167.912777331 179.9008951 176.419575557 197.485294747 c 0
 185.540012856 216.338147906 197.246811474 240.537563617 211.574845003 269.193630675 c 0
 237.363442364 321.043640969 259.766682908 374.476876521 278.670511861 429.211569316 c 1
 268.722664096 465.368905484 261.876983501 502.312381502 258.209133123 539.648760493 c 0
 257.006163623 550.175130769 256.405689263 560.747323743 256.405689078 571.317622846 c 0
 256.405689078 593.244926455 258.988624175 615.104464733 264.122866217 636.465610295 c 0
 265.913549666 644.750167471 268.965209427 652.683264012 273.154187514 660 c 1
 77.5 660 l 1
421.102174941 218.628697842 m 1
 414.190987359 223.191995437 407.60066264 228.25748962 401.312185496 233.68021629 c 1
 376.041614853 262.265274773 355.260283009 294.398247795 339.860663699 329.157122704 c 1
 327.27316934 293.707977654 312.616291563 259.013539662 295.960655382 225.252846455 c 0
 287.577979887 207.842674273 276.72208659 191.914421443 267.134251449 178.777291133 c 1
 295.509418981 189.25662601 324.638185313 198.634258796 354.210021469 205.262428969 c 0
 376.087425903 210.165985135 398.212787634 214.622919601 421.102174941 218.628697842 c 1
671.875 -60 m 1
 671.875 100 l 1
 668.701223146 100 665.527446292 100 662.353669439 100 c 0
 599.588073888 106.331284533 545.406836834 124.042372903 496.576789364 147.20688713 c 1
 468.217180015 144.742211449 438.938764494 141.113275015 409.828316441 135.291186088 c 0
 378.727885283 129.071099856 348.401681013 123.441401307 321.327856921 115.0448511 c 0
 295.441960629 107.01671931 277.815257976 100.6258038 250.638041247 89.4255507765 c 1
 220.722274719 35.0987444962 183.15392867 -14.639225969 139.116623372 -58.3407623855 c 0
 138.51245792 -58.8978238676 137.905241241 -59.4522020736 137.293158173 -60 c 1
 671.875 -60 l 1
409.717683633 619.991007213 m 0
 409.717683633 614.855770921 409.229182492 609.712417603 408.240205114 604.618770143 c 0
 408.764382258 597.153142821 409.026611328 589.671700847 409.026611328 582.1875 c 0
 409.026611328 574.088405896 408.719523255 565.992542633 408.1057033 557.916455543 c 0
 406.723846379 516.623354868 402.677025641 475.470286482 395.991467529 434.711323572 c 1
 411.228132 384.34548578 437.186347247 337.88215531 472.078860085 298.51691999 c 0
 487.624830871 283.585507141 505.832272399 271.701581693 525.766080212 263.476686963 c 1
 550.572458527 266.387917319 575.523735941 267.940377079 600.512340222 268.124584872 c 2
 600.993263125 268.124584872 l 2
 618.121676119 267.296591637 635.084995125 264.658925375 651.611466911 260.691984762 c 0
 658.712370966 258.347880357 665.655921197 255.741738184 672.5 252.797687124 c 1
 672.5 481.29095625 l 1
 493.79095625 660 l 1
 399.094792431 660 l 1
 406.07960801 647.794724726 409.717683633 634.020391704 409.717683633 619.991007213 c 0
EndSplineSet
EndChar

StartChar: uniF032
Encoding: 61490 61490 34
Width: 1000
Flags: H
LayerCount: 2
Fore
SplineSet
110 628.125 m 2
 110 696.806040198 165.693959802 752.5 234.375 752.5 c 2
 390.625 752.5 l 2
 424.787643459 752.5 452.5 724.787643459 452.5 690.625 c 0
 452.5 656.462356541 424.787643459 628.75 390.625 628.75 c 2
 234.375 628.75 l 2
 234.021263025 628.75 233.75 628.478736975 233.75 628.125 c 2
 233.75 -28.125 l 2
 233.75 -28.4803544755 234.019600573 -28.75 234.375 -28.75 c 2
 390.625 -28.75 l 2
 424.787643459 -28.75 452.5 -56.4623565407 452.5 -90.625 c 0
 452.5 -124.787643459 424.787643459 -152.5 390.625 -152.5 c 2
 234.375 -152.5 l 2
 165.693959802 -152.5 110 -96.8060401979 110 -28.125 c 2
 110 628.125 l 2
421.875976562 238.125 m 2
 387.71361017 238.125 360.000976562 265.836324041 360.000976562 300 c 0
 360.000976562 334.162643459 387.713333103 361.875 421.875976562 361.875 c 2
 741.248026515 361.875 l 1
 643.752208465 459.374685293 l 2
 631.661718202 471.464530592 625.626464844 487.301984839 625.626464844 503.125 c 0
 625.626464844 518.948015161 631.661433174 534.785184388 643.751923437 546.875029687 c 0
 655.841456276 558.964562526 671.677774575 564.999755859 687.5 564.999755859 c 0
 703.322225425 564.999755859 719.158543724 558.964562526 731.248076563 546.875029687 c 2
 934.372791535 343.750314707 l 2
 946.463281798 331.660469408 952.498535156 315.823015161 952.498535156 300 c 0
 952.498535156 284.176984839 946.463515451 268.339764238 934.373025188 256.249918939 c 2
 731.248361583 53.1272084651 l 2
 719.158898723 41.0371006617 703.322452004 35.0014648438 687.5 35.0014648438 c 0
 671.677547996 35.0014648438 655.841671325 41.0365306141 643.752208465 53.1266384176 c 0
 631.662100662 65.2161012779 625.626464844 81.0525479962 625.626464844 96.8750000001 c 0
 625.626464844 112.697452004 631.661518945 128.533317005 643.751626748 140.622779866 c 2
 741.248432715 238.125 l 1
 421.875976562 238.125 l 2
EndSplineSet
EndChar

StartChar: uniF033
Encoding: 61491 61491 35
Width: 1000
Flags: H
LayerCount: 2
Fore
SplineSet
879 815 m 2
 890.625 815 l 2
 923.633738418 815 955.211142233 801.924523953 978.5674125 778.569365625 c 0
 1001.92263178 755.214146347 1015 723.636088139 1015 690.625 c 2
 1015 678.996086244 l 2
 1014.96186653 529.968469477 955.778639547 387.153459201 850.36616855 281.782137508 c 2
 821.729521875 253.082978125 l 2
 803.460246721 234.813702971 784.498076213 217.186178732 764.937499974 200.295349895 c 1
 764.937499974 6.74520104593 l 2
 764.922282615 -41.7550596812 737.741825178 -79.456637 705.720197476 -99.1595319427 c 2
 532.344510252 -205.846853893 l 2
 522.742807698 -211.755593927 512.841790115 -215.020222337 499.931353818 -215.020222337 c 0
 480.171699032 -215.020222337 465.153941323 -206.486235795 454.848972462 -195.528482054 c 0
 448.360741153 -188.630535739 443.556548649 -180.348110719 440.783743245 -171.347098461 c 2
 382.547058902 18.0136927697 l 1
 380.190660984 19.962903337 377.96078213 22.0166980111 375.834201879 24.1432782621 c 2
 224.019501563 175.895478125 l 2
 221.8855563 178.029423388 219.847577326 180.275449289 217.927933362 182.617388424 c 1
 28.5852101034 240.848516748 l 2
 10.2493241611 246.493550318 -4.51940672896 260.661229806 -11.1189022388 278.187465559 c 0
 -13.7456483007 285.161613639 -15.0841640555 292.524061437 -15.0841640555 299.988834326 c 0
 -15.0841640555 312.920323349 -11.8228816618 322.802586694 -5.90431526148 332.417753145 c 2
 100.963618414 505.78127847 l 2
 120.682808497 537.834555317 158.332464948 564.984770479 206.874023438 565 c 2
 400.231904156 565 l 1
 417.12440867 584.562270524 434.7618161 603.534323704 453.031160946 621.80366855 c 2
 481.706696313 650.416716616 l 2
 587.105161291 755.821203446 729.960413192 815 879 815 c 2
641.25 6.8125 m 2
 641.25 108.185120757 l 1
 510.420592051 23.5082539215 l 1
 535.644688666 -58.5621188236 l 1
 640.964131146 6.28257988214 l 2
 641.115610938 6.3758082176 641.25 6.59614202711 641.25 6.8125 c 2
141.436321779 335.590547941 m 1
 223.44590997 310.417009927 l 1
 308.181148646 441.25 l 1
 206.811523438 441.25 l 2
 206.634874554 441.201741394 206.387609705 441.136345128 206.282434362 440.965481067 c 2
 141.436321779 335.590547941 l 1
435.675370434 122.538363882 m 0
 437.539401662 129.886685518 439.403432889 132.166579172 441.267464116 132.166579172 c 2
 445.839535816 129.118531372 l 1
 580.487870434 216.288363882 l 2
 635.968718903 252.147315502 687.457934542 293.791978292 734.207978125 340.542021875 c 2
 762.907137508 369.17866855 l 2
 803.577838496 409.855977288 835.833006561 458.139690568 857.847123067 511.312060006 c 0
 879.861046329 564.471223361 891.187502197 621.465700763 891.187500074 678.998493951 c 2
 891.187500074 690.625 l 2
 891.187500074 690.974284308 890.904201354 691.25 890.5625 691.25 c 2
 878.9375 691.25 l 2
 762.800922466 691.233007304 569.22768539 562.957118271 569.22768539 562.957118271 c 1
 564.832359793 558.5625 l 1
 564.708067188 558.5625 l 1
 540.478545313 534.332978125 l 2
 493.761652852 487.595903091 452.116079623 436.053543899 416.229067741 380.557807979 c 1024
322.47488732 235.738846996 m 1
 320.478545313 254.479521875 l 1
 321.143992649 253.814074539 321.809439984 253.148627204 322.47488732 235.738846996 c 1
765 487.5 m 0
 765 466.919222854 756.858904264 447.265805309 742.298771624 432.702032636 c 0
 727.734983622 418.135817336 708.077560276 410 687.5 410 c 0
 666.922439724 410 647.267687131 418.133146806 632.703899128 432.699362105 c 0
 618.132286612 447.26612025 609.999023438 466.922917804 609.999023438 487.5 c 0
 609.999023438 508.077082196 618.12961586 527.73120922 632.701228376 542.297967364 c 0
 647.265016378 556.864182664 666.922439724 565 687.5 565 c 0
 708.077560276 565 727.735428726 556.863737466 742.299216729 542.297522167 c 0
 756.859349368 527.733749494 765 508.080777146 765 487.5 c 0
158.567425446 67.339383654 m 0
 191.543896318 67.339383654 217.739615222 53.2253002303 235.485771767 35.4830370942 c 0
 253.240585317 17.7204329282 267.337903394 -8.40157229461 267.337903394 -41.4046665396 c 0
 267.337903394 -75.8070571832 251.983567527 -102.939713193 232.915487155 -120.792195721 c 0
 209.884046624 -143.729742597 176.979757399 -159.329427477 144.093406303 -170.796351236 c 0
 102.845331422 -185.17886869 60.9266081868 -192.896366194 37.0670380963 -196.56207119 c 0
 35.4933039336 -196.820239828 33.9033149959 -196.949171469 32.3038854958 -196.949171469 c 0
 17.8420083088 -196.949171469 7.87814735848 -187.643521149 4.31504511052 -176.515678741 c 0
 3.39167882518 -173.626602718 2.92486096184 -170.626989467 2.92486096184 -167.575491901 c 0
 2.92486096184 -165.972695256 3.0542401564 -164.382313213 3.31136439926 -162.810808601 c 0
 6.97687708202 -138.951600647 14.6945663814 -97.0276046557 29.1022732359 -55.7929756768 c 0
 40.5858136221 -22.9272653139 56.2173539624 9.95211810042 79.221132909 32.931734224 c 0
 97.0812596322 52.0002910502 124.149173311 67.339383654 158.567425446 67.339383654 c 0
EndSplineSet
EndChar

StartChar: uniF034
Encoding: 61492 61492 36
Width: 1000
Flags: H
LayerCount: 2
Fore
SplineSet
109.99851154 626.549430532 m 0
 109.99851154 662.042656175 138.607265417 688.474035234 171.829164752 688.474035234 c 0
 173.199016178 688.474035234 174.573887967 688.429060648 175.952124458 688.338352232 c 0
 557.871916551 663.200490447 863.187742151 357.881321101 888.329565553 -24.0391226743 c 0
 888.420275692 -25.4173332524 888.465246302 -26.7921048151 888.465246302 -28.1619287504 c 0
 888.465246302 -61.3850019553 862.026670451 -89.9906368614 826.543444459 -89.9906368614 c 0
 794.202755417 -89.9906368614 766.996284193 -64.8733930995 764.845240841 -32.1913719861 c 0
 743.781030145 287.840729027 487.83157314 543.791753051 167.798479167 564.856920549 c 0
 135.116923809 567.006697743 109.99851154 594.21318939 109.99851154 626.549430532 c 0
110 -12.4873046875 m 0
 110 30.3061295361 144.707792093 65.0126953125 187.5 65.0126953125 c 0
 230.292207907 65.0126953125 265 30.3061295361 265 -12.4873046875 c 0
 265 -55.2746278262 230.293454672 -89.9873046875 187.5 -89.9873046875 c 0
 144.706545328 -89.9873046875 110 -55.2746278262 110 -12.4873046875 c 0
109.995745366 312.799980445 m 0
 109.995745366 349.136919501 139.253965098 374.738629634 171.816781593 374.738629634 c 0
 174.279253059 374.738629634 176.756141408 374.592483435 179.238204709 374.295627872 c 0
 385.822446344 349.589025616 549.572466078 185.83876337 574.279053134 -20.7473711553 c 0
 574.575762327 -23.2286218179 574.721843181 -25.7047800694 574.721843181 -28.1664746956 c 0
 574.721843181 -60.7311867829 549.106435527 -89.9867213194 512.782646752 -89.9867213194 c 0
 481.868646251 -89.9867213194 455.160549021 -66.8702680388 451.405542893 -35.4715938632 c 0
 433.47291963 114.472818653 314.459800052 233.489544565 164.512771831 251.422145569 c 0
 133.115318456 255.177148351 109.995745366 281.884727689 109.995745366 312.799980445 c 0
EndSplineSet
EndChar

StartChar: uniF035
Encoding: 61493 61493 37
Width: 1000
Flags: H
LayerCount: 2
Fore
SplineSet
359.375 752.5 m 2
 640.625 752.5 l 2
 674.787643459 752.5 702.5 724.787643459 702.5 690.625 c 2
 702.5 503.125 l 2
 702.5 468.962356541 674.787643459 441.25 640.625 441.25 c 2
 359.375 441.25 l 2
 325.212356541 441.25 297.5 468.962356541 297.5 503.125 c 2
 297.5 690.625 l 2
 297.5 724.787643459 325.212356541 752.5 359.375 752.5 c 2
421.25 628.75 m 1
 421.25 565 l 1
 578.75 565 l 1
 578.75 628.75 l 1
 421.25 628.75 l 1
233.75 565.624023438 m 2
 233.75 -28.125 l 2
 233.75 -28.4803544755 234.019600573 -28.75 234.375 -28.75 c 2
 765.625 -28.75 l 2
 765.982016871 -28.75 766.25 -28.4820168713 766.25 -28.125 c 2
 766.25 565.624023438 l 2
 766.25 565.899694716 766.178335304 566.039351076 765.912222108 566.193416611 c 0
 746.050072909 577.681441381 734.99278796 598.481535763 734.99278796 619.806984213 c 0
 734.99278796 630.36050119 737.68595353 641.012678408 743.306146675 650.729138296 c 0
 754.794206593 670.588751898 775.593393164 681.645446435 796.9177757 681.645446435 c 0
 807.471262491 681.645446435 818.121549151 678.953191763 827.837695718 673.332021542 c 0
 864.898105929 651.897045548 890 611.722020134 890 565.624023438 c 2
 890 -28.125 l 2
 890 -96.8060401979 834.306040198 -152.5 765.625 -152.5 c 2
 234.375 -152.5 l 2
 165.693959802 -152.5 110 -96.8060401979 110 -28.125 c 2
 110 565.624023438 l 2
 110 611.722687641 135.105085906 651.896730546 172.158557016 673.331548638 c 0
 181.875370334 678.952369659 192.52755529 681.645446435 203.081342382 681.645446435 c 0
 224.40639114 681.645446435 245.205749401 670.588827972 256.693853324 650.729138297 c 0
 262.314674346 641.012324979 265.007751123 630.360140022 265.007751123 619.80635293 c 0
 265.007751123 598.481304172 253.94895582 577.680686934 234.089266146 566.19258301 c 0
 233.824551096 566.039514283 233.75 565.904354476 233.75 565.624023438 c 2
EndSplineSet
EndChar

StartChar: uniF036
Encoding: 61494 61494 38
Width: 1000
Flags: H
LayerCount: 2
Fore
SplineSet
110 628.125 m 2
 110 696.806040198 165.693959802 752.5 234.375 752.5 c 2
 390.625 752.5 l 2
 424.787643459 752.5 452.5 724.787643459 452.5 690.625 c 0
 452.5 656.462356541 424.787643459 628.75 390.625 628.75 c 2
 234.375 628.75 l 2
 234.021263025 628.75 233.75 628.478736975 233.75 628.125 c 2
 233.75 -28.125 l 2
 233.75 -28.4803544755 234.019600573 -28.75 234.375 -28.75 c 2
 390.625 -28.75 l 2
 424.787643459 -28.75 452.5 -56.4623565407 452.5 -90.625 c 0
 452.5 -124.787643459 424.787643459 -152.5 390.625 -152.5 c 2
 234.375 -152.5 l 2
 165.693959802 -152.5 110 -96.8060401979 110 -28.125 c 2
 110 628.125 l 2
686.873535156 96.8750000001 m 0
 686.873535156 81.0525479962 680.838469386 65.2166713255 668.748361583 53.1272084651 c 0
 656.658707499 41.0369094278 640.821757014 35.0014648438 624.999023438 35.0014648438 c 0
 609.176289862 35.0014648438 593.339675771 41.0365730256 581.250021688 53.1268720632 c 2
 378.124970313 256.249970313 l 2
 366.035055035 268.33988559 360.000244141 284.177211395 360.000244141 300 c 0
 360.000244141 315.822788605 366.035055035 331.66011441 378.124970313 343.750029687 c 2
 581.249970313 546.875029687 l 2
 593.339694375 558.964753749 609.17651643 564.999755859 624.999023438 564.999755859 c 0
 640.821530445 564.999755859 656.658067473 558.965038769 668.747791535 546.875314707 c 0
 680.838281798 534.785469408 686.873535156 518.948015161 686.873535156 503.125 c 0
 686.873535156 487.301984839 680.838651595 471.464900382 668.748161332 459.375055083 c 2
 571.249653145 361.875 l 1
 890.625 361.875 l 2
 924.787366392 361.875 952.5 334.163675959 952.5 300 c 0
 952.5 265.837356541 924.787643459 238.125 890.625 238.125 c 2
 571.249246925 238.125 l 1
 668.747791536 140.623361583 l 2
 680.837899339 128.533898722 686.873535156 112.697452004 686.873535156 96.8750000001 c 0
EndSplineSet
EndChar

StartChar: uniF037
Encoding: 61495 61495 39
Width: 1000
Flags: H
LayerCount: 2
Fore
SplineSet
108.75 -90.625 m 2
 108.75 -90.9803544755 109.019600573 -91.25 109.375 -91.25 c 2
 235 -91.25 l 1
 235 -28.125 l 2
 235 6.0376434593 262.712356541 33.75 296.875 33.75 c 2
 453.125 33.75 l 2
 487.287643459 33.75 515 6.0376434593 515 -28.125 c 2
 515 -91.25 l 1
 640.625 -91.25 l 2
 640.982016871 -91.25 641.25 -90.9820168713 641.25 -90.625 c 2
 641.25 690.625 l 2
 641.25 690.980399427 640.980354476 691.25 640.625 691.25 c 2
 109.375 691.25 l 2
 109.021263025 691.25 108.75 690.978736975 108.75 690.625 c 2
 108.75 -90.625 l 2
109.375 -215 m 2
 40.6939598021 -215 -15 -159.306040198 -15 -90.625 c 2
 -15 690.625 l 2
 -15 759.306040198 40.6939598021 815 109.375 815 c 2
 640.625 815 l 2
 709.306040198 815 765 759.306040198 765 690.625 c 2
 765 -91.255859375 l 1
 890.625 -91.255859375 l 2
 890.982848132 -91.255859375 891.25 -90.9886849496 891.25 -90.630859375 c 2
 891.25 282.170898438 l 2
 891.25 282.373668753 891.120759153 282.593982797 890.988682297 282.682113217 c 2
 825.070175032 326.627133701 l 2
 807.150166041 338.572723303 797.495317421 358.207272397 797.495317421 378.160644335 c 0
 797.495317421 389.985742949 800.869560333 401.905008743 807.884335186 412.425978601 c 0
 819.8282322 430.346292624 839.464734613 439.999878189 859.417778962 439.999878189 c 0
 871.241418517 439.999878189 883.160832436 436.625898794 893.680391356 429.611746535 c 2
 959.598459798 385.666042013 l 2
 994.24709874 362.570285154 1015 323.757834776 1015 282.170898438 c 2
 1015 -90.630859375 l 2
 1015 -159.311899573 959.306040198 -215.005859375 890.625 -215.005859375 c 2
 671.875 -215.005859375 l 2
 667.452502668 -215.005859375 663.135063799 -214.541787443 658.968842727 -213.657617014 c 0
 652.979820956 -214.544024067 646.853856153 -215 640.625 -215 c 2
 453.125 -215 l 2
 418.962356541 -215 391.25 -187.287643459 391.25 -153.125 c 2
 391.25 -90 l 1
 358.75 -90 l 1
 358.75 -153.125 l 2
 358.75 -187.287643459 331.037643459 -215 296.875 -215 c 2
 109.375 -215 l 2
172.5 565.625 m 0
 172.5 599.787643459 200.212356541 627.5 234.375 627.5 c 2
 265.625 627.5 l 2
 299.787643459 627.5 327.5 599.787643459 327.5 565.625 c 0
 327.5 531.462356541 299.787643459 503.75 265.625 503.75 c 2
 234.375 503.75 l 2
 200.212356541 503.75 172.5 531.462356541 172.5 565.625 c 0
234.375 440 m 2
 265.625 440 l 2
 299.787643459 440 327.5 412.287643459 327.5 378.125 c 0
 327.5 343.962356541 299.787643459 316.25 265.625 316.25 c 2
 234.375 316.25 l 2
 200.212356541 316.25 172.5 343.962356541 172.5 378.125 c 0
 172.5 412.287643459 200.212356541 440 234.375 440 c 2
172.5 190.625 m 0
 172.5 224.787643459 200.212356541 252.5 234.375 252.5 c 2
 265.625 252.5 l 2
 299.787643459 252.5 327.5 224.787643459 327.5 190.625 c 0
 327.5 156.462356541 299.787643459 128.75 265.625 128.75 c 2
 234.375 128.75 l 2
 200.212356541 128.75 172.5 156.462356541 172.5 190.625 c 0
484.375 252.5 m 2
 515.625 252.5 l 2
 549.787643459 252.5 577.5 224.787643459 577.5 190.625 c 0
 577.5 156.462356541 549.787643459 128.75 515.625 128.75 c 2
 484.375 128.75 l 2
 450.212356541 128.75 422.5 156.462356541 422.5 190.625 c 0
 422.5 224.787643459 450.212356541 252.5 484.375 252.5 c 2
422.5 378.125 m 0
 422.5 412.287643459 450.212356541 440 484.375 440 c 2
 515.625 440 l 2
 549.787643459 440 577.5 412.287643459 577.5 378.125 c 0
 577.5 343.962356541 549.787643459 316.25 515.625 316.25 c 2
 484.375 316.25 l 2
 450.212356541 316.25 422.5 343.962356541 422.5 378.125 c 0
484.375 627.5 m 2
 515.625 627.5 l 2
 549.787643459 627.5 577.5 599.787643459 577.5 565.625 c 0
 577.5 531.462356541 549.787643459 503.75 515.625 503.75 c 2
 484.375 503.75 l 2
 450.212356541 503.75 422.5 531.462356541 422.5 565.625 c 0
 422.5 599.787643459 450.212356541 627.5 484.375 627.5 c 2
EndSplineSet
EndChar

StartChar: uniF038
Encoding: 61496 61496 40
Width: 1000
Flags: H
LayerCount: 2
Fore
SplineSet
234.375 815 m 2
 765.625 815 l 2
 834.306040198 815 890 759.306040198 890 690.625 c 2
 890 -90.625 l 2
 890 -159.306040198 834.306040198 -215 765.625 -215 c 2
 234.375 -215 l 2
 165.693959802 -215 110 -159.306040198 110 -90.625 c 2
 110 690.625 l 2
 110 759.306040198 165.693959802 815 234.375 815 c 2
233.75 690.625 m 2
 233.75 -90.625 l 2
 233.75 -90.9803544755 234.019600573 -91.25 234.375 -91.25 c 2
 765.625 -91.25 l 2
 765.982016871 -91.25 766.25 -90.9820168713 766.25 -90.625 c 2
 766.25 690.625 l 2
 766.25 690.980399427 765.980354476 691.25 765.625 691.25 c 2
 234.375 691.25 l 2
 234.021263025 691.25 233.75 690.978736975 233.75 690.625 c 2
500 -27.5 m 0
 457.207792093 -27.5 422.5 7.20656577636 422.5 50 c 0
 422.5 92.7934342236 457.207792093 127.5 500 127.5 c 0
 542.792207907 127.5 577.5 92.7934342236 577.5 50 c 0
 577.5 7.20656577636 542.792207907 -27.5 500 -27.5 c 0
EndSplineSet
EndChar

StartChar: uniF039
Encoding: 61497 61497 41
Width: 1000
Flags: H
LayerCount: 2
Fore
SplineSet
711.683847139 596.985276277 m 0
 711.683847139 581.52927522 699.461145337 566.249023438 681.025390625 566.249023438 c 2
 561.875 566.249023438 l 1
 561.875 471.875 l 2
 561.875 437.712356541 534.162643459 410 500 410 c 0
 465.837356541 410 438.125 437.712356541 438.125 471.875 c 2
 438.125 566.249023438 l 1
 318.971679688 566.249023438 l 2
 300.535576435 566.249023438 288.315222373 581.531768394 288.315222373 596.986443754 c 0
 288.315222373 604.594064636 291.260046544 612.468113731 297.318329687 618.526396875 c 2
 478.34665 799.554717187 l 2
 484.334765117 805.542832304 492.174552596 808.526367187 499.999511719 808.526367187 c 0
 507.824470841 808.526367187 515.664287142 805.542803482 521.65240226 799.554688364 c 2
 702.679187097 618.526926939 l 2
 708.738191902 612.468523225 711.683847139 604.593934171 711.683847139 596.985276277 c 0
438.125 65 m 1
 438.125 159.375 l 2
 438.125 193.537643459 465.837356541 221.25 500 221.25 c 0
 534.162643459 221.25 561.875 193.537643459 561.875 159.375 c 2
 561.875 65 l 1
 681.03125 65 l 2
 699.46721109 65 711.684045365 49.7157833124 711.684045365 34.2635096317 c 0
 711.684045365 26.6549709758 708.738901403 18.7798576535 702.679688364 12.7206446146 c 2
 521.651639309 -168.306427604 l 2
 515.663104518 -174.293045452 507.824088163 -177.274902344 500.000488281 -177.274902344 c 0
 492.1768884 -177.274902344 484.336247823 -174.291421503 478.347713032 -168.304803655 c 2
 297.318776185 12.7212035285 l 2
 291.260739511 18.7798412583 288.316198936 26.6539435513 288.316198936 34.2615409305 c 0
 288.316198936 49.7159708244 300.535765428 65 318.97265625 65 c 2
 438.125 65 l 1
171.875 377.5 m 2
 828.125 377.5 l 2
 862.287643459 377.5 890 349.787643459 890 315.625 c 0
 890 281.462356541 862.287643459 253.75 828.125 253.75 c 2
 171.875 253.75 l 2
 137.712356541 253.75 110 281.462356541 110 315.625 c 0
 110 349.787643459 137.712356541 377.5 171.875 377.5 c 2
EndSplineSet
EndChar

StartChar: uniF03A
Encoding: 61498 61498 42
Width: 1000
Flags: H
LayerCount: 2
Fore
SplineSet
111.168568285 251.960270193 m 0
 111.168568285 285.814736182 139.190316434 313.831495106 173.044084463 313.831495106 c 0
 188.601219235 313.831495106 204.557095407 307.901948343 215.604521875 296.854521875 c 0
 265.201507292 247.257536458 314.798492708 197.660551042 364.395478125 126.854521875 c 0
 365.838570774 125.411429226 367.281663423 123.968336577 368.724756072 123.968336577 c 2
 375.000000034 137.459043716 l 1
 784.400826241 546.859867316 l 2
 796.031855831 558.47926329 811.701537082 564.958984375 828.125 564.958984375 c 0
 844.543144536 564.958984375 860.230076037 558.467325892 871.862836309 546.846200967 c 0
 883.476716937 535.214226156 889.956054688 519.546255756 889.956054688 503.125 c 0
 889.956054688 486.703744244 883.468402503 471.027452936 871.854521875 459.395478125 c 2
 418.721200967 6.26216369101 l 2
 407.089226156 -5.35171693698 391.421255755 -11.8310546875 375 -11.8310546875 c 0
 358.578744245 -11.8310546875 342.902452936 -5.34340250299 331.270478125 6.270478125 c 0
 263.440769421 74.1089252072 195.593536801 141.929848373 127.774905304 209.779372662 c 0
 117.066135437 221.272450357 111.168568285 236.290163483 111.168568285 251.960270193 c 0
EndSplineSet
EndChar

StartChar: uniF03B
Encoding: 61499 61499 43
Width: 1000
Flags: H
LayerCount: 2
Fore
SplineSet
109.375 690 m 2
 890.625 690 l 2
 959.306040198 690 1015 634.306040198 1015 565.625 c 2
 1015 519.7879206 l 2
 1015.00634736 519.456653521 1015.00952148 519.125212653 1015.00952148 518.793579102 c 0
 1015.00952148 518.46208908 1015 518.130820383 1015 517.799754441 c 2
 1015 34.375 l 2
 1015 -34.3060401979 959.306040198 -90 890.625 -90 c 2
 109.375 -90 l 2
 40.6939598021 -90 -15 -34.3060401979 -15 34.375 c 2
 -15 517.82565914 l 2
 -15.0048831203 518.148129546 -15.0073242188 518.470816055 -15.0073242188 518.793701172 c 0
 -15.0073242188 519.116818975 -15 519.439876529 -15 519.762858993 c 2
 -15 565.625 l 2
 -15 634.306040198 40.6939598021 690 109.375 690 c 2
891.25 565.625 m 2
 891.25 565.980399427 890.980354476 566.25 890.625 566.25 c 2
 109.375 566.25 l 2
 109.021263025 566.25 108.75 565.978736975 108.75 565.625 c 2
 108.75 554.200791515 l 1
 500 324.848348607 l 1
 891.25 554.200791515 l 1
 891.25 565.625 l 2
500 191.250732422 m 0
 489.153338426 191.250732422 478.381812224 194.075704033 468.72477611 199.736192082 c 2
 108.75 410.755983472 l 1
 108.75 34.375 l 2
 108.75 34.0196455245 109.019600573 33.75 109.375 33.75 c 2
 890.625 33.75 l 2
 890.982016871 33.75 891.25 34.0179831287 891.25 34.375 c 2
 891.25 410.755983471 l 1
 531.275758082 199.736505214 l 2
 521.618721968 194.076017165 510.846661574 191.250732422 500 191.250732422 c 0
EndSplineSet
EndChar

StartChar: uniF03D
Encoding: 61501 61501 44
Width: 1000
Flags: H
LayerCount: 2
Fore
SplineSet
188.125244141 346.875 m 0
 188.125244141 362.697788605 194.160055035 378.53511441 206.249970313 390.625029687 c 2
 471.874970313 656.250029687 l 2
 483.96488559 668.339944965 499.802211395 674.374755859 515.625 674.374755859 c 0
 531.447788605 674.374755859 547.285153696 668.339905679 559.375068973 656.249990401 c 2
 824.997791535 390.625314707 l 2
 837.088281798 378.535469408 843.123535156 362.698015161 843.123535156 346.875 c 0
 843.123535156 331.051984839 837.088566826 315.214815612 824.998076563 303.124970313 c 0
 812.908543724 291.035437474 797.072225425 285.000244141 781.25 285.000244141 c 0
 765.427774575 285.000244141 749.5915125 291.035381251 737.501979661 303.12491409 c 2
 577.5 463.125210059 l 1
 577.5 34.375 l 2
 577.5 0.212356540696 549.787643459 -27.5 515.625 -27.5 c 0
 481.462356541 -27.5 453.75 0.212356540696 453.75 34.375 c 2
 453.75 463.124940625 l 1
 293.750029687 303.124970313 l 2
 281.66011441 291.035055035 265.822788605 285.000244141 250 285.000244141 c 0
 234.177211395 285.000244141 218.33988559 291.035055035 206.249970313 303.124970313 c 0
 194.160055035 315.21488559 188.125244141 331.052211395 188.125244141 346.875 c 0
EndSplineSet
EndChar

StartChar: uniF03E
Encoding: 61502 61502 45
Width: 1000
Flags: H
LayerCount: 2
Fore
SplineSet
546.875 643.124755859 m 0
 562.697788605 643.124755859 578.535153696 637.089905679 590.625068973 624.999990401 c 2
 856.247791535 359.375314707 l 2
 868.338281798 347.285469408 874.373535156 331.448015161 874.373535156 315.625 c 0
 874.373535156 299.801984839 868.338566826 283.964815612 856.248076563 271.874970313 c 2
 590.625314707 6.25220846544 l 2
 578.535469408 -5.83828179804 562.698015161 -11.8735351562 546.875 -11.8735351562 c 0
 531.051984839 -11.8735351562 515.214815613 -5.83856682616 503.124970313 6.25192343732 c 0
 491.035437474 18.3414562763 485.000244141 34.1777745755 485.000244141 50 c 0
 485.000244141 65.8222254245 491.035296915 81.6584031628 503.124829754 93.7479360018 c 2
 663.122684523 253.75 l 1
 234.375 253.75 l 2
 200.212356541 253.75 172.5 281.462356541 172.5 315.625 c 0
 172.5 349.787643459 200.212356541 377.5 234.375 377.5 c 2
 663.122415094 377.5 l 1
 503.124970313 537.499970313 l 2
 491.035055035 549.58988559 485.000244141 565.427211395 485.000244141 581.25 c 0
 485.000244141 597.072788605 491.035055035 612.91011441 503.124970313 625.000029687 c 0
 515.21488559 637.089944965 531.052211395 643.124755859 546.875 643.124755859 c 0
EndSplineSet
EndChar

StartChar: uniF03F
Encoding: 61503 61503 46
Width: 1000
Flags: H
LayerCount: 2
Fore
SplineSet
843.123535156 253.125 m 0
 843.123535156 237.301984839 837.088566826 221.464815612 824.998076563 209.374970313 c 2
 559.375314707 -56.2477915346 l 2
 547.285469408 -68.338281798 531.448015161 -74.3735351562 515.625 -74.3735351562 c 0
 499.801984839 -74.3735351562 483.964854899 -68.3386061122 471.875009599 -56.2481158487 c 2
 206.249970313 209.374970313 l 2
 194.160055035 221.46488559 188.125244141 237.302211395 188.125244141 253.125 c 0
 188.125244141 268.947788605 194.160055035 284.78511441 206.249970313 296.875029687 c 0
 218.33988559 308.964944965 234.177211395 314.999755859 250 314.999755859 c 0
 265.822788605 314.999755859 281.660030073 308.965029301 293.74994535 296.875114023 c 2
 453.75 136.877584906 l 1
 453.75 565.625 l 2
 453.75 599.787643459 481.462356541 627.5 515.625 627.5 c 0
 549.787643459 627.5 577.5 599.787643459 577.5 565.625 c 2
 577.5 136.877315477 l 1
 737.501923437 296.875029687 l 2
 749.591456276 308.964562526 765.427774575 314.999755859 781.25 314.999755859 c 0
 797.072225425 314.999755859 812.908258696 308.964847546 824.997791535 296.875314707 c 0
 837.088281798 284.785469408 843.123535156 268.948015161 843.123535156 253.125 c 0
EndSplineSet
EndChar

StartChar: uniF040
Encoding: 61504 61504 47
Width: 1000
Flags: H
LayerCount: 2
Fore
SplineSet
453.125 -11.8735351562 m 0
 437.301984839 -11.8735351562 421.464854899 -5.8386061122 409.375009599 6.25188415128 c 2
 143.749970313 271.874970313 l 2
 131.660055035 283.96488559 125.625244141 299.802211395 125.625244141 315.625 c 0
 125.625244141 331.447788605 131.660055035 347.28511441 143.749970313 359.375029687 c 2
 409.374970313 625.000029687 l 2
 421.46488559 637.089944965 437.302211395 643.124755859 453.125 643.124755859 c 0
 468.947788605 643.124755859 484.78511441 637.089944965 496.875029687 625.000029687 c 0
 508.964944965 612.91011441 514.999755859 597.072788605 514.999755859 581.25 c 0
 514.999755859 565.427211395 508.964944965 549.58988559 496.875029687 537.499970313 c 2
 336.875059375 377.5 l 1
 765.625 377.5 l 2
 799.787643459 377.5 827.5 349.787643459 827.5 315.625 c 0
 827.5 281.462356541 799.787643459 253.75 765.625 253.75 c 2
 336.87478994 253.75 l 1
 496.875029687 93.7480765627 l 2
 508.964562526 81.6585437237 514.999755859 65.8222254245 514.999755859 50 c 0
 514.999755859 34.1777745755 508.964847547 18.3417413044 496.875314707 6.25220846544 c 0
 484.785469408 -5.83828179804 468.948015161 -11.8735351562 453.125 -11.8735351562 c 0
EndSplineSet
EndChar

StartChar: uniF041
Encoding: 61505 61505 48
Width: 1000
Flags: H
LayerCount: 2
Fore
SplineSet
355.574147622 801.198213453 m 0
 401.589907081 801.198213453 447.148120911 775.710190254 468.749356181 728.907844585 c 2
 507.041399839 645.942889316 l 2
 515.824117743 626.913517042 527.895795383 609.605163898 542.699248437 594.800810937 c 0
 565.918425977 571.581633398 595.150086773 555.238121405 627.149246107 547.619359783 c 2
 780.531712367 511.098934406 l 2
 840.744628094 496.76373683 876.171423399 443.720497525 876.171423399 389.635770075 c 0
 876.171423399 358.636601854 864.561977222 327.061114056 839.661276122 302.161216748 c 2
 712.502720398 174.999956847 l 1
 934.372791535 -46.8766384176 l 2
 946.462899338 -58.9661012779 952.498535156 -74.8025479962 952.498535156 -90.6250000001 c 0
 952.498535156 -106.447452004 946.463469386 -122.283328675 934.373361583 -134.372791536 c 0
 922.283898722 -146.462899339 906.447452004 -152.498535156 890.625 -152.498535156 c 0
 874.802547996 -152.498535156 858.966543405 -146.463341471 846.877080545 -134.373233668 c 2
 625.000080738 87.4972420177 l 1
 497.839959672 -39.6610762644 l 2
 472.939746411 -64.5616914205 441.363926105 -76.1714233993 410.364728183 -76.1714233993 c 0
 356.279912483 -76.1714233993 303.237003204 -40.744769462 288.901143083 19.4679621679 c 2
 252.380636529 172.851745944 l 2
 244.761891768 204.849933158 228.418698358 234.081242276 205.199513856 257.30042678 c 0
 190.395163072 272.103877657 173.086193041 284.175981136 154.055961894 292.958679651 c 2
 71.0921897929 331.250627953 l 2
 24.2898441241 352.851863222 -1.19821345317 398.410092919 -1.19821345317 444.425852378 c 0
 -1.19821345317 475.725895085 10.5678169267 507.442428261 35.254853125 532.1299125 c 2
 267.870184467 764.745243841 l 2
 292.557668706 789.43228004 324.274104915 801.198213453 355.574147622 801.198213453 c 0
355.779668875 677.428641516 m 0
 355.614284705 677.428641516 355.539890441 677.413876025 355.37082562 677.244789726 c 2
 122.755889063 444.629853125 l 2
 122.586802763 444.460788305 122.571358484 444.385715295 122.571358484 444.220331125 c 0
 122.571358484 443.855107751 122.680171901 443.739496393 122.925096764 443.62645974 c 2
 205.889350606 405.334289099 l 2
 238.157643902 390.441309689 267.552928599 369.947079203 292.70000655 344.801029383 c 0
 332.150563888 305.34944383 359.857236102 255.750559182 372.767758172 201.530269741 c 2
 409.288319935 48.1443009706 l 2
 409.37435626 47.7828534362 409.483199345 47.6436288438 409.961982097 47.6436288438 c 0
 410.097584853 47.6436288438 410.146499156 47.6436288438 410.3388375 47.8359671872 c 2
 752.164032813 389.6611625 l 2
 752.336270289 389.833399976 752.36951675 389.88505958 752.36951675 389.930739612 c 0
 752.36951675 389.959463537 752.356371156 389.985823149 752.356371156 390.038310936 c 0
 752.356371156 390.517907591 752.217430448 390.626552701 751.856564686 390.712450546 c 2
 598.470044094 427.232167103 l 2
 544.250684824 440.142712271 494.649956336 467.84998429 455.199189063 507.300751563 c 0
 430.052006246 532.447934379 409.558623664 561.842551391 394.665713356 594.109667513 c 2
 356.373690693 677.07457729 l 2
 356.260654041 677.319502153 356.144892249 677.428641516 355.779668875 677.428641516 c 0
EndSplineSet
EndChar

StartChar: uniF042
Encoding: 61506 61506 49
Width: 1000
Flags: H
LayerCount: 2
Fore
SplineSet
296.875 691.25 m 0
 262.002310306 691.25 233.75 662.997689694 233.75 628.125 c 0
 233.75 593.252310306 262.002310306 565 296.875 565 c 2
 420.838789161 565 l 1
 407.634984702 604.489990079 391.493131725 632.951184116 374.892684287 652.318630069 c 0
 350.490898928 680.787231888 324.801189922 691.25 296.875 691.25 c 0
110 628.125 m 0
 110 731.323635554 193.676364446 815 296.875 815 c 0
 362.866272202 815 422.859732399 786.502673674 468.857081728 732.837892911 c 0
 480.150488023 719.6627121 490.526910938 705.100063877 499.999989117 689.217025783 c 1
 509.472971301 705.0999351 519.849253112 719.662410091 531.142639619 732.837567818 c 0
 577.139932459 786.502282676 637.132766581 815 703.125 815 c 0
 806.324627373 815 890 731.32355999 890 628.125 c 0
 890 605.974539865 886.146824352 584.720932745 879.068292112 565 c 1
 890.625 565 l 2
 959.306040198 565 1015 509.306040198 1015 440.625 c 2
 1015 315.625 l 2
 1015 269.47242499 989.848287538 229.175534835 952.5 207.711702307 c 1
 952.5 -90.625 l 2
 952.5 -159.306040198 896.806040198 -215 828.125 -215 c 2
 171.875 -215 l 2
 103.193959802 -215 47.5 -159.306040198 47.5 -90.625 c 2
 47.5 207.711501362 l 1
 10.1499371283 229.175439343 -15 269.472769042 -15 315.625 c 2
 -15 440.625 l 2
 -15 509.306040198 40.6939598021 565 109.375 565 c 2
 120.931479822 565 l 1
 113.855060261 584.719874023 110 605.973290933 110 628.125 c 0
703.125 565 m 2
 738.000518689 565 766.25 593.251811578 766.25 628.125 c 0
 766.25 662.998188422 738.000518689 691.25 703.125 691.25 c 0
 675.199910804 691.25 649.509925832 680.787159741 625.107049584 652.318319589 c 0
 608.506604277 632.950876122 592.364952947 604.489919808 579.161202888 565 c 1
 703.125 565 l 2
438.125 315 m 1
 438.125 441.25 l 1
 109.375 441.25 l 2
 109.021263025 441.25 108.75 440.978736975 108.75 440.625 c 2
 108.75 315.625 l 2
 108.75 315.271263025 109.021263025 315 109.375 315 c 2
 438.125 315 l 1
561.875 315 m 1
 890.625 315 l 2
 890.980354476 315 891.25 315.269600573 891.25 315.625 c 2
 891.25 440.625 l 2
 891.25 440.980399427 890.980354476 441.25 890.625 441.25 c 2
 561.875 441.25 l 1
 561.875 315 l 1
828.75 191.25 m 1
 561.875 191.25 l 1
 561.875 -91.25 l 1
 828.125 -91.25 l 2
 828.482016871 -91.25 828.75 -90.9820168713 828.75 -90.625 c 2
 828.75 191.25 l 1
438.125 -91.25 m 1
 438.125 191.25 l 1
 171.25 191.25 l 1
 171.25 -90.625 l 2
 171.25 -90.9803544755 171.519600573 -91.25 171.875 -91.25 c 2
 438.125 -91.25 l 1
EndSplineSet
EndChar

StartChar: uniF043
Encoding: 61507 61507 50
Width: 1000
Flags: H
LayerCount: 2
Fore
SplineSet
1015 -90.625 m 0
 1015 -124.787643459 987.287643459 -152.5 953.125 -152.5 c 2
 46.875 -152.5 l 2
 12.7113240413 -152.5 -15 -124.787366392 -15 -90.625 c 2
 -15 690.625 l 2
 -15 724.787366392 12.7113240413 752.5 46.875 752.5 c 0
 81.0376434593 752.5 108.75 724.787643459 108.75 690.625 c 2
 108.75 -28.75 l 1
 953.125 -28.75 l 2
 987.287643459 -28.75 1015 -56.4623565407 1015 -90.625 c 0
625 175.625 m 0
 608.566049329 175.625 592.884609334 182.114038696 581.249970313 193.749970313 c 2
 437.5 337.499940625 l 1
 278.124744644 178.124685278 l 2
 266.034759399 166.035345004 250.197562052 160.000976563 234.375 160.000976563 c 0
 218.552437948 160.000976563 202.714955558 166.035630039 190.624970313 178.124970313 c 0
 178.535055035 190.21488559 172.500244141 206.052211395 172.500244141 221.875 c 0
 172.500244141 237.697788605 178.535055035 253.53511441 190.624970313 265.625029687 c 2
 393.749970313 468.750029687 l 2
 405.83988559 480.839944965 421.677211395 486.874755859 437.5 486.874755859 c 0
 453.322788605 486.874755859 469.16011441 480.839944965 481.250029687 468.750029687 c 2
 625.000035107 325.000024268 l 1
 909.376923437 609.375029687 l 2
 921.466456276 621.464562526 937.302774575 627.499755859 953.125 627.499755859 c 0
 968.947225425 627.499755859 984.783258697 621.464847546 996.872791536 609.375314706 c 0
 1008.9632818 597.285469407 1014.99853515 581.448015161 1014.99853515 565.625 c 0
 1014.99853515 549.801984839 1008.96356682 533.964815613 996.873076563 521.874970313 c 2
 668.750450929 193.752345207 l 2
 657.117231998 182.113954807 641.433523164 175.625 625 175.625 c 0
EndSplineSet
EndChar

StartChar: uniF045
Encoding: 61509 61509 51
Width: 1000
Flags: H
LayerCount: 2
Fore
SplineSet
671.875 252.5 m 2
 765.625 252.5 l 2
 799.787643459 252.5 827.5 224.787643459 827.5 190.625 c 0
 827.5 156.462356541 799.787643459 128.75 765.625 128.75 c 2
 671.875 128.75 l 2
 637.712356541 128.75 610 156.462356541 610 190.625 c 0
 610 224.787643459 637.712356541 252.5 671.875 252.5 c 2
-15 565.625 m 2
 -15 634.306040198 40.6939598021 690 109.375 690 c 2
 890.625 690 l 2
 959.306040198 690 1015 634.306040198 1015 565.625 c 2
 1015 34.375 l 2
 1015 -34.3060401979 959.306040198 -90 890.625 -90 c 2
 109.375 -90 l 2
 40.6939598021 -90 -15 -34.3060401979 -15 34.375 c 2
 -15 565.625 l 2
891.25 565.625 m 2
 891.25 565.980399427 890.980354476 566.25 890.625 566.25 c 2
 109.375 566.25 l 2
 109.021263025 566.25 108.75 565.978736975 108.75 565.625 c 2
 108.75 502.5 l 1
 891.25 502.5 l 1
 891.25 565.625 l 2
109.375 33.75 m 2
 890.625 33.75 l 2
 890.982016871 33.75 891.25 34.0179831287 891.25 34.375 c 2
 891.25 378.75 l 1
 108.75 378.75 l 1
 108.75 34.375 l 2
 108.75 34.0196455245 109.019600573 33.75 109.375 33.75 c 2
EndSplineSet
EndChar

StartChar: uniF046
Encoding: 61510 61510 52
Width: 1000
Flags: H
LayerCount: 2
Fore
SplineSet
108.75 300 m 0
 108.75 196.258377727 149.999179852 96.6854498359 223.342803125 23.3418265625 c 0
 296.685346603 -50.0016570235 396.25827059 -91.25 500 -91.25 c 0
 603.741719219 -91.25 703.31460845 -50.001738425 776.658173437 23.3418265625 c 0
 850.001738424 96.68539155 891.25 196.258280781 891.25 300 c 0
 891.25 403.74172941 850.001725509 503.314584912 776.658241923 576.65712839 c 0
 703.314618649 650.000751663 603.741622273 691.25 500 691.25 c 0
 396.258367536 691.25 296.685473374 650.000807233 223.34287161 576.657265361 c 0
 149.999329738 503.314663597 108.75 403.741632464 108.75 300 c 0
500 815 m 0
 636.609011643 815 767.548026906 760.769385652 864.161496375 664.156922365 c 0
 960.76669951 567.545682159 1015 436.611187324 1015 300 c 0
 1015 163.390762773 960.765906187 32.4516306316 864.160717322 -64.1616076596 c 0
 767.547479031 -160.766796525 636.609237227 -215 500 -215 c 0
 363.388812676 -215 232.453928312 -160.766309991 135.842688106 -64.1611068558 c 0
 39.2302248178 32.4523626132 -15 163.390988357 -15 300 c 0
 -15 436.610961742 39.2302105448 567.545729225 135.842688106 664.157200605 c 0
 232.454159485 760.769678165 363.389038258 815 500 815 c 0
701.140845206 222.405413209 m 0
 701.140845206 214.571110315 699.667480623 206.796108746 696.720825452 199.430106694 c 0
 690.755309019 184.513096579 679.157076328 172.452193751 664.483899392 165.900012302 c 0
 656.482451997 162.327736892 647.915180484 160.530381078 639.263232535 160.530381078 c 0
 631.975764207 160.530381078 624.718245989 161.842598724 617.833926986 164.358271383 c 2
 461.366256314 226.945343136 l 2
 440.536102762 235.293323308 422.505794138 256.603694232 422.5 284.375 c 2
 422.5 503.125 l 2
 422.5 519.558950671 428.988445153 535.23979709 440.62437677 546.874436111 c 0
 452.259015791 558.510367728 467.941049329 565 484.375 565 c 0
 500.808950671 565 516.48979709 558.511554847 528.124436111 546.87562323 c 0
 539.760367728 535.240984209 546.25 519.558950671 546.25 503.125 c 2
 546.25 326.279435722 l 1
 585.492657025 310.562057393 624.749157023 294.858522037 663.983077107 279.132406767 c 0
 678.711817692 272.711360989 690.415819817 260.754701257 696.514697372 245.891262757 c 0
 699.597016168 238.37876152 701.140845206 230.423812803 701.140845206 222.405413209 c 0
EndSplineSet
EndChar

StartChar: uniF048
Encoding: 61512 61512 53
Width: 1000
Flags: H
LayerCount: 2
Fore
SplineSet
233.750051595 674.992874874 m 0
 233.750051595 659.666525544 228.089258743 644.306846264 216.673806254 632.324554071 c 0
 149.759899634 562.086019071 108.75 467.14112882 108.75 362.499023438 c 0
 108.75 265.071574061 144.291349084 176.081387445 203.173048358 107.589842733 c 0
 207.548875064 102.500709221 212.052889077 97.5218378515 216.673387812 92.6739320196 c 0
 228.089661501 80.6914021657 233.750162403 65.3303059786 233.750162403 50.0033501954 c 0
 233.750162403 33.6815358102 227.327366663 17.3674695508 214.550301659 5.19617349351 c 0
 202.567808088 -6.21884656296 187.20793468 -11.8793135319 171.881736152 -11.8793135319 c 0
 155.560651908 -11.8793135319 139.245382529 -5.45381689479 127.074059036 7.32191249031 c 0
 124.442628012 10.0852197298 121.841796421 12.8774338758 119.272044592 15.697904422 c 1
 119.107996793 15.5568825358 l 1
 112.590273118 23.1385725462 106.072336033 30.720448458 99.5545053443 38.3021351642 c 1
 99.719277698 38.4437799058 l 1
 28.0029044925 126.929942312 -15 239.746956372 -15 362.499023438 c 0
 -15 500.168825827 39.082331443 625.310840386 127.075785125 717.674040427 c 0
 139.247081307 730.451072433 155.560481621 736.875051595 171.881991053 736.875051595 c 0
 187.208244707 736.875051595 202.567125669 731.214902536 214.549040427 719.799214875 c 0
 227.326079818 707.627911658 233.750051595 691.314484248 233.750051595 674.992874874 c 0
828.117483619 736.873477424 m 0
 844.438604991 736.873477424 860.751336657 730.450065801 872.922704424 717.673624295 c 0
 960.916076625 625.310509782 1015 500.168919461 1015 362.499023438 c 0
 1015 224.829209936 960.916775441 99.6851940907 872.922967132 7.32665146575 c 0
 860.751608111 -5.44978085913 844.43822079 -11.8756081829 828.115307188 -11.8756081829 c 0
 812.789992517 -11.8756081829 797.432826426 -6.21607119088 785.451651465 5.20203286851 c 0
 772.675390978 17.3732281905 766.251656652 33.6859907913 766.251656652 50.0070055087 c 0
 766.251656652 65.33273878 771.912385317 80.6918702559 783.32731317 92.673642763 c 0
 850.241894361 162.910958151 891.25 257.856697108 891.25 362.499023438 c 0
 891.25 467.140316441 850.241743318 562.085330227 783.327032868 632.323721778 c 0
 771.91215874 644.306062168 766.251656652 659.665760477 766.251656652 674.991948158 c 0
 766.251656652 691.313441177 772.675451625 707.627140511 785.451665618 719.798957176 c 0
 797.433321788 731.213149924 812.792087307 736.873477424 828.117483619 736.873477424 c 0
375.625 362.5 m 0
 375.625 431.181040198 431.318959802 486.875 500 486.875 c 0
 568.681040198 486.875 624.375 431.181040198 624.375 362.5 c 0
 624.375 316.347769042 599.225062872 276.050439343 561.875 254.586501362 c 1
 561.875 -90.625 l 2
 561.875 -124.787643459 534.162643459 -152.5 500 -152.5 c 0
 465.837356541 -152.5 438.125 -124.787643459 438.125 -90.625 c 2
 438.125 254.586501362 l 1
 400.774937128 276.050439343 375.625 316.347769042 375.625 362.5 c 0
296.25 362.499023438 m 0
 296.25 312.421635118 314.244792473 266.693062967 344.173626259 231.213800838 c 0
 353.963191285 219.608701901 358.750864794 205.444658694 358.750864794 191.349104624 c 0
 358.750864794 173.77540359 351.295178 156.285926114 336.762961689 144.030755985 c 0
 325.157003667 134.239893505 310.991714655 129.451119376 296.894508259 129.451119376 c 0
 279.322392766 129.451119376 261.83274663 136.907915639 249.576180474 151.436818902 c 0
 201.506451601 208.423664671 172.5 282.134370322 172.5 362.499023438 c 0
 172.5 443.27297743 201.802384511 517.321799816 250.308303245 574.424494482 c 0
 262.565692749 588.853690867 279.990222486 596.250318953 297.492902821 596.250318953 c 0
 311.65806369 596.250318953 325.889911541 591.415203226 337.520197606 581.535446755 c 0
 351.949393991 569.278057251 359.346022078 551.853527513 359.346022078 534.350847178 c 0
 359.346022078 520.185686309 354.510859791 505.953783649 344.63110332 494.323497585 c 0
 314.427536683 458.768701236 296.25 412.829239143 296.25 362.499023438 c 0
827.5 362.499023438 m 0
 827.5 282.134508121 798.493809569 208.422872331 750.425061909 151.435976375 c 0
 738.167824285 136.907127147 720.677951727 129.451119376 703.10558327 129.451119376 c 0
 689.008152833 129.451119376 674.844832457 134.237861628 663.23903503 144.029071836 c 0
 648.706428462 156.284571073 641.247193193 173.776491935 641.247193193 191.351708306 c 0
 641.247193193 205.446454473 646.034065496 219.609123086 655.824282169 231.213636714 c 0
 685.752605993 266.693372617 703.75 312.422221656 703.75 362.499023438 c 0
 703.75 412.57582522 685.753305799 458.303844704 655.824981975 493.783580609 c 0
 646.034888609 505.387948077 641.247193193 519.551149551 641.247193193 533.645952766 c 0
 641.247193193 551.221324075 648.706195607 568.712623267 663.237090348 580.970264475 c 0
 674.841651078 590.75985862 689.005375352 595.547332398 703.100826146 595.547332398 c 0
 720.675376523 595.547332398 738.16745677 588.089142732 750.42561629 573.55848365 c 0
 798.494677182 516.574287005 827.5 442.863504197 827.5 362.499023438 c 0
EndSplineSet
EndChar

StartChar: uniF049
Encoding: 61513 61513 54
Width: 1000
Flags: H
LayerCount: 2
Fore
SplineSet
421.25 456.25 m 0
 421.25 430.116424054 425.496340784 405.074977699 433.301110457 381.715741736 c 0
 435.440647296 375.311605101 436.48725037 368.707197728 436.48725037 362.11710461 c 0
 436.48725037 345.944825776 430.185020794 330.184961418 418.361357813 318.361298437 c 2
 108.75 8.74705194712 l 1
 108.75 -90.625 l 2
 108.75 -90.9803544755 109.019600573 -91.25 109.375 -91.25 c 2
 203.75 -91.25 l 1
 203.75 -28.125 l 2
 203.75 6.0376434593 231.462356541 33.75 265.625 33.75 c 2
 328.75 33.75 l 1
 328.75 96.875 l 2
 328.75 131.037643459 356.462356541 158.75 390.625 158.75 c 2
 458.749940625 158.75 l 1
 518.361298437 218.361357813 l 2
 530.185128291 230.185187667 545.945385019 236.48725037 562.117532572 236.48725037 c 0
 568.707605244 236.48725037 575.311557454 235.440787212 581.715574645 233.301166284 c 0
 605.075113284 225.496295482 630.113353073 221.25 656.25 221.25 c 0
 786.043594719 221.25 891.25 326.453662908 891.25 456.25 c 0
 891.25 586.046337092 786.043594719 691.25 656.25 691.25 c 0
 526.453507059 691.25 421.25 586.046492941 421.25 456.25 c 0
656.25 815 m 0
 854.37443206 815 1015 654.372388115 1015 456.25 c 0
 1015 258.127611885 854.37443206 97.5 656.25 97.5 c 0
 630.303842116 97.5 604.962374343 100.264345756 580.51972852 105.518108971 c 1
 528.127403262 53.12929754 l 2
 516.491852801 41.4885762972 500.808159397 35 484.375 35 c 2
 452.5 35 l 1
 452.5 3.125 l 2
 452.5 -13.3085231637 446.013420088 -28.9898576316 434.375029687 -40.6230765625 c 2
 403.127403262 -71.87070246 l 2
 391.491852801 -83.5114237028 375.808159397 -90 359.375 -90 c 2
 327.5 -90 l 1
 327.5 -121.875 l 2
 327.5 -138.308523164 321.013420087 -153.989857632 309.375029687 -165.623076563 c 2
 278.127403262 -196.870702461 l 2
 266.491852801 -208.511423703 250.808159397 -215 234.375 -215 c 2
 109.375 -215 l 2
 40.6939598021 -215 -15 -159.306040198 -15 -90.625 c 2
 -15 34.375 l 2
 -15 50.8085231641 -8.51345393977 66.4898237789 3.12493645946 78.1230427094 c 2
 305.518960631 380.518982876 l 1
 300.261717702 404.963205072 297.5 430.304377585 297.5 456.25 c 0
 297.5 654.372463679 458.127536321 815 656.25 815 c 0
687.5 410 m 0
 644.706565776 410 610 444.707792093 610 487.5 c 0
 610 530.292207907 644.706565776 565 687.5 565 c 0
 730.293434224 565 765 530.292207907 765 487.5 c 0
 765 444.707792093 730.293434224 410 687.5 410 c 0
EndSplineSet
EndChar

StartChar: uniF04D
Encoding: 61517 61517 55
Width: 1000
Flags: H
LayerCount: 2
Fore
SplineSet
438.125 502.505859375 m 1
 438.125 690.625 l 2
 438.125 724.787786748 465.837598835 752.5 500.000976562 752.5 c 0
 534.163620022 752.5 561.875976562 724.787643458 561.875976562 690.625 c 2
 561.875976562 502.505859375 l 1
 750 502.505859375 l 2
 784.162366392 502.505859375 811.875 474.794535334 811.875 440.630859375 c 0
 811.875 406.467183416 784.162366392 378.755859375 750 378.755859375 c 2
 561.875976562 378.755859375 l 1
 561.875976562 190.625 l 2
 561.875976562 156.462356542 534.163620022 128.75 500.000976562 128.75 c 0
 465.837598835 128.75 438.125 156.462213252 438.125 190.625 c 2
 438.125 378.755859375 l 1
 250.000976562 378.755859375 l 2
 215.83757767 378.755859375 188.125976562 406.467460481 188.125976562 440.630859375 c 0
 188.125976562 474.794258269 215.83757767 502.505859375 250.000976562 502.505859375 c 2
 438.125 502.505859375 l 1
250 2.505859375 m 2
 750 2.505859375 l 2
 784.162643459 2.505859375 811.875 -25.2064971657 811.875 -59.369140625 c 0
 811.875 -93.5379791017 784.160980988 -121.244140625 750 -121.244140625 c 2
 250 -121.244140625 l 2
 215.839019012 -121.244140625 188.125 -93.5379791017 188.125 -59.369140625 c 0
 188.125 -25.2064971657 215.837356541 2.505859375 250 2.505859375 c 2
EndSplineSet
EndChar

StartChar: uniF04E
Encoding: 61518 61518 56
Width: 1000
Flags: H
LayerCount: 2
Fore
SplineSet
500.000976562 566.25 m 0
 413.159724821 566.25 331.783580392 522.229980468 262.566725231 462.701113477 c 0
 196.26069206 405.67698487 146.25812901 338.806140294 120.116826916 300.000022529 c 1
 146.258900288 261.193188558 196.262474796 194.321591848 262.566410088 137.301110675 c 0
 331.783179319 77.7704050446 413.159738083 33.75 500.000976562 33.75 c 0
 586.841302985 33.75 668.221315868 77.7701589673 737.432701945 137.300346976 c 0
 803.738591947 194.322509165 853.743653175 261.193831405 879.88602733 300.000021338 c 1
 853.744378137 338.805543019 803.741116939 405.675429121 737.433406951 462.700999798 c 0
 668.221934954 522.22934918 586.841316243 566.25 500.000976562 566.25 c 0
500.000976562 690 m 0
 629.019734548 690 737.751503851 625.640171857 818.110829028 556.531172095 c 0
 899.034629876 486.931981873 957.004743279 407.555378972 985.651544341 364.457094842 c 0
 998.658620755 344.888283012 1005.17480469 322.486422154 1005.17480469 300 c 0
 1005.17480469 277.513577846 998.658612646 255.111704788 985.651536232 235.542892958 c 0
 957.004641229 192.444467497 899.033708782 113.069237677 818.110199079 43.46730958 c 0
 737.751136503 -25.6384809763 629.019877692 -90 500.000976562 -90 c 0
 370.982131151 -90 262.247527357 -25.6382178959 181.89109009 43.4678805905 c 0
 100.964373552 113.069996663 42.9983335763 192.444399639 14.3517155576 235.542408385 c 0
 1.34350167458 255.111247733 -5.17333984375 277.513316102 -5.17333984375 300 c 0
 -5.17333984375 322.486683898 1.34317957263 344.888267694 14.3513934557 364.457107042 c 0
 42.997917533 407.554974457 100.964291879 486.931944823 181.891299567 556.531323008 c 0
 262.247999424 625.640630713 370.9822743 690 500.000976562 690 c 0
500 160 m 0
 422.690006167 160 360 222.690006167 360 300 c 0
 360 377.309993833 422.690006167 440 500 440 c 0
 577.309993833 440 640 377.309993833 640 300 c 0
 640 222.690006167 577.309993833 160 500 160 c 0
EndSplineSet
EndChar

StartChar: uniF04F
Encoding: 61519 61519 57
Width: 1000
Flags: H
LayerCount: 2
Fore
SplineSet
109.375 628.75 m 2
 109.034061715 628.75 108.75 628.467200396 108.75 628.125 c 2
 108.75 284.375 l 2
 108.75 284.034061715 109.032799604 283.75 109.375 283.75 c 2
 171.875 283.75 l 2
 188.308950671 283.75 203.990984209 277.260367728 215.62562323 265.624436111 c 0
 227.261554847 253.98979709 233.75 238.308950671 233.75 221.875 c 2
 233.75 85 l 1
 281.881826042 133.131826042 330.013652083 181.263652083 378.145478125 265.604521875 c 1
 389.768702554 277.241963526 405.432874662 283.735793598 421.861780181 283.749994287 c 2
 640.625 283.749994287 l 2
 640.966155601 283.749994287 641.25 284.025290905 641.25 284.375 c 2
 641.25 628.125 l 2
 641.25 628.474284347 640.966701381 628.75 640.625 628.75 c 2
 109.375 628.75 l 2
109.375 752.5 m 2
 640.625 752.5 l 2
 673.633738418 752.5 705.211142233 739.424523953 728.5674125 716.069365625 c 0
 751.922631778 692.714146347 765 661.136088139 765 628.125 c 2
 765 284.375 l 2
 765 251.363911861 751.922377405 219.785599286 728.567158127 196.430380008 c 0
 705.21088786 173.07522168 673.633738418 160 640.625 160 c 2
 447.519835844 160 l 1
 291.040382692 3.58133919357 l 2
 276.184033473 -11.2704532128 257.292985832 -21.3459731666 236.757257447 -25.4306344695 c 0
 229.920112354 -26.7905775627 222.994813082 -27.4671656847 216.066024454 -27.4671656847 c 0
 202.17063395 -27.4671656847 188.408176362 -24.7511094682 175.491179598 -19.4030860942 c 0
 140.366546169 -4.86249819104 110.015355704 31.3744214124 110 78.5625 c 2
 110 160 l 1
 109.375 160 l 2
 40.7221771959 160 -15 215.722177196 -15 284.375 c 2
 -15 628.125 l 2
 -15 661.135367985 -1.92501788667 692.713713363 21.430634375 716.069365625 c 0
 44.7862866367 739.425017887 76.3646320155 752.5 109.375 752.5 c 2
890.625 158.75 m 2
 890.97381863 158.75 891.25 159.025091037 891.25 159.375 c 2
 891.25 503.125 l 2
 891.25 503.474284464 890.966701266 503.75 890.625 503.75 c 2
 859.375 503.75 l 2
 842.941476836 503.75 827.262516471 510.234206338 815.629297539 521.872596738 c 0
 803.988576297 533.508147199 797.5 549.191840603 797.5 565.625 c 0
 797.5 582.058159397 803.983827829 597.737104333 815.624549071 609.372654793 c 0
 827.257768002 621.011045193 842.941476836 627.5 859.375 627.5 c 2
 890.625 627.5 l 2
 959.277822804 627.5 1015 571.777822804 1015 503.125 c 2
 1015 159.375 l 2
 1015 126.365541412 1001.92188348 94.7881703999 978.567158127 71.4323331328 c 0
 955.21132086 48.0776077842 923.634458588 35 890.625 35 c 2
 889.999999874 35 l 1
 889.999999874 -46.4424772361 l 2
 889.984656208 -93.5935617555 859.613218138 -129.872581138 824.508939136 -144.403036941 c 0
 811.591643449 -149.750556251 797.829997937 -152.467165685 783.935135142 -152.467165685 c 0
 777.006642717 -152.467165685 770.081642828 -151.790582033 763.244183162 -150.430726763 c 0
 742.704859031 -146.346027869 723.81476047 -136.266969848 708.957978125 -121.417021875 c 2
 565.819413789 21.7215424612 l 2
 555.010809731 31.8915350663 546.330562722 47.2437507864 546.330562722 66.7973682642 c 0
 546.330562722 85.5685322967 554.349883026 100.439070397 564.450363723 110.537335106 c 0
 574.565728169 120.661574625 589.395361947 128.669657172 608.193392559 128.669657172 c 0
 627.724325728 128.669657172 643.114274365 119.984961967 653.278972323 109.180071427 c 2
 766.25 -3.79095625 l 1
 766.25 96.875 l 2
 766.25 113.307731671 772.72958892 128.984791207 784.372769336 140.618920847 c 0
 796.006898976 152.262101263 811.692268329 158.75 828.125 158.75 c 2
 890.625 158.75 l 2
EndSplineSet
EndChar

StartChar: uniF051
Encoding: 61521 61521 58
Width: 1000
Flags: H
LayerCount: 2
Fore
SplineSet
452.499755859 643.75 m 0
 452.499755859 627.927211395 446.464944965 612.08988559 434.375029687 599.999970313 c 2
 274.375059375 440 l 1
 640.625 440 l 2
 812.855760821 440 952.5 300.360906531 952.5 128.125 c 2
 952.5 -28.125 l 2
 952.5 -62.2876434593 924.787643459 -90 890.625 -90 c 0
 856.462356541 -90 828.75 -62.2876434593 828.75 -28.125 c 2
 828.75 128.125 l 2
 828.75 232.033704835 744.531905405 316.25 640.625 316.25 c 2
 274.37478994 316.25 l 1
 434.375029687 156.248076563 l 2
 446.464562526 144.158543724 452.499755859 128.322225425 452.499755859 112.5 c 0
 452.499755859 96.6777745756 446.464847547 80.8417413044 434.375314707 68.7522084654 c 0
 422.285469408 56.661718202 406.448015161 50.6264648438 390.625 50.6264648438 c 0
 374.801984839 50.6264648438 358.964854899 56.6613938878 346.875009599 68.7518841513 c 2
 81.2499703127 334.374970313 l 2
 69.160055035 346.46488559 63.1252441406 362.302211395 63.1252441406 378.125 c 0
 63.1252441406 393.947788605 69.1600550349 409.78511441 81.2499703125 421.875029687 c 2
 346.874970313 687.500029687 l 2
 358.96488559 699.589944965 374.802211395 705.624755859 390.625 705.624755859 c 0
 406.447788605 705.624755859 422.28511441 699.589944965 434.375029687 687.500029687 c 0
 446.464944965 675.41011441 452.499755859 659.572788605 452.499755859 643.75 c 0
EndSplineSet
EndChar

StartChar: uniF052
Encoding: 61522 61522 59
Width: 1000
Flags: H
LayerCount: 2
Fore
SplineSet
500 -27.5 m 0
 319.136286839 -27.5 172.5 119.137313352 172.5 300 c 0
 172.5 480.863671601 319.136328399 627.5 500 627.5 c 0
 680.862686648 627.5 827.5 480.863713161 827.5 300 c 0
 827.5 119.137271792 680.862728208 -27.5 500 -27.5 c 0
EndSplineSet
EndChar

StartChar: uniF056
Encoding: 61526 61526 60
Width: 1000
Flags: H
LayerCount: 2
Fore
SplineSet
937.5 627.5 m 2
 980.174050422 627.5 1015 592.674050422 1015 550 c 2
 1015 -12.5 l 2
 1015 -55.1740504217 980.174050422 -90 937.5 -90 c 2
 62.5 -90 l 2
 19.8259495783 -90 -15 -55.1740504217 -15 -12.5 c 2
 -15 550 l 2
 -15 587.976914325 12.5812906284 619.738326909 48.7298170664 626.270182933 c 1
 55.2616730902 662.418709371 87.0230856745 690 125 690 c 2
 375 690 l 2
 412.545067015 690 444.015185392 663.042413802 451.037596536 627.5 c 1
 937.5 627.5 l 2
140 502.5 m 1
 360 502.5 l 1
 360 535 l 1
 140 535 l 1
 140 502.5 l 1
656.25 65 m 0
 769.246438705 65 860 155.753561295 860 268.75 c 0
 860 381.746438705 769.246438705 472.5 656.25 472.5 c 0
 543.253561295 472.5 452.5 381.746438705 452.5 268.75 c 0
 452.5 155.753561295 543.253561295 65 656.25 65 c 0
827.5 268.75 m 0
 827.5 174.169073911 750.142116543 97.5 656.25 97.5 c 0
 562.304722997 97.5 485 174.804722997 485 268.75 c 0
 485 362.695277003 562.304722997 440 656.25 440 c 0
 750.195277003 440 827.5 362.695277003 827.5 268.75 c 0
EndSplineSet
EndChar

StartChar: uniF057
Encoding: 61527 61527 61
Width: 1000
Flags: H
LayerCount: 2
Fore
SplineSet
953.12499931 627.500195344 m 0
 989.376176177 627.500195344 1015 597.488928729 1015 565.625 c 2
 1015 34.375 l 2
 1015 2.50484862147 989.398995897 -27.4987473597 953.12626211 -27.4987473597 c 0
 942.065737476 -27.4987473597 931.089990977 -24.5606654068 921.304387284 -18.6902270462 c 2
 702.5 112.594882669 l 1
 702.5 96.875 l 2
 702.5 28.1939598021 646.806040198 -27.5 578.125 -27.5 c 2
 109.375 -27.5 l 2
 40.6939598021 -27.5 -15 28.1939598021 -15 96.875 c 2
 -15 503.125 l 2
 -15 571.806040198 40.6939598021 627.5 109.375 627.5 c 2
 578.125 627.5 l 2
 646.806040198 627.5 702.5 571.806040198 702.5 503.125 c 2
 702.5 487.407955221 l 1
 921.304749627 618.692397574 l 2
 931.0908823 624.563813205 942.06572768 627.500195344 953.12499931 627.500195344 c 0
702.5 343.092210012 m 1
 702.5 256.90769224 l 1
 891.25 143.655164338 l 1
 891.25 456.342210012 l 1
 702.5 343.092210012 l 1
578.75 503.125 m 2
 578.75 503.478736975 578.478736975 503.75 578.125 503.75 c 2
 109.375 503.75 l 2
 109.021263025 503.75 108.75 503.478736975 108.75 503.125 c 2
 108.75 96.875 l 2
 108.75 96.5196455245 109.019600573 96.25 109.375 96.25 c 2
 578.125 96.25 l 2
 578.480399427 96.25 578.75 96.5196455245 578.75 96.875 c 2
 578.75 503.125 l 2
EndSplineSet
EndChar

StartChar: uniF058
Encoding: 61528 61528 62
Width: 1000
Flags: H
LayerCount: 2
Fore
SplineSet
199.469766027 -0.529587537944 m 1
 295.550925453 26.9250277606 l 2
 295.655235066 26.954636687 295.759420322 27.0123117919 295.817816647 27.0707992179 c 2
 678.122126145 409.375115032 l 1
 609.373908317 478.124825504 l 1
 227.076201563 95.82711875 l 2
 227.025072559 95.7760429504 226.959633302 95.6857167027 226.921233796 95.5513184314 c 2
 199.469766027 -0.529587537944 l 1
765.622436524 634.111328125 m 0
 765.449168041 634.111328125 765.293255045 634.044208315 765.181427604 633.932345066 c 2
 696.8715802 565.625033404 l 1
 765.624901005 496.874697915 l 1
 833.932719743 565.180825991 l 2
 834.045939119 565.294063491 834.112548828 565.451232609 834.112548828 565.624511719 c 0
 834.112548828 565.797790828 834.044951701 565.955947431 833.931732325 566.069184931 c 2
 766.070282813 633.930634375 l 2
 765.952984691 634.047838704 765.795630723 634.111328125 765.622436524 634.111328125 c 0
765.625 757.861572265 m 0
 797.442364637 757.861572265 829.273924165 745.724737515 853.567335613 721.430770637 c 2
 921.429961499 653.569121308 l 2
 945.722855845 629.275116099 957.859130859 597.442788999 957.859130859 565.625 c 0
 957.859130859 533.807211001 945.722611533 501.974639584 921.429717187 477.680634375 c 2
 383.326598518 -60.4224842803 l 2
 368.362705617 -75.3874889936 349.84925148 -86.2696569526 329.553110199 -92.0687128929 c 2
 126.379270646 -150.117404219 l 2
 120.787629184 -151.716636361 115.074438656 -152.500434628 109.373722677 -152.500434628 c 0
 93.1661037223 -152.500434628 77.4194138007 -146.168496613 65.6239937496 -134.373076563 c 0
 53.8276734305 -122.576756242 47.4980527643 -106.829854348 47.4980527643 -90.6233609944 c 0
 47.4980527643 -84.9255750064 48.2808116639 -79.2154197831 49.8775735759 -73.6265863796 c 2
 107.928641085 129.556056039 l 2
 113.727966353 149.84870366 124.612094271 168.365083334 139.576190669 183.329179732 c 2
 677.682465345 721.430571593 l 2
 701.975876793 745.724538472 733.807635363 757.861572265 765.625 757.861572265 c 0
EndSplineSet
EndChar

StartChar: uniF059
Encoding: 61529 61529 63
Width: 1000
Flags: H
LayerCount: 2
Fore
SplineSet
500 691.25 m 0
 283.909577693 691.25 108.75 516.090422307 108.75 300 c 0
 108.75 83.9056972604 283.909449815 -91.25 500 -91.25 c 0
 716.094430617 -91.25 891.25 83.9055693834 891.25 300 c 0
 891.25 516.090550185 716.09430274 691.25 500 691.25 c 0
-15 300 m 0
 -15 584.417374246 215.582625754 815 500 815 c 0
 784.418356053 815 1015 584.417348271 1015 300 c 0
 1015 15.5816699224 784.418330078 -215 500 -215 c 0
 215.582651729 -215 -15 15.5816439474 -15 300 c 0
391.25 315.625 m 0
 391.25 349.787643459 418.962356541 377.5 453.125 377.5 c 2
 515.625 377.5 l 2
 549.787643459 377.5 577.5 349.787643459 577.5 315.625 c 2
 577.5 158.75 l 1
 578.125 158.75 l 2
 612.287643459 158.75 640 131.037643459 640 96.875 c 0
 640 62.7123565407 612.287643459 35 578.125 35 c 2
 453.125 35 l 2
 418.962356541 35 391.25 62.7123565407 391.25 96.875 c 0
 391.25 131.037643459 418.962356541 158.75 453.125 158.75 c 2
 453.75 158.75 l 1
 453.75 253.75 l 1
 453.125 253.75 l 2
 418.962356541 253.75 391.25 281.462356541 391.25 315.625 c 0
500 410 m 0
 457.207584292 410 422.5 444.707584292 422.5 487.5 c 0
 422.5 530.292415708 457.207584292 565 500 565 c 0
 542.793434224 565 577.5 530.292207907 577.5 487.5 c 0
 577.5 444.707792093 542.793434224 410 500 410 c 0
EndSplineSet
EndChar

StartChar: uniF05C
Encoding: 61532 61532 64
Width: 1000
Flags: H
LayerCount: 2
Fore
SplineSet
520.230777071 501.481979969 m 0
 486.373334028 501.481979969 458.356004894 529.500729805 458.356004894 563.356585938 c 0
 458.356004894 579.170484097 464.389480084 594.187090507 475.144557851 605.728599246 c 2
 553.457001563 684.042021875 l 2
 597.327284207 727.91230452 656.728908914 752.51171875 718.75 752.51171875 c 0
 780.77107216 752.51171875 840.172632324 727.912455687 884.042021875 684.042021875 c 0
 927.911104108 640.172939642 952.512695312 580.772385995 952.512695312 518.75 c 0
 952.512695312 456.728517598 927.910941599 397.327942099 884.042021875 353.457978125 c 2
 727.792792405 197.20874871 l 2
 689.727747646 159.1382138 633.195059112 128.737304688 562.5 128.737304688 c 0
 491.716503714 128.737304688 435.106137509 159.306174836 397.019049449 197.396924942 c 0
 386.264504521 208.939130253 380.231004894 223.954823132 380.231004894 239.769390613 c 0
 380.231004894 273.6255221 408.249968854 301.643995106 442.105609387 301.643995106 c 0
 457.66080224 301.643995106 473.633026247 295.714016574 484.673308979 284.66073107 c 0
 502.554224604 266.758756069 529.264233821 252.40234375 562.5 252.40234375 c 0
 595.7085047 252.40234375 622.464967448 266.783984699 640.332978125 284.667021875 c 2
 796.58207959 440.916123264 l 2
 814.470866752 458.80791922 828.818359375 485.516438688 828.818359375 518.75 c 0
 828.818359375 551.948488961 814.448959805 578.715493947 796.582528829 596.58342744 c 0
 778.693654063 614.473806609 751.981750113 628.8203125 718.75 628.8203125 c 0
 685.552866312 628.8203125 658.783874437 614.451333239 640.917021875 596.582978125 c 0
 614.745225529 570.419952018 588.591006057 544.239349038 562.408127338 518.087405304 c 0
 550.915949366 507.379473762 535.899199138 501.481979969 520.230777071 501.481979969 c 0
619.768020031 360.231753622 m 0
 619.768020031 326.374228481 591.750547477 298.356979969 557.893246378 298.356979969 c 0
 542.338709508 298.356979969 526.368544993 304.285340234 515.327140222 315.338819219 c 0
 497.444339464 333.241175529 470.735742186 347.598632812 437.5 347.598632812 c 0
 404.294523917 347.598632812 377.52868563 333.215678582 359.667021875 315.332978125 c 2
 203.409831477 159.075792562 l 2
 185.508393936 141.198422158 171.151367188 114.481753626 171.151367188 81.25 c 0
 171.151367188 48.0381289936 185.535876874 21.2831355299 203.421962677 3.4120787873 c 0
 221.309283632 -14.4917947481 248.012799869 -28.849609375 281.25 -28.849609375 c 0
 314.455279286 -28.849609375 341.214999446 -14.4659870691 359.082978125 3.417021875 c 0
 385.254341794 29.5796718059 411.408241772 55.7597854282 437.590616591 81.9114242085 c 0
 449.085277935 92.624110019 464.106021613 98.519845129 479.775304388 98.519845129 c 0
 513.631115844 98.519845129 541.643020031 70.4928120361 541.643020031 36.6422742548 c 0
 541.643020031 20.8283018451 535.609350429 5.81414812313 524.855995747 -5.72804800292 c 2
 446.541894694 -84.0421490548 l 2
 402.671930719 -127.911068779 343.271482402 -152.512695312 281.25 -152.512695312 c 0
 219.227614005 -152.512695312 159.827187539 -127.911231288 115.958105306 -84.0421490548 c 0
 72.0876714946 -40.1727595037 47.48828125 19.2289278399 47.48828125 81.25 c 0
 47.48828125 143.271091086 72.0877288735 202.672749186 115.958011518 246.54303183 c 2
 272.207464444 402.79150817 l 2
 310.270697636 440.858401114 366.80693202 471.266601562 437.5 471.266601562 c 0
 508.280229395 471.266601562 564.894816531 440.692871033 602.980657647 402.60336799 c 0
 613.736241697 391.061315947 619.768020031 376.045150161 619.768020031 360.231753622 c 0
EndSplineSet
EndChar

StartChar: uniF05D
Encoding: 61533 61533 65
Width: 1000
Flags: H
LayerCount: 2
Fore
SplineSet
500 690 m 0
 534.162643459 690 561.875 662.287643459 561.875 628.125 c 2
 561.875 361.875 l 1
 828.125 361.875 l 2
 862.287643459 361.875 890 334.162643459 890 300 c 0
 890 265.837356541 862.287643459 238.125 828.125 238.125 c 2
 561.875 238.125 l 1
 561.875 -28.125 l 2
 561.875 -62.2876434593 534.162643459 -90 500 -90 c 0
 465.837356541 -90 438.125 -62.2876434593 438.125 -28.125 c 2
 438.125 238.125 l 1
 171.875 238.125 l 2
 137.712356541 238.125 110 265.837356541 110 300 c 0
 110 334.162643459 137.712356541 361.875 171.875 361.875 c 2
 438.125 361.875 l 1
 438.125 628.125 l 2
 438.125 662.287643459 465.837356541 690 500 690 c 0
EndSplineSet
EndChar

StartChar: uniF05E
Encoding: 61534 61534 66
Width: 1000
Flags: H
LayerCount: 2
Fore
SplineSet
47.5 628.125 m 0
 47.5 644.558950672 53.9884451548 660.239797091 65.6243767698 671.874436111 c 0
 77.2590157909 683.510367728 92.9410493285 690 109.375 690 c 2
 890.625 690 l 2
 907.058523164 690 922.737483529 683.515793662 934.370702461 671.877403262 c 0
 946.011423703 660.241852801 952.5 644.558159397 952.5 628.125 c 0
 952.5 611.691840603 946.016172171 596.012895667 934.375450929 584.377345207 c 0
 922.742231998 572.738954807 907.058523164 566.25 890.625 566.25 c 2
 109.375 566.25 l 2
 92.9410493285 566.25 77.2602029089 572.738445154 65.6255638878 584.374376771 c 0
 53.9896322728 596.009015791 47.5 611.691049328 47.5 628.125 c 0
47.5 315.625 m 0
 47.5 332.058950672 53.9884451548 347.739797091 65.6243767698 359.374436111 c 0
 77.2590157909 371.010367728 92.9410493285 377.5 109.375 377.5 c 2
 890.625 377.5 l 2
 907.058523164 377.5 922.737483529 371.015793662 934.370702461 359.377403262 c 0
 946.011423703 347.741852801 952.5 332.058159397 952.5 315.625 c 0
 952.5 299.191840603 946.016172171 283.512895667 934.375450929 271.877345207 c 0
 922.742231998 260.238954807 907.058523164 253.75 890.625 253.75 c 2
 109.375 253.75 l 2
 92.9410493285 253.75 77.2602029089 260.238445154 65.6255638878 271.874376771 c 0
 53.9896322728 283.509015791 47.5 299.191049328 47.5 315.625 c 0
109.375 65 m 2
 890.625 65 l 2
 907.057731671 65 922.734791207 58.5204110809 934.368920846 46.8772306639 c 0
 946.012101263 35.2431010249 952.5 19.5577316707 952.5 3.125 c 0
 952.5 -13.3077316707 946.020411081 -28.9847912068 934.377230664 -40.6189208459 c 0
 922.743101025 -52.2621012629 907.057731671 -58.75 890.625 -58.75 c 2
 109.375 -58.75 l 2
 92.9418406034 -58.75 77.2628956674 -52.2661721709 65.6273452062 -40.6254509285 c 0
 53.9889548069 -28.992231998 47.5 -13.3085231641 47.5 3.125 c 0
 47.5 19.5585231641 53.9842063384 35.2374835298 65.6225967376 46.8707024603 c 0
 77.2581471988 58.5114237027 92.9418406034 65 109.375 65 c 2
EndSplineSet
EndChar

StartChar: uniF05F
Encoding: 61535 61535 67
Width: 1000
Flags: H
LayerCount: 2
Fore
SplineSet
328.125 627.499755859 m 0
 343.947788605 627.499755859 359.78511441 621.464944965 371.875029687 609.375029687 c 0
 383.964944965 597.28511441 389.999755859 581.447788605 389.999755859 565.625 c 0
 389.999755859 549.802211395 383.964944965 533.96488559 371.875029687 521.874970313 c 2
 150.000014829 299.999955455 l 1
 371.875029687 78.1230765627 l 2
 383.964562526 66.0335437237 389.999755859 50.1972254245 389.999755859 34.375 c 0
 389.999755859 18.5527745755 383.964847547 2.71674130441 371.875314707 -9.37279153456 c 0
 359.785469408 -21.463281798 343.948015161 -27.4985351562 328.125 -27.4985351562 c 0
 312.301984839 -27.4985351562 296.464854899 -21.4636061122 284.375009599 -9.37311584873 c 2
 18.7499703127 256.249970313 l 2
 6.66005503504 268.33988559 0.625244140625 284.177211395 0.625244140625 300 c 0
 0.625244140625 315.822788605 6.66005503488 331.66011441 18.7499703125 343.750029687 c 2
 284.374970313 609.375029687 l 2
 296.46488559 621.464944965 312.302211395 627.499755859 328.125 627.499755859 c 0
999.373535156 300 m 0
 999.373535156 284.176984839 993.33852754 268.339776326 981.248037277 256.249931027 c 2
 715.623361583 -9.37279153485 l 2
 703.533898723 -21.4628993383 687.697452004 -27.4985351562 671.875 -27.4985351562 c 0
 656.052547996 -27.4985351562 640.216956345 -21.4637543834 628.127493485 -9.37364657993 c 0
 616.036810734 2.71574629159 610.000732422 18.5523214126 610.000732422 34.375 c 0
 610.000732422 50.1976785874 616.036083581 66.0335265832 628.126766332 78.1229194547 c 2
 849.997278211 299.999955456 l 1
 628.127493485 521.874400295 l 2
 616.036428253 533.964175607 610.000732422 549.801758278 610.000732422 565.625 c 0
 610.000732422 581.448241722 616.035858205 597.285254375 628.126923437 609.375029687 c 0
 640.216456276 621.464562526 656.052774575 627.499755859 671.875 627.499755859 c 0
 687.697225425 627.499755859 703.533543724 621.464562526 715.623076563 609.375029687 c 2
 981.247791535 343.750314707 l 2
 993.338281798 331.660469408 999.373535156 315.823015161 999.373535156 300 c 0
EndSplineSet
EndChar

StartChar: uniF060
Encoding: 61536 61536 68
Width: 1000
Flags: H
LayerCount: 2
Fore
SplineSet
797.556640625 362.499023438 m 0
 797.556640625 452.311172288 758.746999523 524.554367562 710.396736689 572.893243148 c 0
 662.093341321 621.185262304 589.909069158 660.103515625 500 660.103515625 c 0
 410.196257931 660.103515625 337.944573237 621.297052923 289.604521875 572.957001563 c 0
 241.205284485 524.557764171 202.458984375 452.45905587 202.458984375 362.561523438 c 0
 202.458984375 272.761907342 241.264364703 200.502299188 289.603982473 152.16756125 c 2
 500.001499822 -58.1704544545 l 1
 710.398501419 152.107544314 l 2
 758.80781837 200.505460108 797.556640625 272.595732289 797.556640625 362.499023438 c 0
500 -188.231445312 m 0
 467.119131948 -188.231445312 440.778869322 -174.064308743 423.081467012 -156.353010548 c 2
 202.146029154 64.6449271242 l 2
 143.208387711 123.576490642 103.098526679 198.631677523 86.8468117148 280.317422923 c 0
 81.4372259445 307.509234491 78.7500913732 335.037152183 78.7500913732 362.520864684 c 0
 78.7500913732 417.606459889 89.5401882186 472.368378569 110.805982318 523.711577051 c 0
 142.68055037 600.668133035 196.691266195 666.48979455 265.977393706 712.7875646 c 0
 335.260876761 759.081878134 416.646590733 783.7734375 500 783.7734375 c 0
 583.353465482 783.7734375 664.73783939 759.081334258 734.024854673 712.787367311 c 0
 803.310112207 666.489501828 857.318805233 600.667071724 889.19616294 523.711113154 c 0
 910.460503861 472.36653087 921.250344135 417.603042046 921.250344135 362.515869043 c 0
 921.250344135 335.033959288 918.563603891 307.506975543 913.155037377 280.31690004 c 0
 896.901350653 198.631419716 856.793681338 123.578559875 797.856032988 64.6469894515 c 2
 576.921214629 -156.350327475 l 2
 559.201105101 -174.084350717 532.916199755 -188.231445312 500 -188.231445312 c 0
500 222.499023438 m 0
 462.845037646 222.499023438 427.293316288 237.22017774 401.008005395 263.506583672 c 0
 374.721491384 289.79200264 360 325.345003888 360 362.499023438 c 0
 360 399.654961714 374.721526937 435.205961307 401.007560235 461.491994605 c 0
 427.293060555 487.778589971 462.845352724 502.499023438 500 502.499023438 c 0
 537.154680399 502.499023438 572.706862944 487.778547993 598.99319375 461.492217187 c 0
 625.27941648 435.205994458 640 399.654646641 640 362.499023438 c 0
 640 325.345318968 625.279897194 289.792414642 598.99319375 263.50680625 c 0
 572.707052374 237.220664874 537.154995473 222.499023438 500 222.499023438 c 0
EndSplineSet
EndChar

StartChar: uniF061
Encoding: 61537 61537 69
Width: 1000
Flags: H
LayerCount: 2
Fore
SplineSet
125 535 m 0
 82.2075842925 535 47.5 569.707584292 47.5 612.5 c 0
 47.5 655.292415708 82.2075842925 690 125 690 c 0
 167.792415708 690 202.5 655.292415708 202.5 612.5 c 0
 202.5 569.707584292 167.792415708 535 125 535 c 0
359.375 658.75 m 2
 890.625 658.75 l 2
 924.787643459 658.75 952.5 631.037643459 952.5 596.875 c 0
 952.5 562.712356541 924.787643459 535 890.625 535 c 2
 359.375 535 l 2
 325.212356541 535 297.5 562.712356541 297.5 596.875 c 0
 297.5 631.037643459 325.212356541 658.75 359.375 658.75 c 2
359.375 346.25 m 2
 890.625 346.25 l 2
 924.787643459 346.25 952.5 318.537643459 952.5 284.375 c 0
 952.5 250.212356541 924.787643459 222.5 890.625 222.5 c 2
 359.375 222.5 l 2
 325.212356541 222.5 297.5 250.212356541 297.5 284.375 c 0
 297.5 318.537643459 325.212356541 346.25 359.375 346.25 c 2
359.375 33.75 m 2
 890.625 33.75 l 2
 924.787643459 33.75 952.5 6.0376434593 952.5 -28.125 c 0
 952.5 -62.2876434593 924.787643459 -90 890.625 -90 c 2
 359.375 -90 l 2
 325.212356541 -90 297.5 -62.2876434593 297.5 -28.125 c 0
 297.5 6.0376434593 325.212356541 33.75 359.375 33.75 c 2
202.5 300 m 0
 202.5 257.207584292 167.792415708 222.5 125 222.5 c 0
 82.2075842925 222.5 47.5 257.207584292 47.5 300 c 0
 47.5 342.792415708 82.2075842925 377.5 125 377.5 c 0
 167.792415708 377.5 202.5 342.792415708 202.5 300 c 0
125 -90 m 0
 82.2077920933 -90 47.5 -55.2934342236 47.5 -12.5 c 0
 47.5 30.2934342236 82.2077920933 65 125 65 c 0
 167.792207907 65 202.5 30.2934342236 202.5 -12.5 c 0
 202.5 -55.2934342236 167.792207907 -90 125 -90 c 0
EndSplineSet
EndChar

StartChar: uniF062
Encoding: 61538 61538 70
Width: 1000
Flags: H
LayerCount: 2
Fore
SplineSet
93.9563062474 689.999988912 m 0
 120.783372909 689.999988912 140.2109375 667.677617845 140.2109375 643.747070312 c 2
 140.2109375 439.977539062 l 1
 156.65625 439.977539062 l 2
 182.191715958 439.977539062 202.909179688 419.260075333 202.909179688 393.724609375 c 0
 202.909179688 368.190203878 182.192131515 347.471679688 156.65625 347.471679688 c 2
 31.259765625 347.471679688 l 2
 5.72388410982 347.471679688 -14.9931640625 368.190203878 -14.9931640625 393.724609375 c 0
 -14.9931640625 419.260075333 5.72429966682 439.977539062 31.259765625 439.977539062 c 2
 47.705078125 439.977539062 l 1
 47.705078125 569.258356199 l 1
 42.3645989375 567.221204339 36.8062827447 566.234769975 31.2841887663 566.234769975 c 0
 8.23586861932 566.234769975 -15.0000332691 584.799346893 -15.0000332691 612.469891816 c 0
 -15.0000332691 629.421376236 -5.6254759248 645.79005132 10.6401787034 653.898199426 c 2
 73.3387225259 685.151279464 l 2
 79.84119138 688.392354807 86.8730464983 689.999988912 93.9563062474 689.999988912 c 0
297.5 596.875 m 0
 297.5 631.037643459 325.212356541 658.75 359.375 658.75 c 2
 890.625 658.75 l 2
 924.787643459 658.75 952.5 631.037643459 952.5 596.875 c 0
 952.5 562.712356541 924.787643459 535 890.625 535 c 2
 359.375 535 l 2
 325.212356541 535 297.5 562.712356541 297.5 596.875 c 0
297.5 284.375 m 0
 297.5 318.537643459 325.212356541 346.25 359.375 346.25 c 2
 890.625 346.25 l 2
 924.787643459 346.25 952.5 318.537643459 952.5 284.375 c 0
 952.5 250.212356541 924.787643459 222.5 890.625 222.5 c 2
 359.375 222.5 l 2
 325.212356541 222.5 297.5 250.212356541 297.5 284.375 c 0
297.5 -28.125 m 0
 297.5 6.0376434593 325.212356541 33.75 359.375 33.75 c 2
 890.625 33.75 l 2
 924.787643459 33.75 952.5 6.0376434593 952.5 -28.125 c 0
 952.5 -62.2876434593 924.787643459 -90 890.625 -90 c 2
 359.375 -90 l 2
 325.212356541 -90 297.5 -62.2876434593 297.5 -28.125 c 0
202.700195312 -43.744140625 m 0
 202.700195312 -69.2818468867 181.978512024 -90 156.443359375 -90 c 2
 31.2607421875 -90 l 2
 18.9675562502 -90 7.25916222894 -85.1522731083 -1.44516929311 -76.4464913478 c 0
 -10.1476958396 -67.7410644425 -14.9921875 -56.0347100504 -14.9921875 -43.744140625 c 0
 -14.9921875 28.4881161281 35.8677465882 64.4602341202 66.2484203471 87.0083388661 c 0
 100.181258834 112.267720932 110.1953125 122.044057243 110.1953125 142.306640625 c 0
 110.1953125 148.866403456 107.920212018 153.694721744 105.960099962 155.917868711 c 0
 104.437462064 157.644779916 102.212705521 159.956054688 93.765625 159.956054688 c 0
 83.5203463294 159.956054688 74.7869795811 153.274750756 70.3502553676 146.821516545 c 0
 61.5516095529 132.913479935 46.5510680883 125.287891579 31.2310955745 125.287891579 c 0
 23.0168387852 125.287891579 14.7409723477 127.465572899 7.27577308942 131.998850864 c 0
 -7.10084367838 140.725302143 -14.9865979666 155.999482717 -14.9865979666 171.579558521 c 0
 -14.9865979666 185.273279499 -7.99928007225 197.074467052 -0.814930540907 205.984131622 c 0
 3.32972905864 211.125199861 9.36044230185 217.773118617 17.4375593546 224.475689348 c 0
 33.5822683101 237.872456585 59.3285527792 252.461914118 93.7671121285 252.461914053 c 0
 127.00832461 252.46080446 155.702760056 239.366961715 175.351525567 217.083968627 c 0
 194.342861347 195.544358774 202.700195312 168.326860673 202.700195312 142.306640625 c 0
 202.700195312 70.6530634767 151.764268311 35.3322115751 121.458748937 12.7908416718 c 0
 116.529251265 9.12188733933 112.048669913 5.71020419239 108.00836016 2.505859375 c 1
 156.448242188 2.505859375 l 2
 181.98286579 2.505859375 202.700195312 -18.2117894445 202.700195312 -43.744140625 c 0
EndSplineSet
EndChar

StartChar: uniF063
Encoding: 61539 61539 71
Width: 1000
Flags: H
LayerCount: 2
Fore
SplineSet
109.375 658.75 m 2
 765.625 658.75 l 2
 799.787643459 658.75 827.5 631.037643459 827.5 596.875 c 0
 827.5 562.712356541 799.787643459 535 765.625 535 c 2
 109.375 535 l 2
 75.2123565407 535 47.5 562.712356541 47.5 596.875 c 0
 47.5 631.037643459 75.2123565407 658.75 109.375 658.75 c 2
359.375 346.25 m 2
 890.625 346.25 l 2
 924.787643459 346.25 952.5 318.537643459 952.5 284.375 c 0
 952.5 250.212356541 924.787643459 222.5 890.625 222.5 c 2
 359.375 222.5 l 2
 325.212356541 222.5 297.5 250.212356541 297.5 284.375 c 0
 297.5 318.537643459 325.212356541 346.25 359.375 346.25 c 2
359.375 33.75 m 2
 890.625 33.75 l 2
 924.787643459 33.75 952.5 6.0376434593 952.5 -28.125 c 0
 952.5 -62.2876434593 924.787643459 -90 890.625 -90 c 2
 359.375 -90 l 2
 325.212356541 -90 297.5 -62.2876434593 297.5 -28.125 c 0
 297.5 6.0376434593 325.212356541 33.75 359.375 33.75 c 2
171.25 315.625 m 2
 171.25 -59.375 l 2
 171.25 -93.5376434593 143.537643459 -121.25 109.375 -121.25 c 0
 75.2123565408 -121.25 47.5 -93.5376434592 47.5 -59.375 c 2
 47.5 315.625 l 2
 47.5 349.787643459 75.2123565407 377.5 109.375 377.5 c 0
 143.537643459 377.5 171.25 349.787643459 171.25 315.625 c 2
EndSplineSet
EndChar

StartChar: uniF064
Encoding: 61540 61540 72
Width: 1000
Flags: H
LayerCount: 2
Fore
SplineSet
484.375 -90 m 2
 415.693959802 -90 360 -34.3060401979 360 34.375 c 2
 360 565.625 l 2
 360 634.306040198 415.693959802 690 484.375 690 c 2
 890.625 690 l 2
 959.306040198 690 1015 634.306040198 1015 565.625 c 2
 1015 34.375 l 2
 1015 -34.3060401979 959.306040198 -90 890.625 -90 c 2
 484.375 -90 l 2
483.75 34.375 m 2
 483.75 34.0196455245 484.019600573 33.75 484.375 33.75 c 2
 890.625 33.75 l 2
 890.982016871 33.75 891.25 34.0179831287 891.25 34.375 c 2
 891.25 565.625 l 2
 891.25 565.980399427 890.980354476 566.25 890.625 566.25 c 2
 484.375 566.25 l 2
 484.021263025 566.25 483.75 565.978736975 483.75 565.625 c 2
 483.75 34.375 l 2
327.507751123 557.31416543 m 0
 327.507751123 535.989116672 316.450937593 515.189645575 296.591247919 503.701541651 c 0
 296.323170922 503.546474293 296.25 503.411224852 296.25 503.131835938 c 2
 296.25 96.880859375 l 2
 296.25 96.6049393196 296.311679143 96.4740156682 296.591019169 96.3122625402 c 0
 316.451186545 84.824747763 327.507751123 64.0251331602 327.507751123 42.6992720859 c 0
 327.507751123 32.1451097802 324.813782686 21.4907569703 319.193427821 11.7730558646 c 0
 307.70522205 -8.08421347682 286.906676355 -19.1389642156 265.582797351 -19.1389642156 c 0
 255.028578538 -19.1389642156 244.376840236 -16.4463839579 234.659529078 -10.825274954 c 0
 197.604288965 10.6061222023 172.5 50.7835197536 172.5 96.880859375 c 2
 172.5 503.131835938 l 2
 172.5 549.229534634 197.60495352 589.404466463 234.658557016 610.839361138 c 0
 244.375370334 616.460182159 255.02755529 619.153258935 265.581342382 619.153258935 c 0
 286.90639114 619.153258935 307.705749401 608.096640472 319.193853324 588.236950797 c 0
 324.814674346 578.520137479 327.507751123 567.867952522 327.507751123 557.31416543 c 0
108.75 440.631835938 m 2
 108.75 159.380859375 l 2
 108.75 159.104939319 108.811679144 158.974015668 109.091019169 158.81226254 c 0
 128.951186545 147.324747763 140.007751123 126.52513316 140.007751123 105.199272086 c 0
 140.007751123 94.6451097801 137.313782686 83.9907569702 131.693427821 74.2730558646 c 0
 120.20522205 54.4157865232 99.4066763552 43.3610357844 78.0827973509 43.3610357844 c 0
 67.5285785383 43.3610357844 56.8768402369 46.053616042 47.1595290787 51.6747250459 c 0
 10.1042889647 73.1061222022 -15 113.283519754 -15 159.380859375 c 2
 -15 440.631835938 l 2
 -15 486.729534634 10.1049535193 526.904466463 47.158557016 548.339361137 c 0
 56.8753703338 553.960182159 67.5275552903 556.653258935 78.0813423824 556.653258935 c 0
 99.4063911397 556.653258935 120.205749401 545.596640472 131.693853324 525.736950797 c 0
 137.314674346 516.020137479 140.007751123 505.367952522 140.007751123 494.81416543 c 0
 140.007751123 473.489116672 128.950937592 452.689645575 109.091247918 441.201541651 c 0
 108.823170922 441.046474293 108.75 440.911224853 108.75 440.631835938 c 2
EndSplineSet
EndChar

StartChar: uniF068
Encoding: 61544 61544 73
Width: 1000
Flags: H
LayerCount: 2
Fore
SplineSet
296.875 815 m 0
 331.037366392 815 358.75 787.288675959 358.75 753.125 c 2
 358.75 690 l 1
 641.25 690 l 1
 641.25 753.125 l 2
 641.25 787.288675959 668.962633608 815 703.125 815 c 0
 737.287366392 815 765 787.288675959 765 753.125 c 2
 765 690 l 1
 828.125 690 l 2
 896.806040198 690 952.5 634.306040198 952.5 565.625 c 2
 952.5 -90.625 l 2
 952.5 -159.306040198 896.806040198 -215 828.125 -215 c 2
 171.875 -215 l 2
 103.193959802 -215 47.5 -159.306040198 47.5 -90.625 c 2
 47.5 565.625 l 2
 47.5 634.306040198 103.193959802 690 171.875 690 c 2
 235 690 l 1
 235 753.125 l 2
 235 787.288675959 262.712633608 815 296.875 815 c 0
171.875 566.25 m 2
 171.521263025 566.25 171.25 565.978736975 171.25 565.625 c 2
 171.25 440 l 1
 828.75 440 l 1
 828.75 565.625 l 2
 828.75 565.980399427 828.480354476 566.25 828.125 566.25 c 2
 171.875 566.25 l 2
828.75 316.25 m 1
 171.25 316.25 l 1
 171.25 -90.625 l 2
 171.25 -90.9803544755 171.519600573 -91.25 171.875 -91.25 c 2
 828.125 -91.25 l 2
 828.482016871 -91.25 828.75 -90.9820168713 828.75 -90.625 c 2
 828.75 316.25 l 1
EndSplineSet
EndChar

StartChar: uniF06A
Encoding: 61546 61546 74
Width: 1000
Flags: H
LayerCount: 2
Fore
SplineSet
235 550 m 2
 235 620.307333095 262.891843973 687.653503634 312.618245664 737.381976913 c 0
 362.346839116 787.109534568 429.692821377 815 500 815 c 0
 570.307098528 815 637.653743072 787.11010666 687.379689927 737.382088193 c 0
 737.110526033 687.653323687 765 620.307030278 765 550 c 2
 765 440 l 1
 765.625 440 l 2
 798.633738418 440 830.211142233 426.924523953 853.5674125 403.569365625 c 0
 876.922631778 380.214146347 890 348.636088139 890 315.625 c 2
 890 -28.125 l 2
 890 -61.1344585879 876.921883475 -92.7118296005 853.567158127 -116.067666867 c 0
 830.21132086 -139.422392216 798.634458588 -152.5 765.625 -152.5 c 2
 234.375 -152.5 l 2
 165.722177196 -152.5 110 -96.7778228041 110 -28.125 c 2
 110 315.625 l 2
 110 348.635367985 123.074982113 380.213713363 146.430634375 403.569365625 c 0
 169.786286637 426.925017887 201.364632015 440 234.375 440 c 2
 235 440 l 1
 235 550 l 2
358.75 440 m 1
 641.25 440 l 1
 641.25 550 l 2
 641.25 587.437727677 626.338732768 623.422926607 599.880829687 649.880829687 c 0
 573.423118871 676.339422281 537.437974835 691.25 500 691.25 c 0
 462.562025165 691.25 426.577059193 676.339600348 400.119348376 649.881007753 c 0
 373.660755782 623.423296937 358.75 587.437974835 358.75 550 c 2
 358.75 440 l 1
766.25 315.625 m 2
 766.25 315.974284347 765.966701381 316.25 765.625 316.25 c 2
 234.375 316.25 l 2
 234.034061715 316.25 233.75 315.967200396 233.75 315.625 c 2
 233.75 -28.125 l 2
 233.75 -28.4661585774 234.025288905 -28.75 234.375 -28.75 c 2
 765.625 -28.75 l 2
 765.974487069 -28.75 766.25 -28.4742796453 766.25 -28.125 c 2
 766.25 315.625 l 2
EndSplineSet
EndChar

StartChar: uniF06B
Encoding: 61547 61547 75
Width: 1000
Flags: H
LayerCount: 2
Fore
SplineSet
828.125 628.75 m 2
 171.875 628.75 l 2
 171.521263025 628.75 171.25 628.478736975 171.25 628.125 c 2
 171.25 -28.125 l 2
 171.25 -28.4803544755 171.519600573 -28.75 171.875 -28.75 c 2
 828.125 -28.75 l 2
 828.482016871 -28.75 828.75 -28.4820168713 828.75 -28.125 c 2
 828.75 628.125 l 2
 828.75 628.480399427 828.480354476 628.75 828.125 628.75 c 2
171.875 752.5 m 2
 828.125 752.5 l 2
 896.806040198 752.5 952.5 696.806040198 952.5 628.125 c 2
 952.5 -28.125 l 2
 952.5 -96.8060401979 896.806040198 -152.5 828.125 -152.5 c 2
 171.875 -152.5 l 2
 103.193959802 -152.5 47.5 -96.8060401979 47.5 -28.125 c 2
 47.5 628.125 l 2
 47.5 696.806040198 103.193959802 752.5 171.875 752.5 c 2
500 565 m 0
 534.162643459 565 561.875 537.287643459 561.875 503.125 c 2
 561.875 361.875 l 1
 703.125 361.875 l 2
 737.287643459 361.875 765 334.162643459 765 300 c 0
 765 265.837356541 737.287643459 238.125 703.125 238.125 c 2
 561.875 238.125 l 1
 561.875 96.875 l 2
 561.875 62.7123565407 534.162643459 35 500 35 c 0
 465.837356541 35 438.125 62.7123565407 438.125 96.875 c 2
 438.125 238.125 l 1
 296.875 238.125 l 2
 262.712356541 238.125 235 265.837356541 235 300 c 0
 235 334.162643459 262.712356541 361.875 296.875 361.875 c 2
 438.125 361.875 l 1
 438.125 503.125 l 2
 438.125 537.287643459 465.837356541 565 500 565 c 0
EndSplineSet
EndChar

StartChar: uniF06C
Encoding: 61548 61548 76
Width: 1000
Flags: H
LayerCount: 2
Fore
SplineSet
171.875 628.75 m 2
 171.521263025 628.75 171.25 628.478736975 171.25 628.125 c 2
 171.25 -28.125 l 2
 171.25 -28.4803544755 171.519600573 -28.75 171.875 -28.75 c 2
 828.125 -28.75 l 2
 828.482016871 -28.75 828.75 -28.4820168713 828.75 -28.125 c 2
 828.75 628.125 l 2
 828.75 628.480399427 828.480354476 628.75 828.125 628.75 c 2
 171.875 628.75 l 2
828.125 752.5 m 2
 896.806040198 752.5 952.5 696.806040198 952.5 628.125 c 2
 952.5 -28.125 l 2
 952.5 -96.8060401979 896.806040198 -152.5 828.125 -152.5 c 2
 171.875 -152.5 l 2
 103.193959802 -152.5 47.5 -96.8060401979 47.5 -28.125 c 2
 47.5 628.125 l 2
 47.5 696.806040198 103.193959802 752.5 171.875 752.5 c 2
 828.125 752.5 l 2
703.125 238.125 m 2
 296.875 238.125 l 2
 262.712356541 238.125 235 265.837356541 235 300 c 0
 235 334.162643459 262.712356541 361.875 296.875 361.875 c 2
 703.125 361.875 l 2
 737.287643459 361.875 765 334.162643459 765 300 c 0
 765 265.837356541 737.287643459 238.125 703.125 238.125 c 2
EndSplineSet
EndChar

StartChar: uniF06D
Encoding: 61549 61549 77
Width: 1000
Flags: H
LayerCount: 2
Fore
SplineSet
171.875 628.75 m 2
 171.521263025 628.75 171.25 628.478736975 171.25 628.125 c 2
 171.25 -28.125 l 2
 171.25 -28.4803544755 171.519600573 -28.75 171.875 -28.75 c 2
 828.125 -28.75 l 2
 828.482016871 -28.75 828.75 -28.4820168713 828.75 -28.125 c 2
 828.75 628.125 l 2
 828.75 628.480399427 828.480354476 628.75 828.125 628.75 c 2
 171.875 628.75 l 2
828.125 752.5 m 2
 896.806040198 752.5 952.5 696.806040198 952.5 628.125 c 2
 952.5 -28.125 l 2
 952.5 -96.8060401979 896.806040198 -152.5 828.125 -152.5 c 2
 171.875 -152.5 l 2
 103.193959802 -152.5 47.5 -96.8060401979 47.5 -28.125 c 2
 47.5 628.125 l 2
 47.5 696.806040198 103.193959802 752.5 171.875 752.5 c 2
 828.125 752.5 l 2
500 160 m 0
 422.690006167 160 360 222.690006167 360 300 c 0
 360 377.309993833 422.690006167 440 500 440 c 0
 577.309993833 440 640 377.309993833 640 300 c 0
 640 222.690006167 577.309993833 160 500 160 c 0
EndSplineSet
EndChar

StartChar: uniF06E
Encoding: 61550 61550 78
Width: 1000
Flags: H
LayerCount: 2
Fore
SplineSet
171.875 628.75 m 2
 171.521263025 628.75 171.25 628.478736975 171.25 628.125 c 2
 171.25 -28.125 l 2
 171.25 -28.4803544755 171.519600573 -28.75 171.875 -28.75 c 2
 828.125 -28.75 l 2
 828.482016871 -28.75 828.75 -28.4820168713 828.75 -28.125 c 2
 828.75 628.125 l 2
 828.75 628.480399427 828.480354476 628.75 828.125 628.75 c 2
 171.875 628.75 l 2
828.125 752.5 m 2
 896.806040198 752.5 952.5 696.806040198 952.5 628.125 c 2
 952.5 -28.125 l 2
 952.5 -96.8060401979 896.806040198 -152.5 828.125 -152.5 c 2
 171.875 -152.5 l 2
 103.193959802 -152.5 47.5 -96.8060401979 47.5 -28.125 c 2
 47.5 628.125 l 2
 47.5 696.806040198 103.193959802 752.5 171.875 752.5 c 2
 828.125 752.5 l 2
500 35.0014648438 m 0
 484.176984839 35.0014648438 468.339815613 41.0364331738 456.249970313 53.1269234373 c 0
 444.160437474 65.2164562763 438.125244141 81.0527745756 438.125244141 96.8750000001 c 0
 438.125244141 112.697225425 444.160352706 128.533458956 456.249885545 140.622991795 c 2
 553.750346849 238.125 l 1
 296.875 238.125 l 2
 262.712356541 238.125 235 265.837356541 235 300 c 0
 235 334.162643459 262.712356541 361.875 296.875 361.875 c 2
 553.749940625 361.875 l 1
 456.249970313 459.374970313 l 2
 444.160055035 471.46488559 438.125244141 487.302211395 438.125244141 503.125 c 0
 438.125244141 518.947788605 444.160055035 534.78511441 456.249970313 546.875029687 c 0
 468.33988559 558.964944965 484.177211395 564.999755859 500 564.999755859 c 0
 515.822788605 564.999755859 531.660165784 558.96489359 543.750081061 546.874978312 c 2
 746.870702461 343.752403262 l 2
 758.511423703 332.116852801 765 316.433159397 765 300 c 0
 765 283.566840603 758.513797805 267.885520774 746.873076563 256.249970313 c 2
 543.750314707 53.1272084654 l 2
 531.660469408 41.036718202 515.823015161 35.0014648438 500 35.0014648438 c 0
EndSplineSet
EndChar

StartChar: uniF070
Encoding: 61552 61552 79
Width: 1000
Flags: H
LayerCount: 2
Fore
SplineSet
-15 315.625 m 0
 -15 349.787366392 12.7113240413 377.5 46.875 377.5 c 2
 953.125 377.5 l 2
 987.287643459 377.5 1015 349.787643459 1015 315.625 c 0
 1015 281.462356541 987.287643459 253.75 953.125 253.75 c 2
 46.875 253.75 l 2
 12.7113240413 253.75 -15 281.462633608 -15 315.625 c 0
EndSplineSet
EndChar

StartChar: uniF075
Encoding: 61557 61557 80
Width: 1000
Flags: H
LayerCount: 2
Fore
SplineSet
484.375 815 m 0
 500.808950671 815 516.490390665 808.510961305 528.125029686 796.875029688 c 0
 539.759914602 785.240144774 546.25 769.559201217 546.25 753.125 c 2
 546.25 627.5 l 1
 758.375 627.5 l 2
 787.838014017 627.5 816.207221513 617.068258472 838.675498804 598.083986205 c 2
 968.053955143 488.706063291 l 2
 992.280962303 468.211835815 1012.10644531 435.361882552 1012.10644531 393.75 c 0
 1012.10644531 352.174847155 992.252008563 319.263672386 968.050498804 298.791013795 c 2
 838.679317799 189.419243499 l 2
 816.205703947 170.407041931 787.815763626 160.004446741 758.375 160 c 2
 546.25 160 l 1
 546.25 -153.125 l 2
 546.25 -169.558523164 539.765793662 -185.237483529 528.127403262 -196.870702461 c 0
 516.491852801 -208.511423703 500.808159397 -215 484.375 -215 c 0
 467.941840603 -215 452.262895668 -208.516172171 440.627345207 -196.875450929 c 0
 428.988954807 -185.242231998 422.5 -169.558523164 422.5 -153.125 c 2
 422.5 160 l 1
 171.875 160 l 2
 138.864632015 160 107.286286637 173.074982113 83.930634375 196.430634375 c 0
 60.5749821133 219.786286637 47.5 251.364632015 47.5 284.375 c 2
 47.5 503.125 l 2
 47.5 571.777822804 103.222177196 627.5 171.875 627.5 c 2
 422.5 627.5 l 1
 422.5 753.125 l 2
 422.5 769.559201217 428.989491854 785.239551197 440.62437677 796.874436111 c 0
 452.259015791 808.510367728 467.941049329 815 484.375 815 c 0
171.875 503.750258558 m 2
 171.534197013 503.750258558 171.25 503.467110823 171.25 503.125 c 2
 171.25 284.375 l 2
 171.25 284.027822804 171.527822804 283.75 171.875 283.75 c 2
 758.375 283.75 l 2
 758.493629384 283.75069007 758.603992585 283.824205411 758.69859686 283.905083178 c 2
 888.137001196 393.333986205 l 2
 888.209847561 393.396366615 888.28125 393.620842287 888.28125 393.75 c 0
 888.28125 393.935177413 888.180068941 394.128735053 888.064175323 394.227978048 c 2
 758.762001196 503.541013795 l 2
 758.667396922 503.621891562 758.404712853 503.749568487 758.286083469 503.750258558 c 2
 171.875 503.750258558 l 2
EndSplineSet
EndChar

StartChar: uniF076
Encoding: 61558 61558 81
Width: 1000
Flags: H
LayerCount: 2
Fore
SplineSet
171.25 690.625 m 2
 171.25 -28.125 l 2
 171.25 -28.4803544755 171.519600573 -28.75 171.875 -28.75 c 2
 370.051757812 -28.75 l 2
 404.215433772 -28.75 431.926757812 -56.4626336079 431.926757812 -90.625 c 0
 431.926757812 -124.787366392 404.215433772 -152.5 370.051757812 -152.5 c 2
 171.875 -152.5 l 2
 103.193959802 -152.5 47.5 -96.8060401979 47.5 -28.125 c 2
 47.5 690.625 l 2
 47.5 759.306040198 103.193959802 815 171.875 815 c 2
 703.125 815 l 2
 771.806040198 815 827.5 759.306040198 827.5 690.625 c 2
 827.5 207.096679688 l 2
 827.5 172.933898407 799.788627425 145.21875 765.625 145.21875 c 0
 731.461372575 145.21875 703.75 172.933898407 703.75 207.096679688 c 2
 703.75 690.625 l 2
 703.75 690.980399427 703.480354476 691.25 703.125 691.25 c 2
 171.875 691.25 l 2
 171.521263025 691.25 171.25 690.978736975 171.25 690.625 c 2
296.875 565 m 2
 578.125 565 l 2
 612.287643459 565 640 537.287643459 640 503.125 c 0
 640 468.962356541 612.287643459 441.25 578.125 441.25 c 2
 296.875 441.25 l 2
 262.712356541 441.25 235 468.962356541 235 503.125 c 0
 235 537.287643459 262.712356541 565 296.875 565 c 2
235 315.625 m 0
 235 349.787643459 262.712356541 377.5 296.875 377.5 c 2
 421.875 377.5 l 2
 456.037643459 377.5 483.75 349.787643459 483.75 315.625 c 0
 483.75 281.462356541 456.037643459 253.75 421.875 253.75 c 2
 296.875 253.75 l 2
 262.712356541 253.75 235 281.462356541 235 315.625 c 0
668.320306066 -211.874750537 m 0
 652.453728183 -211.874750537 636.580799165 -205.807048972 624.488757484 -193.673353237 c 2
 503.047581069 -71.7985838875 l 2
 491.006980552 -59.7155143865 485.000170205 -43.9124585848 485.000170205 -28.1256352734 c 0
 485.000170205 -12.2660857057 491.064364157 3.60835902758 503.203823134 15.7057972971 c 0
 515.287000577 27.7432880014 531.089033974 33.7490956948 546.875193625 33.7490956948 c 0
 562.733295336 33.7490956948 578.605729747 27.6872934003 590.702692296 15.5483095515 c 2
 668.912576766 -62.9414556944 l 1
 909.897215516 172.391883008 l 2
 921.936708775 184.150753158 937.540894306 190.000030052 953.120251797 190.000030052 c 0
 969.187388404 190.000030052 985.258028831 183.778176056 997.391598039 171.353076245 c 0
 1009.15085377 159.313838231 1014.99932064 143.710030569 1014.99932064 128.131696762 c 0
 1014.99932064 112.063950056 1008.7754779 95.9912555205 996.351944928 83.8572970687 c 2
 711.545806881 -194.267212121 l 2
 699.511134644 -206.020640689 683.90717014 -211.874750537 668.320306066 -211.874750537 c 0
EndSplineSet
EndChar

StartChar: uniF077
Encoding: 61559 61559 82
Width: 1000
Flags: H
LayerCount: 2
Fore
SplineSet
108.75 393.75 m 0
 108.75 315.730892271 171.980892271 252.5 250 252.5 c 2
 360 252.5 l 1
 360 535 l 1
 250 535 l 2
 171.980892271 535 108.75 471.769107729 108.75 393.75 c 0
483.75 520.730956623 m 1
 483.75 266.767172068 l 1
 641.02494507 259.794503168 761.184927926 227.013864301 845.237047798 193.392244949 c 0
 862.027724908 186.676740278 877.362549968 179.932684332 891.25 173.366710534 c 1
 891.25 614.131558438 l 1
 877.361259975 607.564445194 862.026576416 600.822124118 845.237301121 594.10590326 c 0
 761.185085288 560.484245523 641.024894743 527.704465606 483.75 520.730956623 c 1
376.814999265 -91.2607904279 m 0
 377.372929615 -91.2607904279 379.59916249 -90.868846502 383.33715013 -85.3605596464 c 0
 386.447714299 -80.7790692387 387.873734311 -75.4224232041 387.873734311 -71.429871347 c 0
 387.873734311 -70.0071614846 387.699455523 -68.7660069031 387.4611913 -67.8521023924 c 0
 374.374934429 -17.6619833879 362.836955641 48.2157722897 360.451092442 128.75 c 1
 265.513467125 128.75 l 1
 269.118803075 21.9618428855 290.939099314 -52.3657479001 305.717197516 -91.2501633347 c 1
 329.370058761 -91.2501633347 353.022920005 -91.25 376.67578125 -91.25 c 2
 376.67578125 -91.25 376.722425623 -91.2607904279 376.814999265 -91.2607904279 c 0
1015 65.625 m 2
 1015 33.9112297531 989.913078304 3.74767948026 953.130697615 3.74767948026 c 0
 938.535075165 3.74767948026 925.359963221 8.93682443168 913.521360704 18.054164555 c 0
 906.261846427 23.6149677233 900.882671813 27.220993502 888.570649621 34.6863783868 c 0
 869.539005637 46.2384730017 839.862046341 62.2542003104 799.294404792 78.4787677647 c 0
 728.378323031 106.844646574 623.797779423 136.030253944 483.898255959 142.873640847 c 1
 485.256687416 67.3339602477 495.789898522 7.18546153667 507.211710224 -36.6226986266 c 0
 510.237112901 -48.2277977386 511.644659888 -59.9148099226 511.644659888 -71.4307055693 c 0
 511.644659888 -102.133637755 501.736492624 -131.270549911 485.746137385 -154.827967152 c 0
 463.680701006 -187.337753427 425.473216211 -215 376.67578125 -215 c 2
 301.89453125 -215 l 2
 257.890178974 -215 212.064707101 -190.734686412 193.092846755 -143.07667684 c 0
 172.445748109 -91.2138138793 142.282113121 8.84444606944 141.275850229 152.009076161 c 1
 49.1384286927 193.517369932 -14.9999999208 286.153787947 -15 393.75 c 0
 -15 540.096085183 103.653914817 658.75 250 658.75 c 2
 368.303710938 658.75 l 2
 389.449041571 658.75 409.27139229 653.062863639 426.32112534 643.131538124 c 1
 595.446070588 643.705019405 718.969883997 676.887516998 799.293917653 709.017131123 c 0
 839.861909655 725.245668254 869.538292104 741.262852434 888.572975477 752.811126855 c 0
 901.344965107 760.560480881 906.513984445 764.00317169 914.275131201 770.027398322 c 1
 908.612330184 758.293027352 l 1
 923.61217235 743.293146472 l 2
 926.421219406 744.344707793 929.969759086 744.656776489 932.33264082 746.15450313 c 1
 914.372061415 770.102964192 l 1
 938.53125 788.686955411 l 1
 938.53125 767.734059075 l 1
 964.018908469 755.605663517 989.500234468 743.475814505 1015 731.353786611 c 1
 1015 65.625 l 2
EndSplineSet
EndChar

StartChar: uniF078
Encoding: 61560 61560 83
Width: 1000
Flags: H
LayerCount: 2
Fore
SplineSet
421.875 627.499755859 m 0
 437.697788605 627.499755859 453.535153696 621.464905679 465.625068973 609.374990401 c 2
 731.247791535 343.750314707 l 2
 743.338281798 331.660469408 749.373535156 315.823015161 749.373535156 300 c 0
 749.373535156 284.176984839 743.338566826 268.339815612 731.248076563 256.249970313 c 2
 465.625314707 -9.37279153456 l 2
 453.535469408 -21.463281798 437.698015161 -27.4985351562 421.875 -27.4985351562 c 0
 406.051984839 -27.4985351562 390.214815613 -21.4635668262 378.124970313 -9.37307656268 c 0
 366.035437474 2.71645627629 360.000244141 18.5527745755 360.000244141 34.375 c 0
 360.000244141 50.1972254245 366.035392587 66.0334988363 378.124925426 78.1230316752 c 2
 599.999985171 299.999955455 l 1
 378.124970313 521.874970313 l 2
 366.035055035 533.96488559 360.000244141 549.802211395 360.000244141 565.625 c 0
 360.000244141 581.447788605 366.035055035 597.28511441 378.124970313 609.375029687 c 0
 390.21488559 621.464944965 406.052211395 627.499755859 421.875 627.499755859 c 0
EndSplineSet
EndChar

StartChar: uniF07B
Encoding: 61563 61563 84
Width: 1000
Flags: H
LayerCount: 2
Fore
SplineSet
296.875 628.75 m 2
 296.521263025 628.75 296.25 628.478736975 296.25 628.125 c 2
 296.25 40.481755345 l 1
 460.675197597 175.890391682 l 2
 472.106291471 185.306016793 486.031770363 189.999267578 500 189.999267578 c 0
 513.968229637 189.999267578 527.894806122 185.305112808 539.325899996 175.889487697 c 2
 703.75 40.4817553337 l 1
 703.75 628.125 l 2
 703.75 628.480399427 703.480354476 628.75 703.125 628.75 c 2
 296.875 628.75 l 2
234.362635134 -152.499209162 m 0
 197.593392598 -152.499209162 172.5 -122.324616474 172.5 -90.625 c 2
 172.5 628.125 l 2
 172.5 696.806040198 228.193959802 752.5 296.875 752.5 c 2
 703.125 752.5 l 2
 771.806040198 752.5 827.5 696.806040198 827.5 628.125 c 2
 827.5 -90.625 l 2
 827.5 -122.3278422 802.429594961 -152.499209162 765.637268187 -152.499209162 c 0
 751.523076025 -152.499209162 737.616799835 -147.70833692 726.299263758 -138.390426867 c 2
 499.999980276 47.971814712 l 1
 273.699931107 -138.39028569 l 2
 262.383236318 -147.710102405 248.476957048 -152.499209162 234.362635134 -152.499209162 c 0
EndSplineSet
EndChar

StartChar: uniF07D
Encoding: 61565 61565 85
Width: 1000
Flags: H
LayerCount: 2
Fore
SplineSet
577.5 472.5 m 1
 485 472.5 l 1
 485 565 l 1
 577.5 565 l 1
 577.5 472.5 l 1
827.5 315 m 1
 827.5 222.5 l 1
 735 222.5 l 1
 735 315 l 1
 827.5 315 l 1
390 502.5 m 1
 390 410 l 1
 297.5 410 l 1
 297.5 502.5 l 1
 390 502.5 l 1
327.5 315 m 1
 327.5 222.5 l 1
 235 222.5 l 1
 235 315 l 1
 327.5 315 l 1
640 237.5 m 2
 640 194.825949578 605.174050422 160 562.5 160 c 2
 500 160 l 2
 457.325949578 160 422.5 194.825949578 422.5 237.5 c 2
 422.5 300 l 2
 422.5 342.617325303 457.233425287 377.407400306 499.829866309 377.499815497 c 0
 502.004505271 377.54553139 526.665805739 378.055555516 544.62962963 378.055555556 c 0
 549.783643937 378.055555556 554.367300551 378.016405095 557.921820303 377.900254683 c 1
 970.042715692 694.916328058 l 1
 1021.60068965 643.3583541 l 1
 640 288.469712725 l 1
 640 237.5 l 2
1015 268.75 m 0
 1015 1.72217719593 798.277822804 -215 531.25 -215 c 0
 264.222177196 -215 47.5 1.72217719593 47.5 268.75 c 0
 47.5 535.786986715 264.237674121 752.5 531.875 752.5 c 0
 632.57679475 752.5 726.069023344 720.887753622 802.800534247 668.658741998 c 2
 817.78992389 658.45588014 l 1
 737.791666857 578.457623107 l 1
 727.690892518 584.770607069 l 2
 669.950670281 620.858245968 603.348308565 641.25 531.25 641.25 c 0
 325.78193146 641.25 158.75 474.21806854 158.75 268.75 c 0
 158.75 63.3144318315 326.383851603 -103.75 531.875 -103.75 c 0
 737.34306854 -103.75 904.375 63.28193146 904.375 268.75 c 0
 904.375 308.298308611 897.782525694 346.80107117 886.300500856 383.664414072 c 2
 883.606032354 392.315076104 l 1
 968.051555364 476.760599114 l 1
 976.87112773 456.633882688 l 2
 1002.12686041 398.999005544 1015 335.097315335 1015 268.75 c 0
EndSplineSet
EndChar

